<?xml version="1.0" encoding="utf-8"?>
<!-- Generator: Adobe Illustrator 23.1.0, SVG Export Plug-In . SVG Version: 6.00 Build 0)  -->
<svg version="1.1" id="Layer_1" xmlns="http://www.w3.org/2000/svg" xmlns:xlink="http://www.w3.org/1999/xlink" x="0px" y="0px"
	 viewBox="0 0 1417.32 761.48" style="enable-background:new 0 0 1417.32 761.48;" xml:space="preserve">
<g>
	<path style="fill:#D33C07;" d="M624.53,347.51c-2.24-2.18-4.83-3.9-7.78-5.16s-6.11-1.88-9.5-1.88c-3.38,0-6.55,0.63-9.5,1.88
		s-5.51,2.97-7.7,5.16c-2.19,2.18-3.9,4.75-5.16,7.7c-1.26,2.95-1.88,6.11-1.88,9.5c0,3.38,0.63,6.55,1.88,9.5s2.97,5.54,5.16,7.78
		c2.18,2.24,4.75,3.98,7.7,5.24c2.95,1.25,6.11,1.88,9.5,1.88c3.38,0,6.55-0.63,9.5-1.88c2.95-1.26,5.54-3,7.78-5.24
		c2.24-2.24,3.98-4.83,5.24-7.78c1.25-2.95,1.88-6.12,1.88-9.5c0-3.39-0.63-6.55-1.88-9.5C628.51,352.26,626.77,349.7,624.53,347.51
		z"/>
	<path style="fill:#D33C07;" d="M664.73,145.7c-2.19-4.31-5.46-8.05-9.82-11.22c-4.37-3.17-10.07-5.7-17.11-7.61
		c-7.04-1.91-15.8-2.87-26.28-2.87H575.5l-11.13,120.51h36.35l7.53-84.82c6.98,0,12.25,0.88,15.8,2.62
		c3.55,1.75,5.98,3.93,7.29,6.55c1.31,2.62,1.96,5.46,1.96,8.51c0,0.22-0.03,1.23-0.08,3.03c-0.06,1.8-0.25,4.34-0.57,7.61
		l-5.24,58.29c-0.11,1.42-0.16,2.84-0.16,4.26c0,1.09,0.05,2.57,0.16,4.42c0.11,1.86,0.41,3.93,0.9,6.22s1.09,4.31,1.8,6.06
		c0.71,1.75,1.39,3.17,2.05,4.26h-83.18h-13.59h-13.43l7.86-90.06h-36.19L480.2,330.47c-0.22,1.75-0.68,3.36-1.39,4.83
		c-0.71,1.47-1.83,3.19-3.36,5.16h36.51c1.31-1.2,2.37-2.48,3.19-3.85s1.34-3.41,1.56-6.14l2.46-26.85h13.43h13.1h120.5l2.95-32.26
		c-1.2-0.98-2.18-2.48-2.95-4.5c-0.76-2.02-1.37-4.31-1.8-6.88c-0.44-2.56-0.68-4.75-0.74-6.55s-0.08-3.14-0.08-4.01
		c0-1.74,0.05-3.44,0.16-5.08l5.08-56.33c0.44-4.58,0.71-8.4,0.82-11.46c0.11-3.06,0.16-5.18,0.16-6.39c0-3.71-0.3-7.64-0.9-11.79
		C668.3,154.24,666.91,150.02,664.73,145.7z"/>
	<path style="fill:#D33C07;" d="M814.39,52.12c-1.96,2.19-4.37,4.09-7.21,5.73s-5.98,3-9.42,4.09s-7.1,1.88-10.97,2.37
		c-3.88,0.49-7.83,0.74-11.87,0.74H680.6l-2.95,32.26h87.44c10.92,0,20.06-0.25,27.43-0.74s13.73-1.47,19.08-2.95
		c5.35-1.47,10.12-3.55,14.33-6.22c4.2-2.67,8.6-6.19,13.18-10.56L814.39,52.12z"/>
	<polygon style="fill:#D33C07;" points="685.69,303.8 722.2,303.8 738.25,124.17 702.06,124.17 	"/>
</g>
<g>
	<path style="fill:#D33C07;" d="M213.87,518.31c-2.95-1.31-6.11-1.97-9.5-1.97c-3.38,0-6.55,0.66-9.5,1.97s-5.51,3.06-7.7,5.24
		s-3.9,4.75-5.16,7.7c-1.26,2.95-1.88,6.11-1.88,9.5c0,3.38,0.63,6.55,1.88,9.5s2.97,5.54,5.16,7.78c2.18,2.24,4.75,3.99,7.7,5.24
		c2.95,1.26,6.11,1.88,9.5,1.88c3.38,0,6.55-0.63,9.5-1.88s5.51-3,7.7-5.24c2.18-2.24,3.93-4.83,5.24-7.78
		c1.31-2.95,1.96-6.11,1.96-9.5c0-3.38-0.66-6.55-1.96-9.5c-1.31-2.95-3.06-5.51-5.24-7.7
		C219.38,521.37,216.82,519.62,213.87,518.31z"/>
	<path style="fill:#D33C07;" d="M390.63,605.92c-2.02-2.4-4.45-4.37-7.29-5.89c-2.84-1.53-5.95-2.46-9.33-2.78
		c-0.77-0.11-1.58-0.16-2.46-0.16c-2.4,0-4.94,0.43-7.61,1.31c-2.68,0.87-5.21,2.29-7.61,4.26c-2.4,1.96-4.37,4.36-5.9,7.2
		s-2.46,5.95-2.78,9.33c-0.11,0.76-0.16,1.58-0.16,2.46c0,3.6,0.93,7.21,2.78,10.81s4.53,6.66,8.02,9.17
		c-3.93,1.75-7.2,4.36-9.82,7.86c-2.62,3.49-4.2,7.53-4.75,12.12c-0.11,0.76-0.16,1.58-0.16,2.46c0,2.51,0.47,5.1,1.39,7.78
		c0.93,2.67,2.4,5.18,4.42,7.53c2.02,2.35,4.45,4.28,7.29,5.81c2.84,1.53,5.89,2.46,9.17,2.78c0.87,0.11,1.69,0.16,2.46,0.16
		c2.51,0,5.1-0.44,7.78-1.31c2.67-0.88,5.21-2.32,7.61-4.34s4.36-4.45,5.89-7.29c1.53-2.84,2.46-5.89,2.78-9.17
		c0.11-0.76,0.16-1.58,0.16-2.46c0-3.6-0.93-7.2-2.78-10.81c-1.86-3.6-4.53-6.61-8.02-9.01c3.93-1.86,7.21-4.53,9.82-8.02
		c2.62-3.5,4.15-7.53,4.58-12.12c0.11-0.88,0.16-1.69,0.16-2.46c0-2.4-0.44-4.94-1.31-7.61
		C394.1,610.85,392.65,608.32,390.63,605.92z"/>
	<path style="fill:#D33C07;" d="M506.89,647.92c-2.13-2.13-4.61-3.79-7.45-4.99c-2.84-1.2-5.84-1.8-9.01-1.8s-6.17,0.6-9.01,1.8
		s-5.3,2.87-7.37,4.99c-2.08,2.13-3.71,4.61-4.91,7.45s-1.8,5.9-1.8,9.17c0,3.17,0.6,6.17,1.8,9.01c1.2,2.84,2.84,5.29,4.91,7.37
		c2.07,2.07,4.53,3.71,7.37,4.91c2.84,1.2,5.84,1.8,9.01,1.8s6.17-0.6,9.01-1.8s5.32-2.84,7.45-4.91c2.13-2.07,3.79-4.53,4.99-7.37
		c1.2-2.84,1.8-5.84,1.8-9.01c0-3.27-0.6-6.33-1.8-9.17S509.02,650.04,506.89,647.92z"/>
	<path style="fill:#D33C07;" d="M530.96,603.38c-2.13-2.13-4.61-3.79-7.45-4.99s-5.84-1.8-9.01-1.8c-4.37,0-8.35,1.12-11.95,3.36
		s-6.39,5.16-8.35,8.76c-1.96-3.6-4.75-6.52-8.35-8.76s-7.59-3.36-11.95-3.36c-3.27,0-6.3,0.6-9.09,1.8
		c-2.78,1.2-5.24,2.87-7.37,4.99c-2.13,2.13-3.79,4.61-4.99,7.45c-1.2,2.84-1.8,5.84-1.8,9.01c0,3.27,0.6,6.33,1.8,9.17
		c1.2,2.84,2.87,5.32,4.99,7.45c2.13,2.13,4.58,3.79,7.37,4.99c2.78,1.2,5.81,1.8,9.09,1.8c4.36,0,8.35-1.12,11.95-3.36
		s6.39-5.1,8.35-8.6c1.97,3.49,4.75,6.36,8.35,8.6s7.59,3.36,11.95,3.36c3.17,0,6.17-0.6,9.01-1.8s5.32-2.87,7.45-4.99
		c2.13-2.13,3.79-4.61,4.99-7.45s1.8-5.89,1.8-9.17c0-3.17-0.6-6.17-1.8-9.01S533.09,605.51,530.96,603.38z"/>
	<path style="fill:#D33C07;" d="M550.36,444.63c0.44-4.58,0.71-8.4,0.82-11.46c0.11-3.05,0.16-5.18,0.16-6.39
		c0-3.71-0.3-7.64-0.9-11.79c-0.6-4.15-1.99-8.38-4.18-12.69s-5.46-8.05-9.82-11.22c-4.37-3.17-10.07-5.7-17.11-7.61
		c-7.04-1.91-15.8-2.87-26.28-2.87h-36.02L445.9,501.12h36.35l7.53-84.82c6.98,0,12.25,0.88,15.8,2.62
		c3.55,1.75,5.98,3.93,7.29,6.55s1.96,5.46,1.96,8.51c0,0.22-0.03,1.23-0.08,3.03c-0.06,1.8-0.25,4.34-0.57,7.61l-5.24,58.29
		c-0.11,1.42-0.16,2.84-0.16,4.26c0,1.09,0.05,2.57,0.16,4.42c0.11,1.86,0.41,3.93,0.9,6.22s1.09,4.31,1.8,6.06s1.39,3.17,2.05,4.26
		h-84.16h-12.61h-14.57l8.51-89.08h-36.51l-10.97,89.08h-13.92h-8.19h-18.5l8.02-89.89H294.6l-8.35,89.89
		c-1.53,15.94-4.8,29.53-9.82,40.77c-5.02,11.25-11.3,20.63-18.83,28.16c-9.06,9.06-19.24,15.56-30.54,19.49s-23.06,5.89-35.29,5.89
		h-4.58c-10.59-0.44-20.2-2.29-28.82-5.57c-8.62-3.27-16.16-7.86-22.6-13.75c-6.55-6-11.6-13.16-15.15-21.45
		c-3.55-8.29-5.32-17.63-5.32-28v-3.44c0.54-11.9,3.19-22.7,7.94-32.42c4.75-9.71,11.16-18.07,19.24-25.05
		c8.19-7.21,17.63-12.74,28.33-16.62c10.7-3.87,22.16-5.81,34.39-5.81h59.6l2.95-32.09h-52.73c-19.43,0-37.55,2.57-54.36,7.7
		s-31.44,12.94-43.88,23.42c-11.03,9.28-19.84,20.71-26.44,34.3c-6.61,13.59-10.34,29.5-11.22,47.73c0,0.55-0.03,1.23-0.08,2.05
		c-0.06,0.82-0.08,1.83-0.08,3.03c0,12.99,2.13,25.25,6.39,36.76s10.53,21.7,18.83,30.54c8.51,8.95,19.02,16.15,31.52,21.61
		c12.5,5.46,27.04,8.57,43.64,9.33h7.04c19.65,0,37.5-2.65,53.54-7.94c16.05-5.3,30.02-13.51,41.92-24.64
		c8.19-7.64,15.2-16.54,21.04-26.69s10.5-21.88,14-35.2h21.29h8.35h67.63h12.44h121.17l2.95-32.26c-1.2-0.98-2.18-2.48-2.95-4.5
		c-0.76-2.02-1.37-4.31-1.8-6.88c-0.44-2.56-0.68-4.75-0.74-6.55s-0.08-3.14-0.08-4.01c0-1.75,0.05-3.44,0.16-5.08L550.36,444.63z"
		/>
</g>
<g>
	<defs>
		<path id="SVGID_1_" d="M1394.3,692.82c-1.38,0.78-3.46,0.4-5.24,0.4c-15.85,0.03-31.7,0.02-47.55,0.02v-0.3
			c-15.06,0-30.12,0.32-45.17-0.08c-17.67-0.48-31.66-8.93-41.35-23.13c-9.19-13.45-16.77-28.01-25-42.11
			c-8.04-13.78-15.99-27.62-23.98-41.43c-9.17-15.86-18.32-31.74-27.53-47.58c-7.82-13.47-15.79-26.86-23.53-40.37
			c-7.64-13.34-14.99-26.85-22.64-40.18c-7.64-13.32-15.58-26.46-23.22-39.79c-9.3-16.24-18.32-32.64-27.64-48.86
			c-5.78-10.07-12-19.89-17.85-29.92c-7.94-13.63-15.66-27.38-23.58-41.03c-5.94-10.23-12.13-20.32-18.05-30.54
			c-7.41-12.78-14.67-25.66-22-38.5c-5.76-10.09-11.48-20.2-17.29-30.26c-4.43-7.66-8.93-15.28-13.47-22.89
			c-3.95-6.61-7.86-6.53-11.67-0.02c-9.55,16.33-19.32,32.52-28.76,48.91c-12.68,22.04-25.03,44.26-37.7,66.3
			c-9.33,16.24-19.01,32.27-28.4,48.47c-7.41,12.78-14.56,25.73-21.94,38.54c-7.95,13.83-16.08,27.56-24.05,41.39
			c-7.86,13.64-15.56,27.38-23.44,41c-5.82,10.06-11.89,19.97-17.73,30.02c-3.07,5.28-6.01,10.65-8.79,16.09
			c-2.47,4.84-1.38,6.82,4.06,7.51c10.99,1.4,22.16,1.82,32.92,4.19c15.95,3.51,31.7,8.09,47.36,12.81
			c5.14,1.55,7.92,0.93,10.64-3.81c11.09-19.31,22.59-38.38,33.75-57.65c5.92-10.22,11.3-20.75,17.16-31.01
			c7.62-13.31,15.57-26.43,23.24-39.7c7.7-13.29,15.19-26.7,22.94-39.96c0.94-1.62,2.91-3.59,4.45-3.64
			c1.55-0.05,3.77,1.75,4.69,3.32c5.83,10.04,11.31,20.28,17.08,30.36c6.06,10.59,12.33,21.07,18.5,31.6
			c8.07,13.76,16.22,27.48,24.17,41.3c7.77,13.49,15.24,27.16,23.01,40.65c9.16,15.9,18.54,31.68,27.75,47.56
			c7.62,13.13,15.08,26.34,22.67,39.49c6.01,10.41,12.13,20.77,18.18,31.17c5.75,9.87,11.46,19.76,17.21,29.64
			c1.69,2.89,3.31,5.85,5.27,8.56c3.5,4.88,1.36,8.1-2.93,10.61c-3.23,1.88-6.57,3.64-10.04,5.06c-10.55,4.32-21.16,8.5-31.78,12.64
			c-18.62,7.27-38.19,10.43-57.94,11.57c-14.57,0.85-29.28-0.03-43.88-0.86c-25.91-1.47-50.58-9.07-74.85-17.42
			c-18.98-6.54-37.18-15.33-55.8-22.95c-14.77-6.05-29.47-12.35-44.52-17.62c-13.36-4.68-27.07-8.42-40.79-11.98
			c-16.36-4.24-32.09-1.29-47.37,5.35c-22.32,9.69-39.05,26.34-55.54,43.52c-9.3,9.68-21.08,15.5-34.81,15.61
			c-35.46,0.29-70.93,0.28-106.4,0.28c-1.61,0-3.21-1.01-4.82-1.54c0.65-1.69,1.09-3.49,1.98-5.03c5.69-9.9,11.53-19.72,17.23-29.62
			c7.67-13.31,15.24-26.66,22.87-39.98c7.73-13.52,15.46-27.03,23.26-40.5c7.7-13.31,15.52-26.54,23.22-39.85
			c7.69-13.32,15.25-26.71,22.91-40.04c7.36-12.81,14.76-25.6,22.17-38.38c7.42-12.79,14.89-25.57,22.33-38.34
			c9.74-16.7,19.57-33.35,29.22-50.1c9.55-16.58,18.85-33.29,28.4-49.87c7.77-13.48,15.81-26.8,23.59-40.28
			c9.44-16.36,18.67-32.84,28.08-49.2c9.04-15.72,18.25-31.33,27.3-47.04c7.98-13.82,15.75-27.75,23.78-41.54
			c9.31-16.01,18.88-31.86,28.18-47.88c8.81-15.15,17.7-30.28,25.97-45.73c3.44-6.43,8.3-9.32,15.05-9.52
			c8.71-0.25,17.43-0.15,26.15-0.15c21.21-0.01,42.41,0.37,63.6-0.1c11.31-0.26,17.98,4.29,23.27,14.31
			c10.68,20.19,22.68,39.69,34.08,59.51c11.2,19.47,22.24,39.03,33.52,58.47c11.17,19.24,22.65,38.29,33.79,57.54
			c7.68,13.28,14.94,26.8,22.53,40.13c7.3,12.83,14.82,25.54,22.23,38.29c7.73,13.29,15.46,26.59,23.17,39.88
			c9.49,16.37,19.02,32.72,28.44,49.14c7.76,13.5,15.31,27.11,23.09,40.59c5.81,10.07,11.89,19.98,17.74,30.03
			c5.74,9.87,11.35,19.83,17.02,29.74c5.97,10.43,11.93,20.86,17.93,31.27c6.19,10.74,12.41,21.46,18.64,32.18
			c5.93,10.21,11.92,20.4,17.81,30.64c7.85,13.65,15.57,27.38,23.46,41c7.7,13.31,15.52,26.54,23.33,39.78
			c3.5,5.92,7.25,11.69,10.52,17.74C1396.68,689.53,1395.43,692.17,1394.3,692.82z"/>
	</defs>
	<clipPath id="SVGID_2_">
		<use xlink:href="#SVGID_1_"  style="overflow:visible;"/>
	</clipPath>
	<g style="clip-path:url(#SVGID_2_);">
		<rect x="777.13" y="-20.35" style="fill:#D33C07;" width="126.07" height="54.39"/>
		<rect x="911.87" y="-20.35" style="fill:#D33C07;" width="126.07" height="54.39"/>
		<rect x="1046.61" y="-20.35" style="fill:#D33C07;" width="126.07" height="54.39"/>
		<rect x="838.01" y="40.53" style="fill:#D33C07;" width="126.07" height="54.39"/>
		<rect x="972.75" y="40.53" style="fill:#D33C07;" width="126.07" height="54.39"/>
		<rect x="777.13" y="101.4" style="fill:#D33C07;" width="126.07" height="54.39"/>
		<rect x="911.87" y="101.4" style="fill:#D33C07;" width="126.07" height="54.39"/>
		<rect x="1046.61" y="101.4" style="fill:#D33C07;" width="126.07" height="54.39"/>
		<rect x="703.27" y="162.28" style="fill:#D33C07;" width="126.07" height="54.39"/>
		<rect x="838.01" y="162.28" style="fill:#D33C07;" width="126.07" height="54.39"/>
		<rect x="972.75" y="162.28" style="fill:#D33C07;" width="126.07" height="54.39"/>
		<rect x="1107.49" y="162.28" style="fill:#D33C07;" width="126.07" height="54.39"/>
		<rect x="642.39" y="223.16" style="fill:#D33C07;" width="126.07" height="54.39"/>
		<rect x="777.13" y="223.16" style="fill:#D33C07;" width="126.07" height="54.39"/>
		<rect x="911.87" y="223.16" style="fill:#D33C07;" width="126.07" height="54.39"/>
		<rect x="1046.61" y="223.16" style="fill:#D33C07;" width="126.07" height="54.39"/>
		<rect x="1181.35" y="223.16" style="fill:#D33C07;" width="126.07" height="54.39"/>
		<rect x="703.27" y="284.04" style="fill:#D33C07;" width="126.07" height="54.39"/>
		<rect x="838.01" y="284.04" style="fill:#D33C07;" width="126.07" height="54.39"/>
		<rect x="972.75" y="284.04" style="fill:#D33C07;" width="126.07" height="54.39"/>
		<rect x="1107.49" y="284.04" style="fill:#D33C07;" width="126.07" height="54.39"/>
		<rect x="642.39" y="344.92" style="fill:#D33C07;" width="126.07" height="54.39"/>
		<rect x="777.13" y="344.92" style="fill:#D33C07;" width="126.07" height="54.39"/>
		<rect x="911.87" y="344.92" style="fill:#D33C07;" width="126.07" height="54.39"/>
		<rect x="1046.61" y="344.92" style="fill:#D33C07;" width="126.07" height="54.39"/>
		<rect x="1181.35" y="344.92" style="fill:#D33C07;" width="126.07" height="54.39"/>
		<rect x="568.53" y="405.79" style="fill:#D33C07;" width="126.07" height="54.39"/>
		<rect x="703.27" y="405.79" style="fill:#D33C07;" width="126.07" height="54.39"/>
		<rect x="838.01" y="405.79" style="fill:#D33C07;" width="126.07" height="54.39"/>
		<rect x="972.75" y="405.79" style="fill:#D33C07;" width="126.07" height="54.39"/>
		<rect x="1107.49" y="405.79" style="fill:#D33C07;" width="126.07" height="54.39"/>
		<rect x="1242.23" y="405.79" style="fill:#D33C07;" width="126.07" height="54.39"/>
		<rect x="507.65" y="466.67" style="fill:#D33C07;" width="126.07" height="54.39"/>
		<rect x="642.39" y="466.67" style="fill:#D33C07;" width="126.07" height="54.39"/>
		<rect x="777.13" y="466.67" style="fill:#D33C07;" width="126.07" height="54.39"/>
		<rect x="911.87" y="466.67" style="fill:#D33C07;" width="126.07" height="54.39"/>
		<rect x="1046.61" y="466.67" style="fill:#D33C07;" width="126.07" height="54.39"/>
		<rect x="1181.35" y="466.67" style="fill:#D33C07;" width="126.07" height="54.39"/>
		<rect x="1316.09" y="466.67" style="fill:#D33C07;" width="126.07" height="54.39"/>
		<rect x="433.78" y="527.55" style="fill:#D33C07;" width="126.07" height="54.39"/>
		<rect x="568.53" y="527.55" style="fill:#D33C07;" width="126.07" height="54.39"/>
		<rect x="703.27" y="527.55" style="fill:#D33C07;" width="126.07" height="54.39"/>
		<rect x="838.01" y="527.55" style="fill:#D33C07;" width="126.07" height="54.39"/>
		<rect x="972.75" y="527.55" style="fill:#D33C07;" width="126.07" height="54.39"/>
		<rect x="1107.49" y="527.55" style="fill:#D33C07;" width="126.07" height="54.39"/>
		<rect x="1242.23" y="527.55" style="fill:#D33C07;" width="126.07" height="54.39"/>
		<rect x="507.65" y="588.43" style="fill:#D33C07;" width="126.07" height="54.39"/>
		<rect x="642.39" y="588.43" style="fill:#D33C07;" width="126.07" height="54.39"/>
		<rect x="777.13" y="588.43" style="fill:#D33C07;" width="126.07" height="54.39"/>
		<rect x="911.87" y="588.43" style="fill:#D33C07;" width="126.07" height="54.39"/>
		<rect x="1046.61" y="588.43" style="fill:#D33C07;" width="126.07" height="54.39"/>
		<rect x="1181.35" y="588.43" style="fill:#D33C07;" width="126.07" height="54.39"/>
		<rect x="1316.09" y="588.43" style="fill:#D33C07;" width="126.07" height="54.39"/>
		<rect x="433.78" y="649.3" style="fill:#D33C07;" width="126.07" height="54.39"/>
		<rect x="568.53" y="649.3" style="fill:#D33C07;" width="126.07" height="54.39"/>
		<rect x="703.27" y="649.3" style="fill:#D33C07;" width="126.07" height="54.39"/>
		<rect x="838.01" y="649.3" style="fill:#D33C07;" width="126.07" height="54.39"/>
		<rect x="972.75" y="649.3" style="fill:#D33C07;" width="126.07" height="54.39"/>
		<rect x="1107.49" y="649.3" style="fill:#D33C07;" width="126.07" height="54.39"/>
		<rect x="1242.23" y="649.3" style="fill:#D33C07;" width="126.07" height="54.39"/>
		<rect x="1376.97" y="649.3" style="fill:#D33C07;" width="126.07" height="54.39"/>
	</g>
</g>
<g>
	<rect x="911.51" y="502.26" style="fill:#D33C07;" width="126.43" height="124.58"/>
	<g>
		<rect x="911.51" y="502.26" style="fill:#FFFFFF;" width="55.73" height="54.79"/>
		<rect x="980.72" y="502.26" style="fill:#FFFFFF;" width="57.23" height="54.79"/>
		<rect x="980.72" y="569.08" style="fill:#FFFFFF;" width="57.23" height="57.77"/>
		<rect x="911.51" y="569.08" style="fill:#FFFFFF;" width="55.73" height="57.77"/>
	</g>
</g>
</svg>
