<?xml version="1.0" encoding="utf-8"?>
<!-- Generator: Adobe Illustrator 23.1.0, SVG Export Plug-In . SVG Version: 6.00 Build 0)  -->
<svg version="1.1" id="Layer_1" xmlns="http://www.w3.org/2000/svg" xmlns:xlink="http://www.w3.org/1999/xlink" x="0px" y="0px"
	 viewBox="0 0 1417.3 761.5" style="enable-background:new 0 0 1417.3 761.5;" xml:space="preserve">
<style type="text/css">
	.st0{fill:url(#SVGID_1_);}
	.st1{fill:url(#SVGID_2_);}
	.st2{fill:url(#SVGID_3_);}
	.st3{fill:url(#SVGID_4_);}
	.st4{fill:url(#SVGID_5_);}
	.st5{fill:url(#SVGID_6_);}
	.st6{fill:url(#SVGID_7_);}
	.st7{fill:url(#SVGID_8_);}
	.st8{fill:url(#SVGID_9_);}
	.st9{fill:#FFFFFF;}
	.st10{fill:url(#SVGID_10_);}
	.st11{fill:url(#SVGID_11_);}
	.st12{fill:url(#SVGID_12_);}
	.st13{fill:url(#SVGID_13_);}
	.st14{fill:url(#SVGID_14_);}
	.st15{fill:url(#SVGID_15_);}
	.st16{fill:url(#SVGID_16_);}
	.st17{fill:url(#SVGID_17_);}
	.st18{fill:url(#SVGID_18_);}
	.st19{fill:url(#SVGID_19_);}
	.st20{fill:url(#SVGID_20_);}
	.st21{fill:url(#SVGID_21_);}
	.st22{fill:url(#SVGID_22_);}
	.st23{fill:url(#SVGID_23_);}
	.st24{fill:url(#SVGID_24_);}
	.st25{fill:url(#SVGID_25_);}
	.st26{fill:url(#SVGID_26_);}
	.st27{fill:url(#SVGID_27_);}
	.st28{fill:url(#SVGID_28_);}
	.st29{fill:url(#SVGID_29_);}
	.st30{fill:url(#SVGID_30_);}
	.st31{fill:url(#SVGID_31_);}
	.st32{fill:url(#SVGID_32_);}
	.st33{fill:url(#SVGID_33_);}
	.st34{fill:url(#SVGID_34_);}
	.st35{fill:url(#SVGID_35_);}
	.st36{fill:url(#SVGID_36_);}
	.st37{fill:url(#SVGID_37_);}
	.st38{fill:url(#SVGID_38_);}
	.st39{fill:url(#SVGID_39_);}
	.st40{fill:url(#SVGID_40_);}
	.st41{fill:url(#SVGID_41_);}
	.st42{fill:url(#SVGID_42_);}
	.st43{fill:url(#SVGID_43_);}
	.st44{fill:url(#SVGID_44_);}
	.st45{fill:url(#SVGID_45_);}
	.st46{fill:url(#SVGID_46_);}
	.st47{fill:url(#SVGID_47_);}
	.st48{fill:url(#SVGID_48_);}
	.st49{fill:url(#SVGID_49_);}
	.st50{fill:url(#SVGID_50_);}
	.st51{fill:url(#SVGID_51_);}
	.st52{fill:url(#SVGID_52_);}
	.st53{fill:url(#SVGID_53_);}
	.st54{fill:url(#SVGID_54_);}
	.st55{fill:url(#SVGID_55_);}
	.st56{fill:url(#SVGID_56_);}
	.st57{fill:url(#SVGID_57_);}
	.st58{fill:url(#SVGID_58_);}
	.st59{fill:url(#SVGID_59_);}
	.st60{fill:url(#SVGID_60_);}
	.st61{fill:url(#SVGID_61_);}
	.st62{fill:url(#SVGID_62_);}
	.st63{fill:url(#SVGID_63_);}
	.st64{fill:url(#SVGID_64_);}
	.st65{fill:url(#SVGID_65_);}
	.st66{fill:url(#SVGID_66_);}
	.st67{fill:url(#SVGID_67_);}
</style>
<g>
	<linearGradient id="SVGID_1_" gradientUnits="userSpaceOnUse" x1="458.6707" y1="34.0208" x2="658.395" y2="478.3056">
		<stop  offset="0" style="stop-color:#AE8626"/>
		<stop  offset="0.2388" style="stop-color:#F7EF8A"/>
		<stop  offset="0.649" style="stop-color:#D2AC47"/>
		<stop  offset="1" style="stop-color:#EDC967"/>
	</linearGradient>
	<path class="st0" d="M624.5,347.5c-2.2-2.2-4.8-3.9-7.8-5.2s-6.1-1.9-9.5-1.9c-3.4,0-6.5,0.6-9.5,1.9s-5.5,3-7.7,5.2
		c-2.2,2.2-3.9,4.8-5.2,7.7c-1.3,3-1.9,6.1-1.9,9.5c0,3.4,0.6,6.5,1.9,9.5s3,5.5,5.2,7.8c2.2,2.2,4.8,4,7.7,5.2
		c3,1.2,6.1,1.9,9.5,1.9c3.4,0,6.5-0.6,9.5-1.9c3-1.3,5.5-3,7.8-5.2c2.2-2.2,4-4.8,5.2-7.8c1.2-3,1.9-6.1,1.9-9.5
		c0-3.4-0.6-6.5-1.9-9.5C628.5,352.3,626.8,349.7,624.5,347.5z"/>
	<linearGradient id="SVGID_2_" gradientUnits="userSpaceOnUse" x1="473.2013" y1="27.4887" x2="672.9257" y2="471.7735">
		<stop  offset="0" style="stop-color:#AE8626"/>
		<stop  offset="0.2388" style="stop-color:#F7EF8A"/>
		<stop  offset="0.649" style="stop-color:#D2AC47"/>
		<stop  offset="1" style="stop-color:#EDC967"/>
	</linearGradient>
	<path class="st1" d="M664.7,145.7c-2.2-4.3-5.5-8.1-9.8-11.2c-4.4-3.2-10.1-5.7-17.1-7.6c-7-1.9-15.8-2.9-26.3-2.9h-36l-11.1,120.5
		h36.3l7.5-84.8c7,0,12.2,0.9,15.8,2.6c3.5,1.8,6,3.9,7.3,6.6c1.3,2.6,2,5.5,2,8.5c0,0.2,0,1.2-0.1,3c-0.1,1.8-0.2,4.3-0.6,7.6
		l-5.2,58.3c-0.1,1.4-0.2,2.8-0.2,4.3c0,1.1,0,2.6,0.2,4.4c0.1,1.9,0.4,3.9,0.9,6.2s1.1,4.3,1.8,6.1c0.7,1.8,1.4,3.2,2,4.3H549
		h-13.6H522l7.9-90.1h-36.2l-13.4,149c-0.2,1.8-0.7,3.4-1.4,4.8c-0.7,1.5-1.8,3.2-3.4,5.2H512c1.3-1.2,2.4-2.5,3.2-3.9
		s1.3-3.4,1.6-6.1l2.5-26.9h13.4h13.1h120.5l3-32.3c-1.2-1-2.2-2.5-3-4.5c-0.8-2-1.4-4.3-1.8-6.9c-0.4-2.6-0.7-4.8-0.7-6.6
		s-0.1-3.1-0.1-4c0-1.7,0-3.4,0.2-5.1l5.1-56.3c0.4-4.6,0.7-8.4,0.8-11.5c0.1-3.1,0.2-5.2,0.2-6.4c0-3.7-0.3-7.6-0.9-11.8
		C668.3,154.2,666.9,150,664.7,145.7z"/>
	<linearGradient id="SVGID_3_" gradientUnits="userSpaceOnUse" x1="688.1542" y1="-69.1415" x2="887.8786" y2="375.1433">
		<stop  offset="0" style="stop-color:#AE8626"/>
		<stop  offset="0.2388" style="stop-color:#F7EF8A"/>
		<stop  offset="0.649" style="stop-color:#D2AC47"/>
		<stop  offset="1" style="stop-color:#EDC967"/>
	</linearGradient>
	<path class="st2" d="M814.4,52.1c-2,2.2-4.4,4.1-7.2,5.7s-6,3-9.4,4.1s-7.1,1.9-11,2.4c-3.9,0.5-7.8,0.7-11.9,0.7h-94.3l-3,32.3
		h87.4c10.9,0,20.1-0.2,27.4-0.7s13.7-1.5,19.1-2.9c5.3-1.5,10.1-3.6,14.3-6.2c4.2-2.7,8.6-6.2,13.2-10.6L814.4,52.1z"/>
	<linearGradient id="SVGID_4_" gradientUnits="userSpaceOnUse" x1="602.0862" y1="-30.4504" x2="801.8105" y2="413.8344">
		<stop  offset="0" style="stop-color:#AE8626"/>
		<stop  offset="0.2388" style="stop-color:#F7EF8A"/>
		<stop  offset="0.649" style="stop-color:#D2AC47"/>
		<stop  offset="1" style="stop-color:#EDC967"/>
	</linearGradient>
	<polygon class="st3" points="685.7,303.8 722.2,303.8 738.2,124.2 702.1,124.2 	"/>
</g>
<g>
	<linearGradient id="SVGID_5_" gradientUnits="userSpaceOnUse" x1="57.6519" y1="214.2953" x2="257.3762" y2="658.5801">
		<stop  offset="0" style="stop-color:#AE8626"/>
		<stop  offset="0.2388" style="stop-color:#F7EF8A"/>
		<stop  offset="0.649" style="stop-color:#D2AC47"/>
		<stop  offset="1" style="stop-color:#EDC967"/>
	</linearGradient>
	<path class="st4" d="M213.9,518.3c-2.9-1.3-6.1-2-9.5-2c-3.4,0-6.6,0.7-9.5,2s-5.5,3.1-7.7,5.2s-3.9,4.8-5.2,7.7
		c-1.3,3-1.9,6.1-1.9,9.5c0,3.4,0.6,6.5,1.9,9.5s3,5.5,5.2,7.8c2.2,2.2,4.8,4,7.7,5.2c2.9,1.3,6.1,1.9,9.5,1.9
		c3.4,0,6.6-0.6,9.5-1.9s5.5-3,7.7-5.2c2.2-2.2,3.9-4.8,5.2-7.8c1.3-3,2-6.1,2-9.5c0-3.4-0.7-6.5-2-9.5c-1.3-3-3.1-5.5-5.2-7.7
		C219.4,521.4,216.8,519.6,213.9,518.3z"/>
	<linearGradient id="SVGID_6_" gradientUnits="userSpaceOnUse" x1="157.2665" y1="169.5145" x2="356.9908" y2="613.7993">
		<stop  offset="0" style="stop-color:#AE8626"/>
		<stop  offset="0.2388" style="stop-color:#F7EF8A"/>
		<stop  offset="0.649" style="stop-color:#D2AC47"/>
		<stop  offset="1" style="stop-color:#EDC967"/>
	</linearGradient>
	<path class="st5" d="M390.6,605.9c-2-2.4-4.5-4.4-7.3-5.9c-2.8-1.5-6-2.5-9.3-2.8c-0.8-0.1-1.6-0.2-2.5-0.2c-2.4,0-4.9,0.4-7.6,1.3
		c-2.7,0.9-5.2,2.3-7.6,4.3c-2.4,2-4.4,4.4-5.9,7.2s-2.5,6-2.8,9.3c-0.1,0.8-0.2,1.6-0.2,2.5c0,3.6,0.9,7.2,2.8,10.8s4.5,6.7,8,9.2
		c-3.9,1.8-7.2,4.4-9.8,7.9c-2.6,3.5-4.2,7.5-4.8,12.1c-0.1,0.8-0.2,1.6-0.2,2.5c0,2.5,0.5,5.1,1.4,7.8c0.9,2.7,2.4,5.2,4.4,7.5
		c2,2.3,4.5,4.3,7.3,5.8c2.8,1.5,5.9,2.5,9.2,2.8c0.9,0.1,1.7,0.2,2.5,0.2c2.5,0,5.1-0.4,7.8-1.3c2.7-0.9,5.2-2.3,7.6-4.3
		s4.4-4.5,5.9-7.3c1.5-2.8,2.5-5.9,2.8-9.2c0.1-0.8,0.2-1.6,0.2-2.5c0-3.6-0.9-7.2-2.8-10.8c-1.9-3.6-4.5-6.6-8-9
		c3.9-1.9,7.2-4.5,9.8-8c2.6-3.5,4.1-7.5,4.6-12.1c0.1-0.9,0.2-1.7,0.2-2.5c0-2.4-0.4-4.9-1.3-7.6
		C394.1,610.8,392.6,608.3,390.6,605.9z"/>
	<linearGradient id="SVGID_7_" gradientUnits="userSpaceOnUse" x1="249.3938" y1="128.0994" x2="449.1181" y2="572.3842">
		<stop  offset="0" style="stop-color:#AE8626"/>
		<stop  offset="0.2388" style="stop-color:#F7EF8A"/>
		<stop  offset="0.649" style="stop-color:#D2AC47"/>
		<stop  offset="1" style="stop-color:#EDC967"/>
	</linearGradient>
	<path class="st6" d="M506.9,647.9c-2.1-2.1-4.6-3.8-7.5-5c-2.8-1.2-5.8-1.8-9-1.8s-6.2,0.6-9,1.8s-5.3,2.9-7.4,5
		c-2.1,2.1-3.7,4.6-4.9,7.5s-1.8,5.9-1.8,9.2c0,3.2,0.6,6.2,1.8,9c1.2,2.8,2.8,5.3,4.9,7.4c2.1,2.1,4.5,3.7,7.4,4.9
		c2.8,1.2,5.8,1.8,9,1.8s6.2-0.6,9-1.8s5.3-2.8,7.5-4.9c2.1-2.1,3.8-4.5,5-7.4c1.2-2.8,1.8-5.8,1.8-9c0-3.3-0.6-6.3-1.8-9.2
		S509,650,506.9,647.9z"/>
	<linearGradient id="SVGID_8_" gradientUnits="userSpaceOnUse" x1="269.12" y1="119.2317" x2="468.8443" y2="563.5165">
		<stop  offset="0" style="stop-color:#AE8626"/>
		<stop  offset="0.2388" style="stop-color:#F7EF8A"/>
		<stop  offset="0.649" style="stop-color:#D2AC47"/>
		<stop  offset="1" style="stop-color:#EDC967"/>
	</linearGradient>
	<path class="st7" d="M531,603.4c-2.1-2.1-4.6-3.8-7.5-5s-5.8-1.8-9-1.8c-4.4,0-8.4,1.1-12,3.4s-6.4,5.2-8.4,8.8
		c-2-3.6-4.8-6.5-8.4-8.8s-7.6-3.4-12-3.4c-3.3,0-6.3,0.6-9.1,1.8c-2.8,1.2-5.2,2.9-7.4,5c-2.1,2.1-3.8,4.6-5,7.5
		c-1.2,2.8-1.8,5.8-1.8,9c0,3.3,0.6,6.3,1.8,9.2c1.2,2.8,2.9,5.3,5,7.5c2.1,2.1,4.6,3.8,7.4,5c2.8,1.2,5.8,1.8,9.1,1.8
		c4.4,0,8.4-1.1,12-3.4s6.4-5.1,8.4-8.6c2,3.5,4.8,6.4,8.4,8.6s7.6,3.4,12,3.4c3.2,0,6.2-0.6,9-1.8s5.3-2.9,7.5-5
		c2.1-2.1,3.8-4.6,5-7.5s1.8-5.9,1.8-9.2c0-3.2-0.6-6.2-1.8-9S533.1,605.5,531,603.4z"/>
	<linearGradient id="SVGID_9_" gradientUnits="userSpaceOnUse" x1="166.3235" y1="165.4429" x2="366.0479" y2="609.7277">
		<stop  offset="0" style="stop-color:#AE8626"/>
		<stop  offset="0.2388" style="stop-color:#F7EF8A"/>
		<stop  offset="0.649" style="stop-color:#D2AC47"/>
		<stop  offset="1" style="stop-color:#EDC967"/>
	</linearGradient>
	<path class="st8" d="M550.4,444.6c0.4-4.6,0.7-8.4,0.8-11.5c0.1-3,0.2-5.2,0.2-6.4c0-3.7-0.3-7.6-0.9-11.8c-0.6-4.1-2-8.4-4.2-12.7
		s-5.5-8-9.8-11.2c-4.4-3.2-10.1-5.7-17.1-7.6c-7-1.9-15.8-2.9-26.3-2.9h-36l-11.1,120.5h36.4l7.5-84.8c7,0,12.2,0.9,15.8,2.6
		c3.5,1.8,6,3.9,7.3,6.5s2,5.5,2,8.5c0,0.2,0,1.2-0.1,3c-0.1,1.8-0.2,4.3-0.6,7.6l-5.2,58.3c-0.1,1.4-0.2,2.8-0.2,4.3
		c0,1.1,0,2.6,0.2,4.4c0.1,1.9,0.4,3.9,0.9,6.2s1.1,4.3,1.8,6.1s1.4,3.2,2.1,4.3h-84.2h-12.6h-14.6l8.5-89.1h-36.5l-11,89.1h-13.9
		h-8.2h-18.5l8-89.9h-36.2l-8.4,89.9c-1.5,15.9-4.8,29.5-9.8,40.8c-5,11.2-11.3,20.6-18.8,28.2c-9.1,9.1-19.2,15.6-30.5,19.5
		s-23.1,5.9-35.3,5.9h-4.6c-10.6-0.4-20.2-2.3-28.8-5.6c-8.6-3.3-16.2-7.9-22.6-13.8c-6.6-6-11.6-13.2-15.2-21.5
		c-3.6-8.3-5.3-17.6-5.3-28v-3.4c0.5-11.9,3.2-22.7,7.9-32.4c4.8-9.7,11.2-18.1,19.2-25c8.2-7.2,17.6-12.7,28.3-16.6
		c10.7-3.9,22.2-5.8,34.4-5.8h59.6l3-32.1H215c-19.4,0-37.6,2.6-54.4,7.7s-31.4,12.9-43.9,23.4c-11,9.3-19.8,20.7-26.4,34.3
		c-6.6,13.6-10.3,29.5-11.2,47.7c0,0.5,0,1.2-0.1,2c-0.1,0.8-0.1,1.8-0.1,3c0,13,2.1,25.2,6.4,36.8s10.5,21.7,18.8,30.5
		c8.5,9,19,16.2,31.5,21.6c12.5,5.5,27,8.6,43.6,9.3h7c19.6,0,37.5-2.7,53.5-7.9c16.1-5.3,30-13.5,41.9-24.6
		c8.2-7.6,15.2-16.5,21-26.7s10.5-21.9,14-35.2h21.3h8.4h67.6h12.4h121.2l3-32.3c-1.2-1-2.2-2.5-3-4.5c-0.8-2-1.4-4.3-1.8-6.9
		c-0.4-2.6-0.7-4.7-0.7-6.5s-0.1-3.1-0.1-4c0-1.8,0-3.4,0.2-5.1L550.4,444.6z"/>
</g>
<g>
	<path class="st9" d="M1394.3,692.8c-1.4,0.8-3.5,0.4-5.2,0.4c-4,0-8.1,0-12.1,0c-2.9,0-5.8,0-8.7,0c-8.9,0-17.9,0-26.8,0v-0.3
		c-15.1,0-30.1,0.3-45.2-0.1c-17.7-0.5-31.7-8.9-41.4-23.1c-4.5-6.6-8.6-13.5-12.6-20.4c-1.2-2.2-2.5-4.3-3.7-6.5
		c-2.9-5.1-5.7-10.2-8.7-15.2c-7.6-13-15.1-26.1-22.7-39.2c-0.4-0.8-0.9-1.5-1.3-2.2c-0.8-1.4-1.6-2.8-2.4-4.2
		c-8.4-14.4-16.7-28.9-25.1-43.3c-2.1-3.7-4.3-7.4-6.5-11.1c-1.3-2.2-2.5-4.3-3.8-6.5c-4.4-7.6-8.9-15.2-13.3-22.8
		c-6-10.5-11.8-21.1-17.8-31.6c-1.2-2.2-2.4-4.3-3.7-6.5c-0.4-0.7-0.8-1.4-1.2-2.1c-7.6-13.3-15.6-26.5-23.2-39.8
		c-0.5-0.9-1.1-1.9-1.6-2.8c-3.1-5.4-6.1-10.8-9.1-16.2c-5.6-10-11.2-20-16.9-29.9c-4.7-8.2-9.8-16.3-14.6-24.5
		c-1.1-1.8-2.2-3.6-3.2-5.4c-0.2-0.4-0.4-0.7-0.6-1.1c-7.7-13.3-15.2-26.7-23-40c-2.8-4.8-5.7-9.6-8.5-14.4
		c-1.3-2.2-2.6-4.3-3.9-6.5c-1.9-3.2-3.8-6.4-5.7-9.6c-7.4-12.8-14.7-25.7-22-38.5c-1.2-2.1-2.4-4.2-3.6-6.3
		c-1.2-2.2-2.5-4.3-3.7-6.5c-3.3-5.9-6.7-11.7-10-17.5c-3.3-5.7-6.6-11.3-9.9-16.9c-1.2-2-2.4-4-3.5-6c-1.7-2.9-3.4-4.5-5.1-4.8
		c-2.2-0.5-4.4,1.2-6.5,4.8c-7.9,13.5-15.9,26.9-23.8,40.4c-1.3,2.2-2.5,4.3-3.8,6.5c-0.4,0.7-0.8,1.3-1.2,2
		c-5.7,9.9-11.3,19.8-16.9,29.7c-2.9,5.1-5.8,10.2-8.7,15.3c-1.4,2.5-2.8,4.9-4.2,7.4c-1.2,2.2-2.5,4.3-3.7,6.5
		c-1.4,2.5-2.8,5-4.2,7.4c-9,15.7-18.4,31.3-27.5,47c-0.3,0.5-0.6,1-0.9,1.5c-1,1.7-1.9,3.3-2.9,5c-6.4,11.1-12.6,22.4-19.1,33.5
		c-4,7-8,13.9-12.1,20.8c-1.3,2.2-2.5,4.3-3.8,6.5c-2.7,4.7-5.4,9.4-8.2,14.1c-7.7,13.4-15.3,26.9-23,40.3c-0.1,0.2-0.3,0.4-0.4,0.7
		c-1.1,1.9-2.3,3.9-3.4,5.8c-4.2,7.2-8.5,14.3-12.7,21.5c-0.5,0.9-1.1,1.8-1.6,2.8c-2.4,4.2-4.8,8.5-7.1,12.8
		c-0.6,1.1-1.2,2.2-1.7,3.3c-2.1,4-1.6,6.1,1.7,7.1c0.7,0.2,1.4,0.3,2.3,0.5c2.1,0.3,4.2,0.5,6.3,0.7c8.9,0.9,17.9,1.6,26.6,3.5
		c3.4,0.8,6.8,1.5,10.2,2.4c8.1,2,16.1,4.2,24.1,6.6c4.4,1.3,8.7,2.6,13.1,3.9c5.1,1.5,7.9,0.9,10.6-3.8c0,0,0-0.1,0.1-0.1
		c1.2-2.2,2.5-4.3,3.8-6.5c9.9-17.1,20-34,29.9-51c0.6-1.1,1.3-2.2,1.9-3.3c1.2-2.2,2.4-4.3,3.6-6.5c3.9-7.1,7.7-14.2,11.6-21.2
		c6.4-11.1,13-22.1,19.5-33.2c1.3-2.2,2.5-4.3,3.8-6.5c7.7-13.3,15.2-26.7,22.9-40c0.9-1.6,2.9-3.6,4.5-3.6c1.5,0,3.8,1.8,4.7,3.3
		c5.8,10,11.3,20.3,17.1,30.4c1.9,3.3,3.8,6.6,5.8,9.9c1.3,2.2,2.5,4.3,3.8,6.5c3,5.1,6,10.1,9,15.2c7.7,13.1,15.4,26.1,22.9,39.2
		c0.4,0.7,0.8,1.4,1.2,2.1c0.8,1.5,1.7,2.9,2.5,4.4c2.6,4.5,5.2,9.1,7.7,13.7c2.9,5.1,5.8,10.3,8.7,15.4c1.3,2.4,2.7,4.8,4.1,7.2
		c3.5,6.1,7,12.1,10.5,18.1c1.3,2.2,2.5,4.3,3.8,6.5c4.5,7.6,9,15.3,13.4,22.9c6.1,10.5,12,21,18.1,31.4c1.2,2.2,2.5,4.3,3.7,6.5
		c0.3,0.5,0.6,1,0.9,1.6c6,10.4,12.1,20.8,18.2,31.2c4.2,7.2,8.4,14.4,12.6,21.7c1.3,2.2,2.5,4.3,3.8,6.5c0.3,0.5,0.6,1,0.9,1.5
		c1.7,2.9,3.3,5.8,5.3,8.6c3.5,4.9,1.4,8.1-2.9,10.6c-3.2,1.9-6.6,3.6-10,5.1c-7.1,2.9-14.2,5.7-21.3,8.5c-2.9,1.1-5.8,2.3-8.7,3.4
		c-0.6,0.2-1.2,0.5-1.8,0.7c-18.6,7.3-38.2,10.4-57.9,11.6c-14.6,0.8-29.3,0-43.9-0.9c-7.6-0.4-15.1-1.4-22.5-2.7
		c-2.9-0.5-5.8-1.1-8.7-1.8c-14.8-3.3-29.4-8-43.7-12.9c-19-6.5-37.2-15.3-55.8-23c-7.1-2.9-14.1-5.8-21.2-8.7
		c-5.5-2.2-11-4.4-16.6-6.5c-2.2-0.8-4.5-1.6-6.7-2.4c-13.4-4.7-27.1-8.4-40.8-12c-0.7-0.2-1.4-0.4-2.1-0.5
		c-2.9-0.7-5.8-1.1-8.7-1.3c-12.5-1-24.7,2-36.6,7.1c-5.9,2.6-11.5,5.6-16.7,9.1c-7.4,4.8-14.1,10.4-20.6,16.3
		c-6.3,5.8-12.3,11.9-18.3,18.2c-9.3,9.7-21.1,15.5-34.8,15.6c-24.3,0.2-48.7,0.3-73,0.3c-2.9,0-5.8,0-8.7,0c-8.2,0-16.5,0-24.7,0
		c-1.6,0-3.2-1-4.8-1.5c0.7-1.7,1.1-3.5,2-5c5.7-9.9,11.5-19.7,17.2-29.6c1.5-2.6,2.9-5.1,4.4-7.7c1.2-2.2,2.5-4.3,3.7-6.5
		c4.9-8.6,9.8-17.2,14.8-25.8c5.5-9.5,10.9-19.1,16.4-28.6c1.2-2.2,2.5-4.3,3.8-6.5c1-1.8,2.1-3.6,3.1-5.4
		c7.7-13.3,15.5-26.5,23.2-39.8c1.8-3,3.5-6.1,5.2-9.1c1.2-2.2,2.5-4.3,3.7-6.5c2-3.4,3.9-6.9,5.9-10.4c2.7-4.7,5.4-9.4,8.1-14.1
		c0.2-0.4,0.4-0.7,0.6-1.1c5.5-9.6,11.1-19.3,16.7-28.9c1.2-2.2,2.5-4.3,3.8-6.5c0.4-0.7,0.8-1.3,1.1-2
		c7.4-12.8,14.9-25.6,22.3-38.3c2.7-4.7,5.5-9.4,8.2-14.1c1.3-2.2,2.5-4.3,3.8-6.5c5.8-9.8,11.5-19.7,17.2-29.5
		c4.8-8.3,9.5-16.6,14.2-24.9c1.2-2.2,2.4-4.3,3.7-6.5c3.5-6.2,7-12.4,10.6-18.5c6.9-12,14.1-23.9,21-35.9c0.8-1.5,1.7-2.9,2.5-4.4
		c3.2-5.6,6.4-11.2,9.6-16.8c6.1-10.8,12.2-21.6,18.4-32.4c1.4-2.4,2.8-4.9,4.2-7.3c1.2-2.2,2.5-4.3,3.8-6.5
		c6.5-11.1,12.9-22.2,19.3-33.3c2.2-3.8,4.3-7.5,6.5-11.3c3.1-5.4,6.2-10.9,9.3-16.3c2.7-4.7,5.3-9.3,8-13.9
		c7.9-13.5,15.9-27,23.8-40.5c1.3-2.2,2.5-4.3,3.8-6.5c0.2-0.3,0.4-0.6,0.5-0.9c8.8-15.2,17.7-30.3,26-45.7c2-3.7,4.4-6.2,7.4-7.7
		c2.2-1.1,4.8-1.7,7.6-1.8c8.7-0.2,17.4-0.2,26.2-0.2c21.2,0,42.4,0.4,63.6-0.1c4.5-0.1,8.3,0.6,11.6,2c4.9,2.2,8.5,6.2,11.7,12.3
		c7.5,14.3,15.8,28.2,24,42.1c1.3,2.2,2.5,4.3,3.8,6.5c2.1,3.6,4.2,7.3,6.3,10.9c8.3,14.5,16.6,29,24.9,43.5
		c1.2,2.2,2.5,4.3,3.7,6.5c1.6,2.8,3.3,5.7,4.9,8.5c0.8,1.3,1.6,2.7,2.4,4c2.9,4.9,5.8,9.8,8.7,14.8c5.3,9,10.7,18.1,16,27.1
		c1.3,2.2,2.5,4.3,3.8,6.5c1,1.7,2,3.4,3,5.1c7.7,13.3,14.9,26.8,22.5,40.1c1.7,3,3.5,6.1,5.2,9.1c1.2,2.2,2.5,4.3,3.8,6.5
		c4.4,7.6,8.8,15.1,13.2,22.7c6.1,10.6,12.3,21.1,18.4,31.7c1.3,2.2,2.5,4.3,3.8,6.5c0.3,0.6,0.7,1.1,1,1.7
		c9.5,16.4,19,32.7,28.4,49.1c0.7,1.2,1.4,2.4,2,3.6c1.2,2.2,2.5,4.3,3.7,6.5c0.4,0.7,0.8,1.4,1.2,2.1c2.9,5.1,5.8,10.2,8.7,15.3
		c2.5,4.4,5,8.8,7.5,13.1c4.6,8,9.4,15.9,14.1,23.8c1.2,2.1,2.4,4.1,3.6,6.2c0.1,0.1,0.1,0.2,0.2,0.3c5.7,9.8,11.2,19.6,16.8,29.4
		c4.8,8.3,9.5,16.6,14.3,24.9c1.2,2.1,2.4,4.2,3.6,6.3c0,0.1,0.1,0.1,0.1,0.2c6.2,10.7,12.3,21.3,18.5,32c4.3,7.5,8.7,14.9,13,22.4
		c1.2,2.2,2.5,4.3,3.8,6.5c0.3,0.6,0.7,1.2,1,1.8c7.8,13.7,15.6,27.4,23.5,41c2.2,3.9,4.5,7.8,6.8,11.6c2.6,4.5,5.2,9,7.9,13.4
		c2.9,4.9,5.8,9.8,8.7,14.7c3.5,5.9,7.2,11.7,10.5,17.7C1396.7,689.5,1395.4,692.2,1394.3,692.8z"/>
	<g>
		<linearGradient id="SVGID_10_" gradientUnits="userSpaceOnUse" x1="919.2517" y1="67.8285" x2="1334.6415" y2="651.1691">
			<stop  offset="0" style="stop-color:#AE8626"/>
			<stop  offset="0.2388" style="stop-color:#F7EF8A"/>
			<stop  offset="0.649" style="stop-color:#D2AC47"/>
			<stop  offset="1" style="stop-color:#EDC967"/>
		</linearGradient>
		<path class="st10" d="M964.1,40.5v54.4h-89.8c0.2-0.3,0.4-0.6,0.5-0.9c8.8-15.2,17.7-30.3,26-45.7c2-3.7,4.4-6.2,7.4-7.7H964.1z"
			/>
		<linearGradient id="SVGID_11_" gradientUnits="userSpaceOnUse" x1="970.6765" y1="31.2095" x2="1386.0663" y2="614.5502">
			<stop  offset="0" style="stop-color:#AE8626"/>
			<stop  offset="0.2388" style="stop-color:#F7EF8A"/>
			<stop  offset="0.649" style="stop-color:#D2AC47"/>
			<stop  offset="1" style="stop-color:#EDC967"/>
		</linearGradient>
		<path class="st11" d="M1052.8,94.9h-80.1V40.5h44.4c4.9,2.2,8.5,6.2,11.7,12.3C1036.4,67.1,1044.6,81,1052.8,94.9z"/>
		<linearGradient id="SVGID_12_" gradientUnits="userSpaceOnUse" x1="858.465" y1="111.114" x2="1273.8547" y2="694.4546">
			<stop  offset="0" style="stop-color:#AE8626"/>
			<stop  offset="0.2388" style="stop-color:#F7EF8A"/>
			<stop  offset="0.649" style="stop-color:#D2AC47"/>
			<stop  offset="1" style="stop-color:#EDC967"/>
		</linearGradient>
		<path class="st12" d="M903.2,101.4v54.4h-64.6c2.7-4.7,5.3-9.3,8-13.9c7.9-13.5,15.9-27,23.8-40.5H903.2z"/>
		<linearGradient id="SVGID_13_" gradientUnits="userSpaceOnUse" x1="927.4678" y1="61.9779" x2="1342.8575" y2="645.3185">
			<stop  offset="0" style="stop-color:#AE8626"/>
			<stop  offset="0.2388" style="stop-color:#F7EF8A"/>
			<stop  offset="0.649" style="stop-color:#D2AC47"/>
			<stop  offset="1" style="stop-color:#EDC967"/>
		</linearGradient>
		<rect x="911.9" y="101.4" class="st13" width="126.1" height="54.4"/>
		<linearGradient id="SVGID_14_" gradientUnits="userSpaceOnUse" x1="978.3632" y1="25.7359" x2="1393.7531" y2="609.0765">
			<stop  offset="0" style="stop-color:#AE8626"/>
			<stop  offset="0.2388" style="stop-color:#F7EF8A"/>
			<stop  offset="0.649" style="stop-color:#D2AC47"/>
			<stop  offset="1" style="stop-color:#EDC967"/>
		</linearGradient>
		<polygon class="st14" points="1087.8,155.8 1046.6,155.8 1046.6,101.4 1056.6,101.4 		"/>
		<linearGradient id="SVGID_15_" gradientUnits="userSpaceOnUse" x1="791.2306" y1="158.9908" x2="1206.6204" y2="742.3314">
			<stop  offset="0" style="stop-color:#AE8626"/>
			<stop  offset="0.2388" style="stop-color:#F7EF8A"/>
			<stop  offset="0.649" style="stop-color:#D2AC47"/>
			<stop  offset="1" style="stop-color:#EDC967"/>
		</linearGradient>
		<path class="st15" d="M829.3,172.1v44.6h-25.8c6.5-11.1,12.9-22.2,19.3-33.3C825,179.6,827.2,175.9,829.3,172.1z"/>
		<linearGradient id="SVGID_16_" gradientUnits="userSpaceOnUse" x1="849.6917" y1="117.3613" x2="1265.0815" y2="700.7019">
			<stop  offset="0" style="stop-color:#AE8626"/>
			<stop  offset="0.2388" style="stop-color:#F7EF8A"/>
			<stop  offset="0.649" style="stop-color:#D2AC47"/>
			<stop  offset="1" style="stop-color:#EDC967"/>
		</linearGradient>
		<path class="st16" d="M964.1,162.3v9.1c-2.2-0.5-4.4,1.2-6.5,4.8c-7.9,13.5-15.9,26.9-23.8,40.4H838v-54.4H964.1z"/>
		<linearGradient id="SVGID_17_" gradientUnits="userSpaceOnUse" x1="943.3105" y1="50.6965" x2="1358.7003" y2="634.0371">
			<stop  offset="0" style="stop-color:#AE8626"/>
			<stop  offset="0.2388" style="stop-color:#F7EF8A"/>
			<stop  offset="0.649" style="stop-color:#D2AC47"/>
			<stop  offset="1" style="stop-color:#EDC967"/>
		</linearGradient>
		<path class="st17" d="M1098.8,174.8v41.9H992.7c-3.3-5.9-6.7-11.7-10-17.5c-3.3-5.7-6.6-11.3-9.9-16.9v-19.9h118.8
			c1.6,2.8,3.3,5.7,4.9,8.5C1097.2,172.1,1098,173.5,1098.8,174.8z"/>
		<linearGradient id="SVGID_18_" gradientUnits="userSpaceOnUse" x1="980.2289" y1="24.4074" x2="1395.6187" y2="607.748">
			<stop  offset="0" style="stop-color:#AE8626"/>
			<stop  offset="0.2388" style="stop-color:#F7EF8A"/>
			<stop  offset="0.649" style="stop-color:#D2AC47"/>
			<stop  offset="1" style="stop-color:#EDC967"/>
		</linearGradient>
		<path class="st18" d="M1123.5,216.7h-16v-27.1C1112.8,198.6,1118.2,207.6,1123.5,216.7z"/>
		<linearGradient id="SVGID_19_" gradientUnits="userSpaceOnUse" x1="780.5297" y1="166.6107" x2="1195.9196" y2="749.9514">
			<stop  offset="0" style="stop-color:#AE8626"/>
			<stop  offset="0.2388" style="stop-color:#F7EF8A"/>
			<stop  offset="0.649" style="stop-color:#D2AC47"/>
			<stop  offset="1" style="stop-color:#EDC967"/>
		</linearGradient>
		<path class="st19" d="M903.2,223.2v54.4H777.1v-14.8c6.1-10.8,12.2-21.6,18.4-32.4c1.4-2.4,2.8-4.9,4.2-7.3H903.2z"/>
		<linearGradient id="SVGID_20_" gradientUnits="userSpaceOnUse" x1="839.4597" y1="124.6474" x2="1254.8495" y2="707.988">
			<stop  offset="0" style="stop-color:#AE8626"/>
			<stop  offset="0.2388" style="stop-color:#F7EF8A"/>
			<stop  offset="0.649" style="stop-color:#D2AC47"/>
			<stop  offset="1" style="stop-color:#EDC967"/>
		</linearGradient>
		<path class="st20" d="M911.9,223.2h18.1c-0.4,0.7-0.8,1.3-1.2,2c-5.7,9.9-11.3,19.8-16.9,29.7V223.2z"/>
		<linearGradient id="SVGID_21_" gradientUnits="userSpaceOnUse" x1="908.3406" y1="75.5981" x2="1323.7305" y2="658.9387">
			<stop  offset="0" style="stop-color:#AE8626"/>
			<stop  offset="0.2388" style="stop-color:#F7EF8A"/>
			<stop  offset="0.649" style="stop-color:#D2AC47"/>
			<stop  offset="1" style="stop-color:#EDC967"/>
		</linearGradient>
		<path class="st21" d="M1037.9,223.2v54.4h-10.3c-1.9-3.2-3.8-6.4-5.7-9.6c-7.4-12.8-14.7-25.7-22-38.5c-1.2-2.1-2.4-4.2-3.6-6.3
			H1037.9z"/>
		<linearGradient id="SVGID_22_" gradientUnits="userSpaceOnUse" x1="944.2747" y1="50.0099" x2="1359.6644" y2="633.3505">
			<stop  offset="0" style="stop-color:#AE8626"/>
			<stop  offset="0.2388" style="stop-color:#F7EF8A"/>
			<stop  offset="0.649" style="stop-color:#D2AC47"/>
			<stop  offset="1" style="stop-color:#EDC967"/>
		</linearGradient>
		<path class="st22" d="M1158,277.6h-111.4v-54.4h80.7c1,1.7,2,3.4,3,5.1c7.7,13.3,14.9,26.8,22.5,40.1
			C1154.5,271.5,1156.3,274.5,1158,277.6z"/>
		<linearGradient id="SVGID_23_" gradientUnits="userSpaceOnUse" x1="712.7313" y1="214.8892" x2="1128.1211" y2="798.2298">
			<stop  offset="0" style="stop-color:#AE8626"/>
			<stop  offset="0.2388" style="stop-color:#F7EF8A"/>
			<stop  offset="0.649" style="stop-color:#D2AC47"/>
			<stop  offset="1" style="stop-color:#EDC967"/>
		</linearGradient>
		<path class="st23" d="M829.3,284v54.4h-96c3.5-6.2,7-12.4,10.6-18.5c6.9-12,14.1-23.9,21-35.9H829.3z"/>
		<linearGradient id="SVGID_24_" gradientUnits="userSpaceOnUse" x1="769.3511" y1="174.5709" x2="1184.7408" y2="757.9115">
			<stop  offset="0" style="stop-color:#AE8626"/>
			<stop  offset="0.2388" style="stop-color:#F7EF8A"/>
			<stop  offset="0.649" style="stop-color:#D2AC47"/>
			<stop  offset="1" style="stop-color:#EDC967"/>
		</linearGradient>
		<path class="st24" d="M895.3,284c-1.4,2.5-2.8,5-4.2,7.4c-9,15.7-18.4,31.3-27.5,47H838V284H895.3z"/>
		<linearGradient id="SVGID_25_" gradientUnits="userSpaceOnUse" x1="911.5045" y1="73.3451" x2="1326.8943" y2="656.6858">
			<stop  offset="0" style="stop-color:#AE8626"/>
			<stop  offset="0.2388" style="stop-color:#F7EF8A"/>
			<stop  offset="0.649" style="stop-color:#D2AC47"/>
			<stop  offset="1" style="stop-color:#EDC967"/>
		</linearGradient>
		<path class="st25" d="M1098.8,284v54.4H1063c-7.7-13.3-15.2-26.7-23-40c-2.8-4.8-5.7-9.6-8.5-14.4H1098.8z"/>
		<linearGradient id="SVGID_26_" gradientUnits="userSpaceOnUse" x1="947.1565" y1="47.9578" x2="1362.5463" y2="631.2984">
			<stop  offset="0" style="stop-color:#AE8626"/>
			<stop  offset="0.2388" style="stop-color:#F7EF8A"/>
			<stop  offset="0.649" style="stop-color:#D2AC47"/>
			<stop  offset="1" style="stop-color:#EDC967"/>
		</linearGradient>
		<path class="st26" d="M1193.4,338.4h-85.9V284h54.3c4.4,7.6,8.8,15.1,13.2,22.7C1181.2,317.3,1187.3,327.9,1193.4,338.4z"/>
		<linearGradient id="SVGID_27_" gradientUnits="userSpaceOnUse" x1="652.1489" y1="258.0292" x2="1067.5387" y2="841.3698">
			<stop  offset="0" style="stop-color:#AE8626"/>
			<stop  offset="0.2388" style="stop-color:#F7EF8A"/>
			<stop  offset="0.649" style="stop-color:#D2AC47"/>
			<stop  offset="1" style="stop-color:#EDC967"/>
		</linearGradient>
		<path class="st27" d="M768.5,344.9v54.4h-70.1c5.8-9.8,11.5-19.7,17.2-29.5c4.8-8.3,9.5-16.6,14.2-24.9H768.5z"/>
		<linearGradient id="SVGID_28_" gradientUnits="userSpaceOnUse" x1="708.5995" y1="217.8314" x2="1123.9893" y2="801.172">
			<stop  offset="0" style="stop-color:#AE8626"/>
			<stop  offset="0.2388" style="stop-color:#F7EF8A"/>
			<stop  offset="0.649" style="stop-color:#D2AC47"/>
			<stop  offset="1" style="stop-color:#EDC967"/>
		</linearGradient>
		<path class="st28" d="M859.8,344.9c-6.4,11.1-12.6,22.4-19.1,33.5c-4,7-8,13.9-12.1,20.8h-51.5v-54.4H859.8z"/>
		<linearGradient id="SVGID_29_" gradientUnits="userSpaceOnUse" x1="793.8141" y1="157.1511" x2="1209.2039" y2="740.4917">
			<stop  offset="0" style="stop-color:#AE8626"/>
			<stop  offset="0.2388" style="stop-color:#F7EF8A"/>
			<stop  offset="0.649" style="stop-color:#D2AC47"/>
			<stop  offset="1" style="stop-color:#EDC967"/>
		</linearGradient>
		<path class="st29" d="M990.8,399.3h-54.9c7.7-13.3,15.2-26.7,22.9-40c0.9-1.6,2.9-3.6,4.5-3.6c1.5,0,3.8,1.8,4.7,3.3
			c5.8,10,11.3,20.3,17.1,30.4C986.9,392.7,988.8,396,990.8,399.3z"/>
		<linearGradient id="SVGID_30_" gradientUnits="userSpaceOnUse" x1="918.978" y1="68.0234" x2="1334.3678" y2="651.364">
			<stop  offset="0" style="stop-color:#AE8626"/>
			<stop  offset="0.2388" style="stop-color:#F7EF8A"/>
			<stop  offset="0.649" style="stop-color:#D2AC47"/>
			<stop  offset="1" style="stop-color:#EDC967"/>
		</linearGradient>
		<path class="st30" d="M1172.7,344.9v54.4h-74.3c-5.6-10-11.2-20-16.9-29.9c-4.7-8.2-9.8-16.3-14.6-24.5H1172.7z"/>
		<linearGradient id="SVGID_31_" gradientUnits="userSpaceOnUse" x1="954.6498" y1="42.6219" x2="1370.0397" y2="625.9625">
			<stop  offset="0" style="stop-color:#AE8626"/>
			<stop  offset="0.2388" style="stop-color:#F7EF8A"/>
			<stop  offset="0.649" style="stop-color:#D2AC47"/>
			<stop  offset="1" style="stop-color:#EDC967"/>
		</linearGradient>
		<path class="st31" d="M1228.7,399.3h-47.3v-54.4h15.9c0.3,0.6,0.7,1.1,1,1.7c9.5,16.4,19,32.7,28.4,49.1
			C1227.3,396.9,1228,398.1,1228.7,399.3z"/>
		<linearGradient id="SVGID_32_" gradientUnits="userSpaceOnUse" x1="587.1055" y1="304.3458" x2="1002.4953" y2="887.6863">
			<stop  offset="0" style="stop-color:#AE8626"/>
			<stop  offset="0.2388" style="stop-color:#F7EF8A"/>
			<stop  offset="0.649" style="stop-color:#D2AC47"/>
			<stop  offset="1" style="stop-color:#EDC967"/>
		</linearGradient>
		<path class="st32" d="M694.6,405.8v54.4h-31.8c0.4-0.7,0.8-1.3,1.1-2c7.4-12.8,14.9-25.6,22.3-38.3
			C689,415.2,691.8,410.5,694.6,405.8L694.6,405.8z"/>
		<linearGradient id="SVGID_33_" gradientUnits="userSpaceOnUse" x1="643.7386" y1="264.018" x2="1059.1284" y2="847.3586">
			<stop  offset="0" style="stop-color:#AE8626"/>
			<stop  offset="0.2388" style="stop-color:#F7EF8A"/>
			<stop  offset="0.649" style="stop-color:#D2AC47"/>
			<stop  offset="1" style="stop-color:#EDC967"/>
		</linearGradient>
		<path class="st33" d="M824.8,405.8c-2.7,4.7-5.4,9.4-8.2,14.1c-7.7,13.4-15.3,26.9-23,40.3h-90.4v-54.4H824.8z"/>
		<linearGradient id="SVGID_34_" gradientUnits="userSpaceOnUse" x1="755.5251" y1="184.4162" x2="1170.9149" y2="767.7568">
			<stop  offset="0" style="stop-color:#AE8626"/>
			<stop  offset="0.2388" style="stop-color:#F7EF8A"/>
			<stop  offset="0.649" style="stop-color:#D2AC47"/>
			<stop  offset="1" style="stop-color:#EDC967"/>
		</linearGradient>
		<path class="st34" d="M964.1,405.8v54.4H901c3.9-7.1,7.7-14.2,11.6-21.2c6.4-11.1,13-22.1,19.5-33.2H964.1z"/>
		<linearGradient id="SVGID_35_" gradientUnits="userSpaceOnUse" x1="789.4519" y1="160.2573" x2="1204.8417" y2="743.598">
			<stop  offset="0" style="stop-color:#AE8626"/>
			<stop  offset="0.2388" style="stop-color:#F7EF8A"/>
			<stop  offset="0.649" style="stop-color:#D2AC47"/>
			<stop  offset="1" style="stop-color:#EDC967"/>
		</linearGradient>
		<path class="st35" d="M1026.5,460.2h-53.7v-54.4h21.8c3,5.1,6,10.1,9,15.2C1011.2,434.1,1018.9,447.1,1026.5,460.2z"/>
		<linearGradient id="SVGID_36_" gradientUnits="userSpaceOnUse" x1="922.0802" y1="65.8143" x2="1337.47" y2="649.1549">
			<stop  offset="0" style="stop-color:#AE8626"/>
			<stop  offset="0.2388" style="stop-color:#F7EF8A"/>
			<stop  offset="0.649" style="stop-color:#D2AC47"/>
			<stop  offset="1" style="stop-color:#EDC967"/>
		</linearGradient>
		<path class="st36" d="M1233.6,405.8v54.4h-100c-0.4-0.7-0.8-1.4-1.2-2.1c-7.6-13.3-15.6-26.5-23.2-39.8c-0.5-0.9-1.1-1.9-1.6-2.8
			v-9.7H1233.6z"/>
		<linearGradient id="SVGID_37_" gradientUnits="userSpaceOnUse" x1="956.9031" y1="41.0173" x2="1372.293" y2="624.358">
			<stop  offset="0" style="stop-color:#AE8626"/>
			<stop  offset="0.2388" style="stop-color:#F7EF8A"/>
			<stop  offset="0.649" style="stop-color:#D2AC47"/>
			<stop  offset="1" style="stop-color:#EDC967"/>
		</linearGradient>
		<path class="st37" d="M1263.8,460.2h-21.6v-37c2.5,4.4,5,8.8,7.5,13.1C1254.3,444.3,1259.1,452.2,1263.8,460.2z"/>
		<linearGradient id="SVGID_38_" gradientUnits="userSpaceOnUse" x1="516.1243" y1="354.8906" x2="931.5142" y2="938.2312">
			<stop  offset="0" style="stop-color:#AE8626"/>
			<stop  offset="0.2388" style="stop-color:#F7EF8A"/>
			<stop  offset="0.649" style="stop-color:#D2AC47"/>
			<stop  offset="1" style="stop-color:#EDC967"/>
		</linearGradient>
		<path class="st38" d="M633.7,510.7v10.4h-5.9C629.8,517.6,631.8,514.2,633.7,510.7z"/>
		<linearGradient id="SVGID_39_" gradientUnits="userSpaceOnUse" x1="576.0663" y1="312.2066" x2="991.4561" y2="895.5472">
			<stop  offset="0" style="stop-color:#AE8626"/>
			<stop  offset="0.2388" style="stop-color:#F7EF8A"/>
			<stop  offset="0.649" style="stop-color:#D2AC47"/>
			<stop  offset="1" style="stop-color:#EDC967"/>
		</linearGradient>
		<path class="st39" d="M768.5,466.7v54.4H642.4v-25.5c5.5-9.6,11.1-19.3,16.7-28.9H768.5z"/>
		<linearGradient id="SVGID_40_" gradientUnits="userSpaceOnUse" x1="635.6485" y1="269.7789" x2="1051.0383" y2="853.1195">
			<stop  offset="0" style="stop-color:#AE8626"/>
			<stop  offset="0.2388" style="stop-color:#F7EF8A"/>
			<stop  offset="0.649" style="stop-color:#D2AC47"/>
			<stop  offset="1" style="stop-color:#EDC967"/>
		</linearGradient>
		<path class="st40" d="M789.9,466.7c-4.2,7.2-8.5,14.3-12.7,21.5v-21.5H789.9z"/>
		<linearGradient id="SVGID_41_" gradientUnits="userSpaceOnUse" x1="622.9983" y1="278.787" x2="1038.3881" y2="862.1276">
			<stop  offset="0" style="stop-color:#AE8626"/>
			<stop  offset="0.2388" style="stop-color:#F7EF8A"/>
			<stop  offset="0.649" style="stop-color:#D2AC47"/>
			<stop  offset="1" style="stop-color:#EDC967"/>
		</linearGradient>
		<path class="st41" d="M803.7,518.7c3.4,0.8,6.8,1.5,10.2,2.4h-36.8v-5.9C786,516.1,795,516.8,803.7,518.7z"/>
		<linearGradient id="SVGID_42_" gradientUnits="userSpaceOnUse" x1="694.8" y1="227.6578" x2="1110.1898" y2="810.9984">
			<stop  offset="0" style="stop-color:#AE8626"/>
			<stop  offset="0.2388" style="stop-color:#F7EF8A"/>
			<stop  offset="0.649" style="stop-color:#D2AC47"/>
			<stop  offset="1" style="stop-color:#EDC967"/>
		</linearGradient>
		<path class="st42" d="M903.2,466.7v54.4h-37.7c9.9-17.1,20-34,29.9-51c0.6-1.1,1.3-2.2,1.9-3.3H903.2z"/>
		<linearGradient id="SVGID_43_" gradientUnits="userSpaceOnUse" x1="752.309" y1="186.7063" x2="1167.6989" y2="770.0469">
			<stop  offset="0" style="stop-color:#AE8626"/>
			<stop  offset="0.2388" style="stop-color:#F7EF8A"/>
			<stop  offset="0.649" style="stop-color:#D2AC47"/>
			<stop  offset="1" style="stop-color:#EDC967"/>
		</linearGradient>
		<path class="st43" d="M1037.9,480.4v40.7H911.9v-54.4h118.3C1032.8,471.2,1035.4,475.8,1037.9,480.4z"/>
		<linearGradient id="SVGID_44_" gradientUnits="userSpaceOnUse" x1="795.5812" y1="155.8928" x2="1210.9709" y2="739.2334">
			<stop  offset="0" style="stop-color:#AE8626"/>
			<stop  offset="0.2388" style="stop-color:#F7EF8A"/>
			<stop  offset="0.649" style="stop-color:#D2AC47"/>
			<stop  offset="1" style="stop-color:#EDC967"/>
		</linearGradient>
		<path class="st44" d="M1050.7,502.9c3.5,6.1,7,12.1,10.5,18.1h-14.6v-25.3C1048,498.2,1049.3,500.6,1050.7,502.9z"/>
		<linearGradient id="SVGID_45_" gradientUnits="userSpaceOnUse" x1="884.6287" y1="92.4831" x2="1300.0186" y2="675.8237">
			<stop  offset="0" style="stop-color:#AE8626"/>
			<stop  offset="0.2388" style="stop-color:#F7EF8A"/>
			<stop  offset="0.649" style="stop-color:#D2AC47"/>
			<stop  offset="1" style="stop-color:#EDC967"/>
		</linearGradient>
		<path class="st45" d="M1172.7,466.7v54.4h-4.5c-4.4-7.6-8.9-15.2-13.3-22.8c-6-10.5-11.8-21.1-17.8-31.6H1172.7z"/>
		<linearGradient id="SVGID_46_" gradientUnits="userSpaceOnUse" x1="920.4864" y1="66.9492" x2="1335.8762" y2="650.2899">
			<stop  offset="0" style="stop-color:#AE8626"/>
			<stop  offset="0.2388" style="stop-color:#F7EF8A"/>
			<stop  offset="0.649" style="stop-color:#D2AC47"/>
			<stop  offset="1" style="stop-color:#EDC967"/>
		</linearGradient>
		<path class="st46" d="M1298.8,521.1h-117.4v-54.4h86.3c5.7,9.8,11.2,19.6,16.8,29.4C1289.2,504.4,1294,512.8,1298.8,521.1z"/>
		<linearGradient id="SVGID_47_" gradientUnits="userSpaceOnUse" x1="506.2474" y1="361.9239" x2="921.6371" y2="945.2645">
			<stop  offset="0" style="stop-color:#AE8626"/>
			<stop  offset="0.2388" style="stop-color:#F7EF8A"/>
			<stop  offset="0.649" style="stop-color:#D2AC47"/>
			<stop  offset="1" style="stop-color:#EDC967"/>
		</linearGradient>
		<path class="st47" d="M694.6,527.6v54.4H592.5c1-1.8,2.1-3.6,3.1-5.4c7.7-13.3,15.5-26.5,23.2-39.8c1.8-3,3.5-6.1,5.2-9.1H694.6z"
			/>
		<linearGradient id="SVGID_48_" gradientUnits="userSpaceOnUse" x1="587.6982" y1="303.9237" x2="1003.088" y2="887.2643">
			<stop  offset="0" style="stop-color:#AE8626"/>
			<stop  offset="0.2388" style="stop-color:#F7EF8A"/>
			<stop  offset="0.649" style="stop-color:#D2AC47"/>
			<stop  offset="1" style="stop-color:#EDC967"/>
		</linearGradient>
		<rect x="703.3" y="527.5" class="st48" width="126.1" height="54.4"/>
		<linearGradient id="SVGID_49_" gradientUnits="userSpaceOnUse" x1="677.1035" y1="240.2592" x2="1092.4933" y2="823.5999">
			<stop  offset="0" style="stop-color:#AE8626"/>
			<stop  offset="0.2388" style="stop-color:#F7EF8A"/>
			<stop  offset="0.649" style="stop-color:#D2AC47"/>
			<stop  offset="1" style="stop-color:#EDC967"/>
		</linearGradient>
		<rect x="838" y="527.5" class="st49" width="126.1" height="54.4"/>
		<linearGradient id="SVGID_50_" gradientUnits="userSpaceOnUse" x1="755.3003" y1="184.5763" x2="1170.6901" y2="767.9169">
			<stop  offset="0" style="stop-color:#AE8626"/>
			<stop  offset="0.2388" style="stop-color:#F7EF8A"/>
			<stop  offset="0.649" style="stop-color:#D2AC47"/>
			<stop  offset="1" style="stop-color:#EDC967"/>
		</linearGradient>
		<path class="st50" d="M1096.5,581.9H972.8v-54.4h92.3c4.5,7.6,9,15.3,13.4,22.9C1084.5,561,1090.5,571.5,1096.5,581.9z"/>
		<linearGradient id="SVGID_51_" gradientUnits="userSpaceOnUse" x1="887.7859" y1="90.2348" x2="1303.1758" y2="673.5754">
			<stop  offset="0" style="stop-color:#AE8626"/>
			<stop  offset="0.2388" style="stop-color:#F7EF8A"/>
			<stop  offset="0.649" style="stop-color:#D2AC47"/>
			<stop  offset="1" style="stop-color:#EDC967"/>
		</linearGradient>
		<path class="st51" d="M1233.6,527.6v54.4h-30c-8.4-14.4-16.7-28.9-25.1-43.3c-2.1-3.7-4.3-7.4-6.5-11.1H1233.6z"/>
		<linearGradient id="SVGID_52_" gradientUnits="userSpaceOnUse" x1="923.491" y1="64.8097" x2="1338.8807" y2="648.1503">
			<stop  offset="0" style="stop-color:#AE8626"/>
			<stop  offset="0.2388" style="stop-color:#F7EF8A"/>
			<stop  offset="0.649" style="stop-color:#D2AC47"/>
			<stop  offset="1" style="stop-color:#EDC967"/>
		</linearGradient>
		<path class="st52" d="M1334.1,581.9h-91.9v-54.4h60.3c6.2,10.7,12.3,21.3,18.5,32C1325.4,567,1329.8,574.5,1334.1,581.9z"/>
		<linearGradient id="SVGID_53_" gradientUnits="userSpaceOnUse" x1="445.7147" y1="405.0284" x2="861.1045" y2="988.3691">
			<stop  offset="0" style="stop-color:#AE8626"/>
			<stop  offset="0.2388" style="stop-color:#F7EF8A"/>
			<stop  offset="0.649" style="stop-color:#D2AC47"/>
			<stop  offset="1" style="stop-color:#EDC967"/>
		</linearGradient>
		<path class="st53" d="M633.7,588.4v54.4h-76.1c4.9-8.6,9.8-17.2,14.8-25.8c5.5-9.5,10.9-19.1,16.4-28.6H633.7z"/>
		<linearGradient id="SVGID_54_" gradientUnits="userSpaceOnUse" x1="518.5349" y1="353.1741" x2="933.9247" y2="936.5147">
			<stop  offset="0" style="stop-color:#AE8626"/>
			<stop  offset="0.2388" style="stop-color:#F7EF8A"/>
			<stop  offset="0.649" style="stop-color:#D2AC47"/>
			<stop  offset="1" style="stop-color:#EDC967"/>
		</linearGradient>
		<path class="st54" d="M768.5,588.4v38.2c-12.5-1-24.7,2-36.6,7.1c-5.9,2.6-11.5,5.6-16.7,9.1h-72.8v-54.4H768.5z"/>
		<linearGradient id="SVGID_55_" gradientUnits="userSpaceOnUse" x1="611.465" y1="286.9996" x2="1026.8549" y2="870.3403">
			<stop  offset="0" style="stop-color:#AE8626"/>
			<stop  offset="0.2388" style="stop-color:#F7EF8A"/>
			<stop  offset="0.649" style="stop-color:#D2AC47"/>
			<stop  offset="1" style="stop-color:#EDC967"/>
		</linearGradient>
		<path class="st55" d="M903.2,588.4v54.4h-76.4c-2.2-0.8-4.5-1.6-6.7-2.4c-13.4-4.7-27.1-8.4-40.8-12c-0.7-0.2-1.4-0.4-2.1-0.5
			v-39.5H903.2z"/>
		<linearGradient id="SVGID_56_" gradientUnits="userSpaceOnUse" x1="697.3468" y1="225.8442" x2="1112.7366" y2="809.1849">
			<stop  offset="0" style="stop-color:#AE8626"/>
			<stop  offset="0.2388" style="stop-color:#F7EF8A"/>
			<stop  offset="0.649" style="stop-color:#D2AC47"/>
			<stop  offset="1" style="stop-color:#EDC967"/>
		</linearGradient>
		<rect x="911.9" y="588.4" class="st56" width="126.1" height="54.4"/>
		<linearGradient id="SVGID_57_" gradientUnits="userSpaceOnUse" x1="762.7108" y1="179.2994" x2="1178.1006" y2="762.64">
			<stop  offset="0" style="stop-color:#AE8626"/>
			<stop  offset="0.2388" style="stop-color:#F7EF8A"/>
			<stop  offset="0.649" style="stop-color:#D2AC47"/>
			<stop  offset="1" style="stop-color:#EDC967"/>
		</linearGradient>
		<path class="st57" d="M1131.9,642.8h-85.3v-54.4h53.6c0.3,0.5,0.6,1,0.9,1.6c6,10.4,12.1,20.8,18.2,31.2
			C1123.5,628.4,1127.7,635.6,1131.9,642.8z"/>
		<linearGradient id="SVGID_58_" gradientUnits="userSpaceOnUse" x1="895.1665" y1="84.9792" x2="1310.5563" y2="668.3198">
			<stop  offset="0" style="stop-color:#AE8626"/>
			<stop  offset="0.2388" style="stop-color:#F7EF8A"/>
			<stop  offset="0.649" style="stop-color:#D2AC47"/>
			<stop  offset="1" style="stop-color:#EDC967"/>
		</linearGradient>
		<path class="st58" d="M1307.4,588.4v54.4h-68.8c-2.9-5.1-5.7-10.2-8.7-15.2c-7.6-13-15.1-26.1-22.7-39.2H1307.4z"/>
		<linearGradient id="SVGID_59_" gradientUnits="userSpaceOnUse" x1="930.9513" y1="59.4973" x2="1346.3411" y2="642.838">
			<stop  offset="0" style="stop-color:#AE8626"/>
			<stop  offset="0.2388" style="stop-color:#F7EF8A"/>
			<stop  offset="0.649" style="stop-color:#D2AC47"/>
			<stop  offset="1" style="stop-color:#EDC967"/>
		</linearGradient>
		<path class="st59" d="M1369.1,642.8h-53v-54.4h21.8c0.3,0.6,0.7,1.2,1,1.8c7.8,13.7,15.6,27.4,23.5,41
			C1364.6,635.1,1366.8,639,1369.1,642.8z"/>
		<linearGradient id="SVGID_60_" gradientUnits="userSpaceOnUse" x1="386.2278" y1="447.3883" x2="801.6176" y2="1030.729">
			<stop  offset="0" style="stop-color:#AE8626"/>
			<stop  offset="0.2388" style="stop-color:#F7EF8A"/>
			<stop  offset="0.649" style="stop-color:#D2AC47"/>
			<stop  offset="1" style="stop-color:#EDC967"/>
		</linearGradient>
		<path class="st60" d="M559.8,649.3v43.9c-8.2,0-16.5,0-24.7,0c-1.6,0-3.2-1-4.8-1.5c0.7-1.7,1.1-3.5,2-5
			c5.7-9.9,11.5-19.7,17.2-29.6c1.5-2.6,2.9-5.1,4.4-7.7H559.8z"/>
		<linearGradient id="SVGID_61_" gradientUnits="userSpaceOnUse" x1="443.2525" y1="406.7817" x2="858.6423" y2="990.1223">
			<stop  offset="0" style="stop-color:#AE8626"/>
			<stop  offset="0.2388" style="stop-color:#F7EF8A"/>
			<stop  offset="0.649" style="stop-color:#D2AC47"/>
			<stop  offset="1" style="stop-color:#EDC967"/>
		</linearGradient>
		<path class="st61" d="M694.6,649.3v9.8c-6.3,5.8-12.3,11.9-18.3,18.2c-9.3,9.7-21.1,15.5-34.8,15.6c-24.3,0.2-48.7,0.3-73,0.3
			v-43.9H694.6z"/>
		<linearGradient id="SVGID_62_" gradientUnits="userSpaceOnUse" x1="634.2" y1="270.8103" x2="1049.5898" y2="854.1509">
			<stop  offset="0" style="stop-color:#AE8626"/>
			<stop  offset="0.2388" style="stop-color:#F7EF8A"/>
			<stop  offset="0.649" style="stop-color:#D2AC47"/>
			<stop  offset="1" style="stop-color:#EDC967"/>
		</linearGradient>
		<path class="st62" d="M964.1,649.3v44.6c-14.8-3.3-29.4-8-43.7-12.9c-19-6.5-37.2-15.3-55.8-23c-7.1-2.9-14.1-5.8-21.2-8.7H964.1z
			"/>
		<linearGradient id="SVGID_63_" gradientUnits="userSpaceOnUse" x1="710.8826" y1="216.2056" x2="1126.2725" y2="799.5462">
			<stop  offset="0" style="stop-color:#AE8626"/>
			<stop  offset="0.2388" style="stop-color:#F7EF8A"/>
			<stop  offset="0.649" style="stop-color:#D2AC47"/>
			<stop  offset="1" style="stop-color:#EDC967"/>
		</linearGradient>
		<path class="st63" d="M1098.8,649.3V687c-0.6,0.2-1.2,0.5-1.8,0.7c-18.6,7.3-38.2,10.4-57.9,11.6c-14.6,0.8-29.3,0-43.9-0.9
			c-7.6-0.4-15.1-1.4-22.5-2.7v-46.3H1098.8z"/>
		<linearGradient id="SVGID_64_" gradientUnits="userSpaceOnUse" x1="770.6525" y1="173.6441" x2="1186.0424" y2="756.9847">
			<stop  offset="0" style="stop-color:#AE8626"/>
			<stop  offset="0.2388" style="stop-color:#F7EF8A"/>
			<stop  offset="0.649" style="stop-color:#D2AC47"/>
			<stop  offset="1" style="stop-color:#EDC967"/>
		</linearGradient>
		<path class="st64" d="M1138.8,670c-3.2,1.9-6.6,3.6-10,5.1c-7.1,2.9-14.2,5.7-21.3,8.5v-34.3h28.2c0.3,0.5,0.6,1,0.9,1.5
			c1.7,2.9,3.3,5.8,5.3,8.6C1145.3,664.2,1143.1,667.5,1138.8,670z"/>
		<linearGradient id="SVGID_65_" gradientUnits="userSpaceOnUse" x1="900.0426" y1="81.507" x2="1315.4324" y2="664.8477">
			<stop  offset="0" style="stop-color:#AE8626"/>
			<stop  offset="0.2388" style="stop-color:#F7EF8A"/>
			<stop  offset="0.649" style="stop-color:#D2AC47"/>
			<stop  offset="1" style="stop-color:#EDC967"/>
		</linearGradient>
		<path class="st65" d="M1368.3,649.3v43.9c-8.9,0-17.9,0-26.8,0v-0.3c-15.1,0-30.1,0.3-45.2-0.1c-17.7-0.5-31.7-8.9-41.4-23.1
			c-4.5-6.6-8.6-13.5-12.6-20.4H1368.3z"/>
		<linearGradient id="SVGID_66_" gradientUnits="userSpaceOnUse" x1="936.1974" y1="55.7616" x2="1351.5872" y2="639.1022">
			<stop  offset="0" style="stop-color:#AE8626"/>
			<stop  offset="0.2388" style="stop-color:#F7EF8A"/>
			<stop  offset="0.649" style="stop-color:#D2AC47"/>
			<stop  offset="1" style="stop-color:#EDC967"/>
		</linearGradient>
		<path class="st66" d="M1394.3,692.8c-1.4,0.8-3.5,0.4-5.2,0.4c-4,0-8.1,0-12.1,0v-37c2.9,4.9,5.8,9.8,8.7,14.7
			c3.5,5.9,7.2,11.7,10.5,17.7C1396.7,689.5,1395.4,692.2,1394.3,692.8z"/>
	</g>
</g>
<g>
	<linearGradient id="SVGID_67_" gradientUnits="userSpaceOnUse" x1="906.5864" y1="497.1642" x2="1012.3753" y2="601.7842">
		<stop  offset="0" style="stop-color:#AE8626"/>
		<stop  offset="0.2388" style="stop-color:#F7EF8A"/>
		<stop  offset="0.649" style="stop-color:#D2AC47"/>
		<stop  offset="1" style="stop-color:#EDC967"/>
	</linearGradient>
	<rect x="911.5" y="502.3" class="st67" width="126.4" height="124.6"/>
	<g>
		<rect x="911.5" y="502.3" class="st9" width="55.7" height="54.8"/>
		<rect x="980.7" y="502.3" class="st9" width="57.2" height="54.8"/>
		<rect x="980.7" y="569.1" class="st9" width="57.2" height="57.8"/>
		<rect x="911.5" y="569.1" class="st9" width="55.7" height="57.8"/>
	</g>
</g>
</svg>
