<?xml version="1.0" encoding="utf-8"?>
<!-- Generator: Adobe Illustrator 23.1.0, SVG Export Plug-In . SVG Version: 6.00 Build 0)  -->
<svg version="1.1" id="Layer_1" xmlns="http://www.w3.org/2000/svg" xmlns:xlink="http://www.w3.org/1999/xlink" x="0px" y="0px"
	 viewBox="0 0 1000 700" style="enable-background:new 0 0 1000 700;" xml:space="preserve">
<style type="text/css">
	.st0{opacity:0.29;fill:#FFFFFF;enable-background:new    ;}
	.st1{fill:#FFFFFF;}
	.st2{opacity:0.29;enable-background:new    ;}
</style>
<g id="Object">
	<g id="front">
		<rect x="419.7" y="489.1" width="78.6" height="13.6"/>
		<g>
			<rect x="604.4" y="336.8" width="51.5" height="165.9"/>
			<rect x="600.5" y="337.7" width="59.2" height="1.7"/>
			<rect x="602.1" y="361" width="56" height="1.7"/>
			<rect x="602.1" y="383.6" width="56" height="1.7"/>
			<rect x="602.1" y="406.2" width="56" height="1.7"/>
			<rect x="602.1" y="428.7" width="56" height="1.7"/>
			<rect x="602.1" y="451.3" width="56" height="1.7"/>
			<rect x="602.1" y="473.9" width="56" height="1.7"/>
			<rect x="598.6" y="333.1" width="63.1" height="4.6"/>
			<rect x="609" y="344.9" class="st0" width="5.3" height="13.2"/>
			<rect x="621" y="344.9" class="st1" width="5.3" height="13.2"/>
			<rect x="632.9" y="344.9" class="st1" width="5.3" height="13.2"/>
			<rect x="644.9" y="344.9" class="st1" width="5.3" height="13.2"/>
			<rect x="609" y="366.5" class="st1" width="5.3" height="13.2"/>
			<rect x="621" y="366.5" class="st0" width="5.3" height="13.2"/>
			<rect x="632.9" y="366.5" class="st1" width="5.3" height="13.2"/>
			<rect x="644.9" y="366.5" class="st1" width="5.3" height="13.2"/>
			<rect x="609" y="389.1" class="st1" width="5.3" height="13.2"/>
			<rect x="621" y="389.1" class="st1" width="5.3" height="13.2"/>
			<rect x="632.9" y="389.1" class="st1" width="5.3" height="13.2"/>
			<rect x="644.9" y="389.1" class="st0" width="5.3" height="13.2"/>
			<rect x="609" y="411.7" class="st1" width="5.3" height="13.2"/>
			<rect x="621" y="411.7" class="st0" width="5.3" height="13.2"/>
			<rect x="632.9" y="411.7" class="st0" width="5.3" height="13.2"/>
			<rect x="644.9" y="411.7" class="st1" width="5.3" height="13.2"/>
			<rect x="609" y="434.2" class="st0" width="5.3" height="13.2"/>
			<rect x="621" y="434.2" class="st1" width="5.3" height="13.2"/>
			<rect x="632.9" y="434.2" class="st1" width="5.3" height="13.2"/>
			<rect x="644.9" y="434.2" class="st1" width="5.3" height="13.2"/>
			<rect x="609" y="456.8" class="st1" width="5.3" height="13.2"/>
			<rect x="621" y="456.8" class="st1" width="5.3" height="13.2"/>
			<rect x="632.9" y="456.8" class="st0" width="5.3" height="13.2"/>
			<rect x="644.9" y="456.8" class="st1" width="5.3" height="13.2"/>
			<rect x="609" y="479.4" class="st1" width="5.3" height="13.2"/>
			<rect x="621" y="479.4" class="st0" width="5.3" height="13.2"/>
			<rect x="632.9" y="479.4" class="st1" width="5.3" height="13.2"/>
			<rect x="644.9" y="479.4" class="st2" width="5.3" height="13.2"/>
			<rect x="607.6" y="326.8" width="17.5" height="8.6"/>
			<rect x="606.5" y="326.6" width="19.9" height="1.5"/>
		</g>
		<g>
			<polygon points="530.6,502.7 462,502.7 462,345 530.6,328.3 			"/>
			<rect x="459" y="342.2" width="6" height="160.4"/>
			<rect x="476.2" y="337.7" width="6" height="164.9"/>
			<rect x="493.3" y="333" width="6" height="169.6"/>
			<rect x="510.5" y="329.2" width="6" height="173.5"/>
			<rect x="527.6" y="325.1" width="6" height="177.5"/>
			<rect x="466.6" y="398.1" class="st0" width="8" height="12.2"/>
			<rect x="483.8" y="398.1" class="st0" width="8" height="12.2"/>
			<rect x="500.9" y="398.1" class="st0" width="8" height="12.2"/>
			<rect x="518" y="398.1" class="st1" width="8" height="12.2"/>
			<rect x="466.6" y="419.3" class="st0" width="8" height="12.2"/>
			<rect x="483.8" y="419.3" class="st1" width="8" height="12.2"/>
			<rect x="500.9" y="419.3" class="st0" width="8" height="12.2"/>
			<rect x="518" y="419.3" class="st0" width="8" height="12.2"/>
			<rect x="466.6" y="440.6" class="st0" width="8" height="12.2"/>
			<rect x="483.8" y="440.6" class="st0" width="8" height="12.2"/>
			<rect x="500.9" y="440.6" class="st1" width="8" height="12.2"/>
			<rect x="518" y="440.6" class="st0" width="8" height="12.2"/>
			<rect x="466.6" y="461.8" class="st1" width="8" height="12.2"/>
			<rect x="483.8" y="461.8" class="st1" width="8" height="12.2"/>
			<rect x="500.9" y="461.8" class="st0" width="8" height="12.2"/>
			<rect x="518" y="461.8" class="st0" width="8" height="12.2"/>
			<rect x="466.6" y="483" class="st0" width="8" height="12.2"/>
			<rect x="483.8" y="483" class="st1" width="8" height="12.2"/>
			<rect x="500.9" y="483" class="st0" width="8" height="12.2"/>
			<rect x="518" y="483" class="st1" width="8" height="12.2"/>
		</g>
		<polygon points="266.5,352.6 266.5,354.2 264.8,354.2 264.8,358.9 293.5,358.9 293.5,502.7 246.4,502.7 246.4,366.4 246.4,358.9 
			246.4,354.2 244.7,354.2 244.7,352.6 		"/>
		<rect x="346.6" y="417.9" width="40.3" height="84.8"/>
		<g>
			<rect x="170.9" y="398.5" width="32.8" height="104.2"/>
			<rect x="197.2" y="420.2" width="35.7" height="82.5"/>
			<rect x="182.7" y="394.3" width="14.5" height="12.5"/>
			<rect x="199.6" y="418.8" width="38.1" height="3"/>
		</g>
		<rect x="229.1" y="455.6" width="40" height="47.1"/>
		<rect x="24.1" y="452.8" width="26.8" height="49.9"/>
		<rect x="45.8" y="487" width="63.4" height="15.6"/>
		<rect x="-0.1" y="482" width="32.5" height="20.7"/>
		<rect x="132.2" y="471.1" width="50.5" height="31.5"/>
		<rect x="280.3" y="489.1" width="78.6" height="13.6"/>
		<rect x="369.7" y="381.3" width="0.8" height="51.8"/>
		<rect x="373.8" y="398.8" width="1.1" height="30.5"/>
		<rect x="367.9" y="404.2" width="15.1" height="15.1"/>
		<rect x="365.3" y="403.1" width="20" height="1.4"/>
		<rect x="379.6" y="458.9" width="48.9" height="43.7"/>
		<rect x="419.2" y="410.8" width="31.4" height="84.4"/>
		<rect x="541.8" y="426.7" width="50.2" height="76"/>
		<rect x="526" y="474.7" width="57.2" height="28"/>
		<rect x="589.1" y="492.6" width="37.2" height="10"/>
		<rect x="646.4" y="474.7" width="60.5" height="28"/>
		<g>
			<rect x="670.5" y="401.3" width="75.2" height="101.3"/>
			<rect x="668.6" y="397.4" width="81.6" height="3.9"/>
			<rect x="709.3" y="386.9" width="33.1" height="20.5"/>
			<rect x="693" y="386.9" width="5.5" height="12.5"/>
			<rect x="681.3" y="386.9" width="6.1" height="12.5"/>
		</g>
		<g>
			<rect x="797.5" y="354.7" width="59.5" height="148"/>
			<rect x="795.8" y="352.1" width="62.9" height="4.2"/>
			<rect x="799.5" y="346.8" width="55.5" height="19.9"/>
			<rect x="828.8" y="338.7" width="22" height="21.7"/>
			<polygon points="838,344.8 850.8,344.8 850.8,333.3 841.6,333.3 			"/>
			<rect x="844.4" y="323.9" width="1.2" height="25.5"/>
			<path d="M843.9,322.5c0,0.7,0.5,1.3,1.1,1.3s1.1-0.6,1.1-1.3s-0.5-1.3-1.1-1.3S843.9,321.8,843.9,322.5z"/>
		</g>
		<rect x="848.8" y="441.6" width="26.7" height="61.1"/>
		<rect x="772.9" y="411.8" width="30.4" height="90.9"/>
		<polygon points="788.2,502.7 745.3,502.7 745.3,454.1 781.5,470.1 		"/>
		<rect x="866.8" y="476.3" width="65.4" height="26.4"/>
		<rect x="908" y="397.3" width="38" height="105.4"/>
		<rect x="937.1" y="483" width="62.9" height="19.7"/>
		<rect x="906" y="395.4" width="41.7" height="3.5"/>
		<rect x="940" y="380.5" width="0.8" height="21.2"/>
		<rect x="934.5" y="383.2" width="0.8" height="17"/>
		<polygon points="960,437 943.1,437 943.1,485.3 967.2,485.3 		"/>
		<path d="M340.1,475.8c-2.2,0-2.7-1.2-1.9-3c1-2.2,2-4.5,3.3-6.6c1.7-2.7,1.4-4-1.7-4.8s-6.2-1.5-9.3-2.1c-1.9-0.4-2.7-1.4-2.7-3.3
			c-0.6-21.5-1.2-43-1.9-64.5c-0.4-14.6-1-29.3-1.3-43.9c-0.1-4.7,0.5-9.5,0.9-14.2c0.1-1.2,1-2.5,1.8-3.6c2.8-4.4,5.7-8.8,8.5-13.3
			c0.6-0.9,0.7-1.1-0.5-2.6c-0.4-0.5-3-2.8-5.8-5.5c-1.2-4.4-4.3-7.7-8-8.2c-0.1-0.2-0.2-0.4-0.2-0.5c-0.5-5.6-1.2-25.3-1.2-30
			c-0.8,9.3-0.6,20.6-0.8,29.9c0,0.2,0,0.4-0.1,0.7c-3.7,0.7-6.6,4.1-7.7,8.5c-2.4,2.2-4.6,4-5.3,4.8c-1.1,1.3-1.3,1.7-0.5,3
			c3.1,4.8,6.2,9.6,9.2,14.5c0.4,0.6,0.8,1.5,0.8,2.2c0.4,4.5,1.1,9,1,13.5c-0.4,14.2-1.2,28.4-1.7,42.7c-0.5,13.1-0.7,26.3-1,39.4
			c-0.2,8.9-0.4,17.8-0.5,26.8c0,2.3-0.9,3.5-3.3,3.8c-3.3,0.5-6.6,1.2-9.8,2c-2.1,0.5-2.4,1.7-1.4,3.5c1.3,2.3,2.6,4.7,3.6,7.2
			c1.3,3,0.8,3.5-2.4,3.4c-2.8,0-5.6,0-8.4,0c0.2,8.2,0.5,16.5,0.8,24.7c18.9,0,37.8,0,56.8,0c0-7,0.1-14,0.2-20.9
			c0-1.3,0-2.5,0-3.8C346.4,475.8,343.2,475.8,340.1,475.8z"/>
		<path d="M183.8,483.4c-8.4-8.3-17.1-16.5-25.7-24.7c-5.8-5.5-11.4-11.2-17.3-16.5c-3.6-3.2-5.5-6.8-5.5-11.6
			c-0.1-13-0.3-27.1-0.5-40.1c-0.1-4.4-0.4-4.7-4.8-4.8c-3-0.1-6.2,1.9-8.5-1c-0.2-0.2-0.9-0.1-1.3,0c-5.8,1.6-11.7,1.5-17.5,0.1
			c-0.6-0.1-2.4,1.2-3.1,1.4c-1.9,0.5-3.9-0.2-5.6-0.5c-6.8-1.3-6,0.1-6.1,7.3c-0.2,13.4-0.6,28-1.1,41.4c-0.1,2.1-1.3,4.5-2.8,6
			c-5,5.1-10.4,9.8-15.6,14.7c-9.6,9.2-19.1,18.4-28.8,27.5c-0.7,0.7-1.6,1.4-2.5,1.9v11.3v3.9v3.2h150.3v-4.3v-2.9v-10.5
			C186.3,485.1,185,484.6,183.8,483.4z M91.1,481.2c2.7-10.7,5.4-21.3,8.3-32c1-3.6,3.5-6.1,6.6-8c6.2-3.9,13.6-0.3,16.3,5.6
			c2.3,5.2,3.5,10.9,5,16.4c1.6,5.7,3,11.5,4.4,17.2c1,4.2,0.1,5.3-4.1,5.3c-5.4,0-10.8,0-16.1,0c-5.6,0-11.1,0-16.7,0
			C91.4,485.7,90.3,484.5,91.1,481.2z"/>
		<rect x="-0.1" y="420.2" width="31.2" height="63.5"/>
		<rect x="3.3" y="412.9" width="24.3" height="8.6"/>
		<rect x="7.5" y="398.6" width="0.6" height="20.1"/>
		<rect x="9.7" y="401.9" width="0.6" height="20.2"/>
		<rect x="-0.1" y="499.7" width="1000.1" height="200.3"/>
		<rect x="678.4" y="410" class="st0" width="8" height="12.2"/>
		<rect x="695.5" y="410" class="st0" width="8" height="12.2"/>
		<rect x="712.7" y="410" class="st1" width="8" height="12.2"/>
		<rect x="729.8" y="410" class="st0" width="8" height="12.2"/>
		<rect x="678.4" y="431.2" class="st1" width="8" height="12.2"/>
		<rect x="695.5" y="431.2" class="st1" width="8" height="12.2"/>
		<rect x="712.7" y="431.2" class="st0" width="8" height="12.2"/>
		<rect x="729.8" y="431.2" class="st0" width="8" height="12.2"/>
		<rect x="678.4" y="448" class="st0" width="8" height="12.2"/>
		<rect x="695.5" y="448" class="st0" width="8" height="12.2"/>
		<rect x="712.7" y="448" class="st1" width="8" height="12.2"/>
		<rect x="729.8" y="448" class="st0" width="8" height="12.2"/>
		<rect x="678.4" y="469.2" class="st1" width="8" height="12.2"/>
		<rect x="695.5" y="469.2" class="st1" width="8" height="12.2"/>
		<rect x="712.7" y="469.2" class="st0" width="8" height="12.2"/>
		<rect x="729.8" y="469.2" class="st0" width="8" height="12.2"/>
		<rect x="779.1" y="417" class="st0" width="8" height="12.2"/>
		<rect x="779.1" y="432.3" class="st1" width="8" height="12.2"/>
		<rect x="779.1" y="447" class="st0" width="8" height="12.2"/>
		<rect x="779.1" y="462.3" class="st1" width="8" height="12.2"/>
		<rect x="790.8" y="417" class="st1" width="8" height="12.2"/>
		<rect x="790.8" y="432.3" class="st1" width="8" height="12.2"/>
		<rect x="790.8" y="447" class="st1" width="8" height="12.2"/>
		<rect x="790.8" y="462.3" class="st0" width="8" height="12.2"/>
		<rect x="806.6" y="361.3" class="st0" width="5.3" height="13.2"/>
		<rect x="818.6" y="361.3" class="st1" width="5.3" height="13.2"/>
		<rect x="830.5" y="361.3" class="st1" width="5.3" height="13.2"/>
		<rect x="842.5" y="361.3" class="st1" width="5.3" height="13.2"/>
		<rect x="818.6" y="383" class="st0" width="5.3" height="13.2"/>
		<rect x="830.5" y="383" class="st1" width="5.3" height="13.2"/>
		<rect x="842.5" y="383" class="st1" width="5.3" height="13.2"/>
		<rect x="830.5" y="405.5" class="st1" width="5.3" height="13.2"/>
		<rect x="842.5" y="405.5" class="st0" width="5.3" height="13.2"/>
		<rect x="842.5" y="428.1" class="st1" width="5.3" height="13.2"/>
		<rect x="251.3" y="366.9" class="st0" width="5" height="11.7"/>
		<rect x="262.5" y="366.9" class="st1" width="5" height="11.7"/>
		<rect x="273.7" y="366.9" class="st1" width="5" height="11.7"/>
		<rect x="284.9" y="366.9" class="st1" width="5" height="11.7"/>
		<rect x="251.3" y="386" class="st1" width="5" height="11.7"/>
		<rect x="262.5" y="386" class="st0" width="5" height="11.7"/>
		<rect x="273.7" y="386" class="st1" width="5" height="11.7"/>
		<rect x="251.3" y="406" class="st1" width="5" height="11.7"/>
		<rect x="262.5" y="406" class="st1" width="5" height="11.7"/>
		<rect x="251.3" y="425.9" class="st1" width="5" height="11.7"/>
	</g>
</g>
</svg>
