<?xml version="1.0" encoding="utf-8"?>
<!-- Generator: Adobe Illustrator 23.1.0, SVG Export Plug-In . SVG Version: 6.00 Build 0)  -->
<svg version="1.1" id="Layer_1" xmlns="http://www.w3.org/2000/svg" xmlns:xlink="http://www.w3.org/1999/xlink" x="0px" y="0px"
	 viewBox="0 0 1000 700" style="enable-background:new 0 0 1000 700;" xml:space="preserve">
<style type="text/css">
	.st0{fill:#555656;}
	.st1{fill:#FFFFFF;}
	.st2{fill:#ACADAD;}
</style>
<g id="Object">
	<g id="midel_1_">
		<polygon id="midel" class="st0" points="956.9,535.1 956.9,515.2 929,515.2 918.4,437 916.8,437 916.8,427.6 911.3,427.6 
			911.3,437 909.9,437 909.9,433.5 906,433.5 906,437 898,437 898,428.8 895.8,428.8 895.8,423.2 879.9,423.2 879.9,428.8 
			877.7,428.8 877.7,437 875.5,437 875.5,484 861.4,484 861.4,364.8 856.8,364.8 856.8,338.7 855.3,338.7 855.3,364.8 851.8,364.8 
			851.8,328.6 850.3,328.6 850.3,364.8 847.3,364.8 847.3,345.2 845.8,345.2 845.8,364.8 818.5,364.8 818.5,449.4 788.2,449.4 
			788.2,504.2 755.6,504.2 755.6,397.3 751.1,397.3 751.1,328.6 733.1,328.6 733.1,291.8 718,291.8 718,269.5 716,269.5 716,291.8 
			712.5,291.8 712.5,265.2 710.5,265.2 710.5,291.8 703.5,291.8 703.5,328.6 686.8,328.6 686.8,397.3 682.1,397.3 682.1,504.2 
			638.6,504.2 638.6,476.1 631.2,476.1 631.2,422.7 634.1,422.7 634.1,421.5 570.2,421.5 570.2,422.7 573.1,422.7 573.1,504.2 
			560.9,504.2 560.9,379.6 558.2,379.6 558.2,343.2 545.1,343.2 545.1,329.3 538,329.3 538,317.6 535.5,317.6 535.5,297.7 
			534.9,297.7 534.9,317.6 532.4,317.6 532.4,329.3 525.3,329.3 525.3,343.2 512.3,343.2 512.3,379.6 509.5,379.6 509.5,445.8 
			489.2,445.8 489.2,504.2 421.9,504.2 421.9,391.3 427.3,391.3 427.3,389.6 421.9,389.6 421.9,386.4 415,386.4 415,381.1 
			358.9,381.1 358.9,386.4 352.1,386.4 352.1,389.6 346.6,389.6 346.6,391.3 352.1,391.3 352.1,461.6 342.9,461.6 342.9,448.4 
			286.3,448.4 286.3,464.5 273.9,464.5 273.9,494.5 253.9,494.5 253.9,396.5 247.3,396.5 247.3,389.8 242,389.8 242,372.2 
			240.9,372.2 240.9,389.8 238.4,389.8 238.4,367.8 237.3,367.8 237.3,389.8 234.2,389.8 234.2,396.5 232.6,396.5 232.6,494.5 
			191.2,494.5 191.2,437 193.1,437 193.1,433.1 180.4,433.1 180.4,422.6 174.3,422.6 174.3,433.1 168.7,433.1 168.7,422.6 
			163.2,422.6 163.2,433.1 152.4,433.1 152.4,422.6 119.3,422.6 119.3,433.1 111.6,433.1 111.6,437 116,437 116,458.7 103.8,458.7 
			103.8,507.5 87,507.5 87,494.5 68.3,494.5 68.3,523 45.8,523 45.8,535.1 12.5,535.1 12.5,602.7 986.7,602.7 986.7,535.1 		"/>
		<g>
			<rect x="691.8" y="336.5" class="st1" width="6.6" height="22.9"/>
			<rect x="701.3" y="336.5" class="st2" width="6.6" height="22.9"/>
			<rect x="710.9" y="336.5" class="st1" width="6.6" height="22.9"/>
			<rect x="720.5" y="336.5" class="st2" width="6.6" height="22.9"/>
			<rect x="730" y="336.5" class="st1" width="6.6" height="22.9"/>
			<rect x="739.6" y="336.5" class="st1" width="6.6" height="22.9"/>
			<rect x="691.8" y="362.1" class="st2" width="6.6" height="22.9"/>
			<rect x="823.2" y="371.6" class="st1" width="6.6" height="22.9"/>
			<rect x="832.7" y="371.6" class="st2" width="6.6" height="22.9"/>
			<rect x="823.2" y="397.2" class="st2" width="6.6" height="22.9"/>
			<rect x="701.3" y="362.1" class="st1" width="6.6" height="22.9"/>
			<rect x="710.9" y="362.1" class="st2" width="6.6" height="22.9"/>
			<rect x="720.5" y="362.1" class="st1" width="6.6" height="22.9"/>
			<rect x="730" y="362.1" class="st1" width="6.6" height="22.9"/>
			<rect x="739.6" y="362.1" class="st2" width="6.6" height="22.9"/>
		</g>
		<g>
			<rect x="687.3" y="404.5" class="st1" width="7.7" height="10.9"/>
			<rect x="698.4" y="404.5" class="st2" width="7.7" height="10.9"/>
			<rect x="709.6" y="404.5" class="st1" width="7.7" height="10.9"/>
			<rect x="720.7" y="404.5" class="st2" width="7.7" height="10.9"/>
			<rect x="731.8" y="404.5" class="st1" width="7.7" height="10.9"/>
			<rect x="743" y="404.5" class="st1" width="7.7" height="10.9"/>
			<rect x="687.3" y="416.6" class="st2" width="7.7" height="10.9"/>
			<rect x="698.4" y="416.6" class="st1" width="7.7" height="10.9"/>
			<rect x="709.6" y="416.6" class="st2" width="7.7" height="10.9"/>
			<rect x="720.7" y="416.6" class="st1" width="7.7" height="10.9"/>
			<rect x="731.8" y="416.6" class="st1" width="7.7" height="10.9"/>
			<rect x="743" y="416.6" class="st2" width="7.7" height="10.9"/>
		</g>
		<g>
			<rect x="514" y="439.5" class="st1" width="19.9" height="7.7"/>
			<rect x="514" y="428.3" class="st2" width="19.9" height="7.7"/>
			<rect x="514" y="417.2" class="st1" width="19.9" height="7.7"/>
			<rect x="514" y="406.1" class="st2" width="19.9" height="7.7"/>
			<rect x="514" y="394.9" class="st1" width="19.9" height="7.7"/>
			<rect x="514" y="383.8" class="st1" width="19.9" height="7.7"/>
			<rect x="536.1" y="439.5" class="st2" width="19.9" height="7.7"/>
			<rect x="536.1" y="428.4" class="st1" width="19.9" height="7.7"/>
			<rect x="536.1" y="417.2" class="st2" width="19.9" height="7.7"/>
			<rect x="536.1" y="406.1" class="st1" width="19.9" height="7.7"/>
			<rect x="536.1" y="394.9" class="st1" width="19.9" height="7.7"/>
			<rect x="536.1" y="383.8" class="st2" width="19.9" height="7.7"/>
		</g>
		<g>
			<rect x="687.3" y="429.2" class="st1" width="7.7" height="10.9"/>
			<rect x="698.4" y="429.2" class="st2" width="7.7" height="10.9"/>
			<rect x="709.6" y="429.2" class="st1" width="7.7" height="10.9"/>
			<rect x="720.7" y="429.2" class="st2" width="7.7" height="10.9"/>
			<rect x="731.8" y="429.2" class="st1" width="7.7" height="10.9"/>
			<rect x="743" y="429.2" class="st1" width="7.7" height="10.9"/>
			<rect x="687.3" y="441.4" class="st2" width="7.7" height="10.9"/>
			<rect x="698.4" y="441.4" class="st1" width="7.7" height="10.9"/>
			<rect x="709.6" y="441.4" class="st2" width="7.7" height="10.9"/>
			<rect x="720.7" y="441.4" class="st1" width="7.7" height="10.9"/>
			<rect x="731.8" y="441.4" class="st1" width="7.7" height="10.9"/>
			<rect x="743" y="441.4" class="st2" width="7.7" height="10.9"/>
		</g>
		<g>
			<rect x="687.3" y="454" class="st1" width="7.7" height="10.9"/>
			<rect x="698.4" y="454" class="st2" width="7.7" height="10.9"/>
			<rect x="709.6" y="454" class="st1" width="7.7" height="10.9"/>
			<rect x="720.7" y="454" class="st2" width="7.7" height="10.9"/>
			<rect x="731.8" y="454" class="st1" width="7.7" height="10.9"/>
			<rect x="743" y="454" class="st1" width="7.7" height="10.9"/>
			<rect x="687.3" y="466.1" class="st2" width="7.7" height="10.9"/>
			<rect x="698.4" y="466.1" class="st1" width="7.7" height="10.9"/>
			<rect x="709.6" y="466.1" class="st2" width="7.7" height="10.9"/>
			<rect x="720.7" y="466.1" class="st1" width="7.7" height="10.9"/>
			<rect x="731.8" y="466.1" class="st1" width="7.7" height="10.9"/>
			<rect x="743" y="466.1" class="st2" width="7.7" height="10.9"/>
		</g>
		<g>
			<rect x="687.3" y="478.8" class="st1" width="7.7" height="10.9"/>
			<rect x="698.4" y="478.8" class="st2" width="7.7" height="10.9"/>
			<rect x="709.6" y="478.8" class="st1" width="7.7" height="10.9"/>
			<rect x="720.7" y="478.8" class="st2" width="7.7" height="10.9"/>
			<rect x="731.8" y="478.8" class="st1" width="7.7" height="10.9"/>
			<rect x="743" y="478.8" class="st1" width="7.7" height="10.9"/>
		</g>
	</g>
</g>
</svg>
