<?xml version="1.0" encoding="utf-8"?>
<!-- Generator: Adobe Illustrator 23.1.0, SVG Export Plug-In . SVG Version: 6.00 Build 0)  -->
<svg version="1.1" id="Layer_1" xmlns="http://www.w3.org/2000/svg" xmlns:xlink="http://www.w3.org/1999/xlink" x="0px" y="0px"
	 viewBox="0 0 1000 700" style="enable-background:new 0 0 1000 700;" xml:space="preserve">
<style type="text/css">
	.st0{fill:#BBBCBC;}
	.st1{opacity:0.29;fill:#BBBCBC;enable-background:new    ;}
	.st2{fill:#EBEDED;}
	.st3{opacity:0.29;fill:#EBEDED;enable-background:new    ;}
	.st4{opacity:0.52;}
	.st5{fill:#FFFFFF;}
	.st6{opacity:0.5;fill:#FFFFFF;enable-background:new    ;}
	.st7{opacity:0.33;fill:#FFFFFF;enable-background:new    ;}
	.st8{opacity:0.4;fill:#FFFFFF;enable-background:new    ;}
</style>
<g id="Object">
	<g id="back">
		<g>
			<polygon class="st0" points="803.3,508.9 725.7,508.9 716,291.4 803.3,309.5 			"/>
			<g>
				<rect x="273.1" y="343" class="st0" width="44.1" height="175.7"/>
				<rect x="280.3" y="330.4" class="st0" width="29.7" height="73.8"/>
				<rect x="286.9" y="322.4" class="st0" width="16.5" height="41"/>
				<polygon class="st0" points="300.8,343.5 289.5,343.5 289.5,315.6 293.6,315.6 297.6,315.6 300.8,315.6 				"/>
				<g>
					<polygon class="st0" points="294.4,331.3 293.2,331.3 293.2,303.4 293.6,303.4 294.1,303.4 294.4,303.4 					"/>
					<polygon class="st0" points="297.1,321.7 295.9,321.7 295.9,293.8 296.3,293.8 296.8,293.8 297.1,293.8 					"/>
				</g>
				<rect x="271.9" y="342.5" class="st0" width="46.5" height="1.9"/>
				<rect x="279.2" y="329.5" class="st0" width="31.9" height="1.8"/>
				<rect x="285.7" y="321.7" class="st0" width="18.4" height="1.4"/>
				<rect x="283" y="333.4" class="st1" width="1.4" height="7.7"/>
				<rect x="286.8" y="333.4" class="st1" width="1.4" height="7.7"/>
				<rect x="290.7" y="333.4" class="st1" width="1.4" height="7.7"/>
				<rect x="294.5" y="333.4" class="st1" width="1.4" height="7.7"/>
				<rect x="298.3" y="333.4" class="st1" width="1.4" height="7.7"/>
				<rect x="302.1" y="333.4" class="st1" width="1.4" height="7.7"/>
				<rect x="306" y="333.4" class="st1" width="1.4" height="7.7"/>
				<g>
					<rect x="277" y="350" class="st2" width="3.3" height="9.2"/>
					<rect x="283.6" y="350" class="st3" width="3.3" height="9.2"/>
					<rect x="290.2" y="350" class="st2" width="3.3" height="9.2"/>
					<rect x="296.8" y="350" class="st2" width="3.3" height="9.2"/>
					<rect x="303.4" y="350" class="st2" width="3.3" height="9.2"/>
					<rect x="310" y="350" class="st2" width="3.3" height="9.2"/>
					<rect x="277" y="364.3" class="st2" width="3.3" height="9.2"/>
					<rect x="283.6" y="364.3" class="st2" width="3.3" height="9.2"/>
					<rect x="290.2" y="364.3" class="st2" width="3.3" height="9.2"/>
					<rect x="296.8" y="364.3" class="st3" width="3.3" height="9.2"/>
					<rect x="303.4" y="364.3" class="st2" width="3.3" height="9.2"/>
					<rect x="310" y="364.3" class="st2" width="3.3" height="9.2"/>
					<rect x="277" y="378.6" class="st2" width="3.3" height="9.2"/>
					<rect x="283.6" y="378.6" class="st2" width="3.3" height="9.2"/>
					<rect x="290.2" y="378.6" class="st2" width="3.3" height="9.2"/>
					<rect x="296.8" y="378.6" class="st2" width="3.3" height="9.2"/>
					<rect x="303.4" y="378.6" class="st3" width="3.3" height="9.2"/>
					<rect x="310" y="378.6" class="st3" width="3.3" height="9.2"/>
					<rect x="277" y="392.9" class="st3" width="3.3" height="9.2"/>
					<rect x="283.6" y="392.9" class="st2" width="3.3" height="9.2"/>
					<rect x="290.2" y="392.9" class="st2" width="3.3" height="9.2"/>
					<rect x="296.8" y="392.9" class="st2" width="3.3" height="9.2"/>
					<rect x="303.4" y="392.9" class="st2" width="3.3" height="9.2"/>
					<rect x="310" y="392.9" class="st2" width="3.3" height="9.2"/>
					<rect x="277" y="407.2" class="st2" width="3.3" height="9.2"/>
					<rect x="283.6" y="407.2" class="st3" width="3.3" height="9.2"/>
					<rect x="290.2" y="407.2" class="st2" width="3.3" height="9.2"/>
					<rect x="296.8" y="407.2" class="st3" width="3.3" height="9.2"/>
					<rect x="303.4" y="407.2" class="st2" width="3.3" height="9.2"/>
					<rect x="310" y="407.2" class="st2" width="3.3" height="9.2"/>
					<rect x="277" y="421.5" class="st2" width="3.3" height="9.2"/>
					<rect x="283.6" y="421.5" class="st2" width="3.3" height="9.2"/>
					<rect x="290.2" y="421.5" class="st2" width="3.3" height="9.2"/>
					<rect x="296.8" y="421.5" class="st2" width="3.3" height="9.2"/>
					<rect x="303.4" y="421.5" class="st2" width="3.3" height="9.2"/>
					<rect x="310" y="421.5" class="st3" width="3.3" height="9.2"/>
					<rect x="277" y="435.8" class="st2" width="3.3" height="9.2"/>
					<rect x="283.6" y="435.8" class="st3" width="3.3" height="9.2"/>
					<rect x="290.2" y="435.8" class="st3" width="3.3" height="9.2"/>
					<rect x="296.8" y="435.8" class="st2" width="3.3" height="9.2"/>
					<rect x="303.4" y="435.8" class="st2" width="3.3" height="9.2"/>
					<rect x="310" y="435.8" class="st2" width="3.3" height="9.2"/>
					<rect x="277" y="450.1" class="st2" width="3.3" height="9.2"/>
					<rect x="283.6" y="450.1" class="st2" width="3.3" height="9.2"/>
					<rect x="290.2" y="450.1" class="st2" width="3.3" height="9.2"/>
					<rect x="296.8" y="450.1" class="st2" width="3.3" height="9.2"/>
					<rect x="303.4" y="450.1" class="st3" width="3.3" height="9.2"/>
					<rect x="310" y="450.1" class="st2" width="3.3" height="9.2"/>
					<rect x="277" y="464.4" class="st2" width="3.3" height="9.2"/>
					<rect x="283.6" y="464.4" class="st3" width="3.3" height="9.2"/>
					<rect x="290.2" y="464.4" class="st2" width="3.3" height="9.2"/>
					<rect x="296.8" y="464.4" class="st2" width="3.3" height="9.2"/>
					<rect x="303.4" y="464.4" class="st2" width="3.3" height="9.2"/>
					<rect x="310" y="464.4" class="st2" width="3.3" height="9.2"/>
					<rect x="277" y="478.7" class="st2" width="3.3" height="9.2"/>
					<rect x="283.6" y="478.7" class="st2" width="3.3" height="9.2"/>
					<rect x="290.2" y="478.7" class="st2" width="3.3" height="9.2"/>
					<rect x="296.8" y="478.7" class="st3" width="3.3" height="9.2"/>
					<rect x="303.4" y="478.7" class="st2" width="3.3" height="9.2"/>
					<rect x="310" y="478.7" class="st3" width="3.3" height="9.2"/>
					<rect x="277" y="493" class="st3" width="3.3" height="9.2"/>
					<rect x="283.6" y="493" class="st2" width="3.3" height="9.2"/>
					<rect x="290.2" y="493" class="st3" width="3.3" height="9.2"/>
					<rect x="296.8" y="493" class="st2" width="3.3" height="9.2"/>
					<rect x="303.4" y="493" class="st2" width="3.3" height="9.2"/>
					<rect x="310" y="493" class="st2" width="3.3" height="9.2"/>
				</g>
			</g>
			<g>
				<rect x="144.9" y="349.7" class="st0" width="70.9" height="158.9"/>
				<rect x="142.9" y="347.1" class="st0" width="75" height="4.2"/>
				<rect x="147.3" y="341.8" class="st0" width="66.2" height="19.9"/>
				<rect x="152.4" y="333.6" class="st0" width="26.2" height="21.7"/>
				<polygon class="st0" points="167.5,339.8 152.4,339.8 152.4,328.3 163.2,328.3 				"/>
				<rect x="158.5" y="318.8" class="st0" width="1.5" height="25.5"/>
				<path class="st0" d="M160.5,317.5c0,0.7-0.6,1.3-1.3,1.3s-1.3-0.6-1.3-1.3s0.6-1.3,1.3-1.3S160.5,316.8,160.5,317.5z"/>
			</g>
			<polygon class="st0" points="464.5,384.7 464.5,311.9 452.4,311.9 452.4,292.4 448,292.4 448,263.9 424,263.9 424,242.9 
				421.9,242.9 421.9,263.9 417.2,263.9 417.2,237.6 415.1,237.6 415.1,263.9 399.9,263.9 399.9,311.9 392.1,311.9 392.1,384.7 
				385.4,384.7 385.4,517.2 469.2,517.2 469.2,384.7 			"/>
		</g>
		<rect x="45.8" y="506.2" class="st0" width="927.9" height="87.6"/>
		<polygon class="st0" points="591.9,522.9 550.8,522.9 566.8,440.6 591.9,440.6 		"/>
		<g>
			<g class="st4">
				<rect x="174.3" y="462" class="st5" width="2.5" height="2.5"/>
				<rect x="179.2" y="462" class="st5" width="2.5" height="2.5"/>
				<rect x="174.3" y="467.8" class="st5" width="2.5" height="2.5"/>
				<rect x="179.2" y="467.8" class="st5" width="2.5" height="2.5"/>
				<rect x="174.3" y="473.4" class="st5" width="2.5" height="2.5"/>
				<rect x="184.8" y="462" class="st5" width="2.5" height="2.5"/>
			</g>
			<rect x="355.9" y="387.4" class="st6" width="1.7" height="9.4"/>
			<rect x="361.7" y="387.4" class="st6" width="1.7" height="9.4"/>
			<rect x="367.5" y="387.4" class="st6" width="1.7" height="9.4"/>
			<rect x="373.4" y="387.4" class="st6" width="1.7" height="9.4"/>
			<rect x="379.2" y="387.4" class="st6" width="1.7" height="9.4"/>
			<rect x="385" y="387.4" class="st6" width="1.7" height="9.4"/>
			<rect x="390.9" y="387.4" class="st6" width="1.7" height="9.4"/>
			<rect x="396.7" y="387.4" class="st6" width="1.7" height="9.4"/>
			<rect x="402.5" y="387.4" class="st6" width="1.7" height="9.4"/>
			<rect x="408.4" y="387.4" class="st6" width="1.7" height="9.4"/>
			<rect x="414.2" y="387.4" class="st6" width="1.7" height="9.4"/>
			<rect x="355.9" y="400.5" class="st6" width="1.7" height="9.4"/>
			<rect x="361.7" y="400.5" class="st6" width="1.7" height="9.4"/>
			<rect x="367.5" y="400.5" class="st6" width="1.7" height="9.4"/>
			<rect x="373.4" y="400.5" class="st6" width="1.7" height="9.4"/>
			<rect x="379.2" y="400.5" class="st6" width="1.7" height="9.4"/>
			<rect x="385" y="400.5" class="st6" width="1.7" height="9.4"/>
			<rect x="390.9" y="400.5" class="st6" width="1.7" height="9.4"/>
			<rect x="396.7" y="400.5" class="st6" width="1.7" height="9.4"/>
			<rect x="402.5" y="400.5" class="st6" width="1.7" height="9.4"/>
			<rect x="408.4" y="400.5" class="st6" width="1.7" height="9.4"/>
			<rect x="414.2" y="400.5" class="st6" width="1.7" height="9.4"/>
			<rect x="355.9" y="413.5" class="st6" width="1.7" height="9.4"/>
			<rect x="361.7" y="413.5" class="st6" width="1.7" height="9.4"/>
			<rect x="367.5" y="413.5" class="st6" width="1.7" height="9.4"/>
			<rect x="373.4" y="413.5" class="st6" width="1.7" height="9.4"/>
			<rect x="379.2" y="413.5" class="st6" width="1.7" height="9.4"/>
			<rect x="385" y="413.5" class="st6" width="1.7" height="9.4"/>
			<rect x="390.9" y="413.5" class="st6" width="1.7" height="9.4"/>
			<rect x="396.7" y="413.5" class="st6" width="1.7" height="9.4"/>
			<rect x="402.5" y="413.5" class="st6" width="1.7" height="9.4"/>
			<rect x="408.4" y="413.5" class="st6" width="1.7" height="9.4"/>
			<rect x="414.2" y="413.5" class="st6" width="1.7" height="9.4"/>
			<rect x="373.4" y="426.6" class="st6" width="1.7" height="9.4"/>
			<rect x="379.2" y="426.6" class="st6" width="1.7" height="9.4"/>
			<rect x="385" y="426.6" class="st6" width="1.7" height="9.4"/>
			<rect x="390.9" y="426.6" class="st6" width="1.7" height="9.4"/>
			<rect x="396.7" y="426.6" class="st6" width="1.7" height="9.4"/>
			<rect x="402.5" y="426.6" class="st6" width="1.7" height="9.4"/>
			<rect x="408.4" y="426.6" class="st6" width="1.7" height="9.4"/>
			<rect x="414.2" y="426.6" class="st6" width="1.7" height="9.4"/>
			<rect x="379.2" y="440.3" class="st6" width="1.7" height="9.4"/>
			<rect x="385" y="440.3" class="st6" width="1.7" height="9.4"/>
			<rect x="390.9" y="440.3" class="st6" width="1.7" height="9.4"/>
			<rect x="396.7" y="440.3" class="st6" width="1.7" height="9.4"/>
			<rect x="402.5" y="440.3" class="st6" width="1.7" height="9.4"/>
			<rect x="408.4" y="440.3" class="st6" width="1.7" height="9.4"/>
			<rect x="414.2" y="440.3" class="st6" width="1.7" height="9.4"/>
			<rect x="468.6" y="410.7" class="st7" width="4" height="10.1"/>
			<rect x="468.6" y="430.1" class="st7" width="4" height="10.1"/>
			<rect x="468.6" y="449.5" class="st7" width="4" height="10.1"/>
			<rect x="468.6" y="468.9" class="st7" width="4" height="10.1"/>
			<rect x="468.6" y="487.2" class="st7" width="4" height="10.1"/>
			<rect x="468.6" y="506.6" class="st7" width="4" height="10.1"/>
			<rect x="485.8" y="410.7" class="st7" width="4" height="10.1"/>
			<rect x="485.8" y="430.1" class="st7" width="4" height="10.1"/>
			<rect x="485.8" y="449.5" class="st7" width="4" height="10.1"/>
			<rect x="485.8" y="468.9" class="st7" width="4" height="10.1"/>
			<rect x="485.8" y="487.2" class="st7" width="4" height="10.1"/>
			<rect x="485.8" y="506.6" class="st7" width="4" height="10.1"/>
			<rect x="502.9" y="410.7" class="st7" width="4" height="10.1"/>
			<rect x="502.9" y="430.1" class="st7" width="4" height="10.1"/>
			<rect x="502.9" y="449.5" class="st7" width="4" height="10.1"/>
			<rect x="502.9" y="468.9" class="st7" width="4" height="10.1"/>
			<rect x="502.9" y="487.2" class="st7" width="4" height="10.1"/>
			<rect x="502.9" y="506.6" class="st7" width="4" height="10.1"/>
			<rect x="520" y="410.7" class="st7" width="4" height="10.1"/>
			<rect x="520" y="430.1" class="st7" width="4" height="10.1"/>
			<rect x="520" y="449.5" class="st7" width="4" height="10.1"/>
			<rect x="520" y="468.9" class="st7" width="4" height="10.1"/>
			<rect x="520" y="487.2" class="st7" width="4" height="10.1"/>
			<rect x="520" y="506.6" class="st7" width="4" height="10.1"/>
			<rect x="404.2" y="269.3" class="st6" width="3.3" height="8.9"/>
			<rect x="412.4" y="269.3" class="st6" width="3.3" height="8.9"/>
			<rect x="420.6" y="269.3" class="st6" width="3.3" height="8.9"/>
			<rect x="428.8" y="269.3" class="st6" width="3.3" height="8.9"/>
			<rect x="404.2" y="284.1" class="st6" width="3.3" height="8.9"/>
			<rect x="412.4" y="284.1" class="st6" width="3.3" height="8.9"/>
			<rect x="420.6" y="284.1" class="st6" width="3.3" height="8.9"/>
			<rect x="428.8" y="284.1" class="st6" width="3.3" height="8.9"/>
			<rect x="404.2" y="298.8" class="st6" width="3.3" height="8.9"/>
			<rect x="412.4" y="298.8" class="st6" width="3.3" height="8.9"/>
			<rect x="438.1" y="269.3" class="st6" width="3.3" height="8.9"/>
			<rect x="182.7" y="359.2" class="st8" width="2.1" height="8.1"/>
			<rect x="190.1" y="359.2" class="st8" width="2.1" height="8.1"/>
			<rect x="198.9" y="359.2" class="st8" width="2.1" height="8.1"/>
			<rect x="206.3" y="359.2" class="st8" width="2.1" height="8.1"/>
			<rect x="166.1" y="359.2" class="st8" width="2.1" height="8.1"/>
			<rect x="173.6" y="359.2" class="st8" width="2.1" height="8.1"/>
			<rect x="182.7" y="373.3" class="st8" width="2.1" height="8.1"/>
			<rect x="190.1" y="373.3" class="st8" width="2.1" height="8.1"/>
			<rect x="198.9" y="373.3" class="st8" width="2.1" height="8.1"/>
			<rect x="206.3" y="373.3" class="st8" width="2.1" height="8.1"/>
			<rect x="166.1" y="373.3" class="st8" width="2.1" height="8.1"/>
			<rect x="173.6" y="373.3" class="st8" width="2.1" height="8.1"/>
			<rect x="182.7" y="387.4" class="st8" width="2.1" height="8.1"/>
			<rect x="190.1" y="387.4" class="st8" width="2.1" height="8.1"/>
			<rect x="198.9" y="387.4" class="st8" width="2.1" height="8.1"/>
			<rect x="206.3" y="387.4" class="st8" width="2.1" height="8.1"/>
			<rect x="166.1" y="387.4" class="st8" width="2.1" height="8.1"/>
			<rect x="173.6" y="387.4" class="st8" width="2.1" height="8.1"/>
			<rect x="577.5" y="421.5" class="st6" width="3.3" height="12.6"/>
			<rect x="587.5" y="421.5" class="st6" width="3.3" height="12.6"/>
			<rect x="596.9" y="421.5" class="st6" width="3.3" height="12.6"/>
			<rect x="803.3" y="424.1" class="st7" width="2.5" height="7.1"/>
			<rect x="811.1" y="424.1" class="st7" width="2.5" height="7.1"/>
			<rect x="803.3" y="424.1" class="st7" width="2.5" height="7.1"/>
			<rect x="811.1" y="424.1" class="st7" width="2.5" height="7.1"/>
			<rect x="818.5" y="424.1" class="st7" width="2.5" height="7.1"/>
			<rect x="826.3" y="424.1" class="st7" width="2.5" height="7.1"/>
			<rect x="803.3" y="436.9" class="st7" width="2.5" height="7.1"/>
			<rect x="811.1" y="436.9" class="st7" width="2.5" height="7.1"/>
			<rect x="803.3" y="436.9" class="st7" width="2.5" height="7.1"/>
			<rect x="811.1" y="436.9" class="st7" width="2.5" height="7.1"/>
			<rect x="818.5" y="436.9" class="st7" width="2.5" height="7.1"/>
			<rect x="826.3" y="436.9" class="st7" width="2.5" height="7.1"/>
			<rect x="803.3" y="450.4" class="st7" width="2.5" height="7.1"/>
			<rect x="811.1" y="450.4" class="st7" width="2.5" height="7.1"/>
			<rect x="803.3" y="450.4" class="st7" width="2.5" height="7.1"/>
			<rect x="811.1" y="450.4" class="st7" width="2.5" height="7.1"/>
			<rect x="818.5" y="450.4" class="st7" width="2.5" height="7.1"/>
			<rect x="826.3" y="450.4" class="st7" width="2.5" height="7.1"/>
			<rect x="834.8" y="424.1" class="st7" width="2.5" height="7.1"/>
			<rect x="834.8" y="436.9" class="st7" width="2.5" height="7.1"/>
			<rect x="842.6" y="424.1" class="st7" width="2.5" height="7.1"/>
			<rect x="609" y="403.1" class="st7" width="2.7" height="11.1"/>
			<rect x="622.3" y="403.1" class="st7" width="2.7" height="11.1"/>
			<rect x="635.6" y="403.1" class="st7" width="2.7" height="11.1"/>
			<rect x="648.9" y="403.1" class="st7" width="2.7" height="11.1"/>
			<rect x="609" y="425.9" class="st7" width="2.7" height="11.1"/>
			<rect x="622.3" y="425.9" class="st7" width="2.7" height="11.1"/>
			<rect x="635.6" y="425.9" class="st7" width="2.7" height="11.1"/>
			<rect x="648.9" y="425.9" class="st7" width="2.7" height="11.1"/>
			<rect x="609" y="449.2" class="st7" width="2.7" height="11.1"/>
			<rect x="622.3" y="449.2" class="st7" width="2.7" height="11.1"/>
			<rect x="635.6" y="449.2" class="st7" width="2.7" height="11.1"/>
			<rect x="648.9" y="449.2" class="st7" width="2.7" height="11.1"/>
			<rect x="609" y="472.5" class="st7" width="2.7" height="11.1"/>
			<rect x="622.3" y="472.5" class="st7" width="2.7" height="11.1"/>
			<rect x="635.6" y="472.5" class="st7" width="2.7" height="11.1"/>
			<rect x="648.9" y="472.5" class="st7" width="2.7" height="11.1"/>
			<rect x="609" y="493.7" class="st7" width="2.7" height="11.1"/>
			<rect x="622.3" y="493.7" class="st7" width="2.7" height="11.1"/>
			<rect x="635.6" y="493.7" class="st7" width="2.7" height="11.1"/>
			<rect x="609" y="517.4" class="st7" width="2.7" height="11.1"/>
			<rect x="622.3" y="517.4" class="st7" width="2.7" height="11.1"/>
			<rect x="635.6" y="517.4" class="st7" width="2.7" height="11.1"/>
			<rect x="648.9" y="493.7" class="st7" width="2.7" height="11.1"/>
			<rect x="911.3" y="461.6" class="st7" width="2.7" height="6.4"/>
			<rect x="911.3" y="471.8" class="st7" width="2.7" height="6.4"/>
			<rect x="918.3" y="461.6" class="st7" width="2.7" height="6.4"/>
		</g>
	</g>
</g>
</svg>
