<?xml version="1.0" encoding="utf-8"?>
<!-- Generator: Adobe Illustrator 23.1.0, SVG Export Plug-In . SVG Version: 6.00 Build 0)  -->
<svg version="1.1" id="layer1" xmlns="http://www.w3.org/2000/svg" xmlns:xlink="http://www.w3.org/1999/xlink" x="0px" y="0px"
	 viewBox="0 0 595.3 538.7" style="enable-background:new 0 0 595.3 538.7;" xml:space="preserve">
<style type="text/css">
	.st0{fill:#FFFFFF;}
</style>
<g>
	<path class="st0" d="M319.9,497.5c-74.8,0-149.5,0-224.3,0c-10.9,0-14.6-3.2-14.7-14c-0.2-20.1-0.1-40.1,0.1-60.2
		c0.1-8.2,3.3-11.1,11.4-11.1c87.7,0,175.4,0,263.1,0c6.8,0,13.5,0.1,20.3,0c6.6-0.1,9.1-2.4,9.3-9.1c0.2-5.2-0.4-10.4-0.1-15.6
		c0.5-9.2,3-11.6,12.1-11.7c49.8-0.1,99.7-0.1,149.5,0c8.2,0,9.6,1,10.7,9c0.9,6.7,1.2,13.5,1.1,20.2c-0.1,23.5-0.6,47.1-0.8,70.6
		c0,2.7,0.5,5.4,0.6,8.1c0.4,9.5-3.5,13.6-12.9,13.8c-8.9,0.2-17.8,0.1-26.7,0.1C452.4,497.5,386.1,497.5,319.9,497.5
		C319.9,497.5,319.9,497.5,319.9,497.5z M353.1,485.9c0,0.1,0,0.1,0,0.2c5,0,10,0,15,0c11.8,0,13.8-1.9,14.2-13.6
		c0.3-8.6-2.6-11.8-11.1-11.8c-10.4-0.1-20.8,0-31.2,0.1c-2.7,0-5.5,0-8,0.9c-2.1,0.8-5,2.6-5.2,4.4c-0.7,4.8-0.9,10,0.1,14.7
		c0.4,2,4.1,4.6,6.5,4.8C340,486.3,346.6,485.9,353.1,485.9z M423,460.6c0,0,0,0.1,0,0.1c-5,0-10,0-15,0c-13.4,0.1-15.1,2-14,15.3
		c0,0.6,0.1,1.1,0.2,1.7c0.5,4.6,2.6,7.6,7.6,7.6c11.2,0,22.3,0.5,33.5-0.1c4.2-0.2,10.2,3.3,12.6-2.4c1.8-4.2,1.6-9.4,1.7-14.1
		c0.1-6.1-2-8-8-8.1C435.3,460.5,429.1,460.6,423,460.6z M488.6,460.6c0,0,0,0.1,0,0.1c-5.2,0-10.4,0-15.6,0
		c-9.9,0-10.3,0.4-10.5,10.5c0,0.8,0,1.5-0.1,2.3c-0.1,10,2.5,12.5,12.7,12.4c11.6-0.1,23.1,0,34.7-0.2c4.7-0.1,7.5-2.8,8.3-7.3
		c0.4-2.3,0.1-4.6,0.1-6.9c-0.1-7.6-2.9-10.5-10.4-10.8C501.3,460.4,494.9,460.6,488.6,460.6z M286.2,460.7c0-0.1,0-0.1,0-0.2
		c-5,0-10,0-15.1,0c-12.8,0.1-14.3,1.7-14.1,14.4c0,0.4,0,0.8,0,1.2c0.3,6.6,2.7,8.9,9.4,9c11,0.2,22,0.2,33,0.6
		c12.4,0.5,13.9-0.8,13.8-13.5c0-1.4-0.1-2.7-0.1-4.1c-0.2-4.9-2.7-7.4-7.7-7.4C298.9,460.8,292.5,460.7,286.2,460.7z M245.5,473.6
		c-0.1-11.3-1.5-12.7-12.6-12.7c-10.4,0-20.8-0.1-31.3,0c-9.9,0.1-11.7,1.9-11.8,11.9c0,1.3,0,2.7,0.1,4c0.5,6.7,2.1,8.7,8.9,8.9
		c11.9,0.3,23.9,0.5,35.8,0C244.3,485.3,245.6,483.5,245.5,473.6z M491.9,412c0,0,0-0.1,0-0.1c4.4,0,8.9,0,13.3,0
		c14.3-0.2,14.4-0.3,13.9-14.7c-0.3-7.2-2.6-9.6-10-9.7c-11.9-0.1-23.9-0.1-35.8,0c-7,0.1-9.2,2.5-9.5,9.5c-0.1,2.1-0.1,4.2,0,6.4
		c0.3,6.3,2.7,8.6,9.1,8.7C479.2,412.1,485.5,412,491.9,412z M161.6,485.8c0,0.1,0,0.1,0,0.2c1,0,1.9,0,2.9,0
		c4.3,0.1,9.9,0.5,10.7-4.4c1-6.2-0.1-12.7-0.8-19.1c-0.1-0.8-2.9-1.8-4.5-1.8c-13.5-0.2-27-0.4-40.4,0.2c-2.3,0.1-5.8,3.4-6.4,5.8
		c-1,4.1-0.6,8.8-0.1,13.2c0.4,3.3,2.1,6.1,6.4,6C140.1,485.7,150.9,485.8,161.6,485.8z M424.3,412.1
		C424.3,412,424.3,412,424.3,412.1c5.2-0.1,10.4-0.1,15.6,0c11.2,0.1,12.3-0.9,12.4-12c0-0.8,0-1.5,0-2.3c-0.1-7.5-2.5-10.1-10-10.2
		c-9.8-0.1-19.6-0.1-29.5,0c-15.5,0.1-16.4,1.2-15.4,17.1c0.3,5.2,2.5,7.7,7.8,7.6C411.6,411.9,418,412.1,424.3,412.1z M385.9,425.1
		c0,0.1,0,0.3,0,0.4c-4.6,0-9.2,0-13.9,0c-13.9-0.1-14,0.1-14,14.2c0,5.3,2,8.2,7.3,8.3c12.9,0.2,25.8,0.6,38.6,0.1
		c7.9-0.3,9.2-2.3,9.5-10.1c0.1-1.3,0.1-2.7,0-4c-0.1-6.7-1.9-8.7-8.6-8.8C398.7,425,392.3,425.1,385.9,425.1z M186.8,424.9
		c0,0.1,0,0.3,0,0.4c-4.6,0-9.3-0.2-13.9,0c-12.8,0.7-12.8,0.8-13.8,13.1c-0.6,6.7,1.7,9.4,8.4,9.5c12,0.2,23.9,0.2,35.9,0.1
		c9.2-0.1,10.8-1.8,10.9-10.9c0-1.5,0-3.1-0.1-4.6c-0.3-5.2-3.1-7.6-8.3-7.6C199.5,424.9,193.2,424.9,186.8,424.9z M456.7,447.8
		c0,0.1,0,0.2,0,0.3c5,0,10.1,0.2,15.1-0.1c2.1-0.1,5.8-1.2,6-2.3c1-5.5,1.8-11.3,1-16.8c-0.2-1.7-5.6-3.7-8.6-3.8
		c-12.9-0.4-25.8-0.2-38.7,0.1c-1.7,0-4.6,1.5-4.7,2.6c-0.6,5.6-1.5,11.6-0.1,16.9c0.6,2.1,6.7,3.6,10.4,3.8
		C443.5,448.9,450.1,448.1,456.7,447.8z M252.6,448C252.6,448.1,252.6,448.1,252.6,448c4.8,0,9.7,0,14.5,0c13.2,0,13.9-1,13.6-14.3
		c-0.1-5.5-2.3-8.3-7.9-8.3c-11,0-22-0.4-33,0c-14.3,0.5-14.1,0.7-14,14.9c0,5.4,2.4,7.8,7.7,7.8C239.8,448,246.2,448,252.6,448z
		 M319.7,425.3c0,0.1,0,0.1,0,0.2c-4.8,0-9.6,0-14.5,0c-13,0-13.1,0.1-13.2,13.3c0,7.4,1.7,9.2,9.1,9.3c10.2,0.1,20.4,0,30.6,0
		c15.1,0,15.1,0,14.8-14.9c-0.1-6.5-1.7-7.9-8.4-7.9C332,425.3,325.9,425.3,319.7,425.3z M518.9,448.1c0,0,0-0.1,0-0.1
		c6.8,0,13.5,0.4,20.2-0.2c2.2-0.2,5.7-2.6,6-4.5c0.8-4.7,0.6-9.6-0.2-14.3c-0.3-1.6-3.5-3.7-5.4-3.7c-13.7-0.3-27.3-0.1-41,0
		c-4,0-6.6,2.2-5.9,6.1c1.1,5.6-4.2,13.1,4.3,16.7c0.8,0.4,1.9,0.1,2.9,0.1C506.1,448.1,512.5,448.1,518.9,448.1z M119.6,448
		C119.6,448,119.6,448,119.6,448c4.4,0.1,8.9,0,13.3,0.1c13.2,0,14.1-0.9,14.1-14c0-0.8,0-1.5,0-2.3c-0.2-4.5-2.6-6.4-7.1-6.4
		c-10,0-20.1,0-30.1-0.4c-16.5-0.6-17.1,0.1-16.1,16.4c0.3,4.5,2.2,6.7,6.8,6.7C106.8,447.9,113.2,448,119.6,448z M93.7,472.3
		c-0.1,0-0.1,0-0.2,0c0,1.5,0,3.1,0,4.6c0,4.6,1,8.6,6.7,8.9c5.9,0.3,9.4-2.9,9.7-8.9c0.1-2.5,0.1-5-0.1-7.5
		c-0.3-6.5-3-8.6-10.3-8.5c-6.1,0.1-5.8,4.4-5.9,8.5C93.7,470.3,93.7,471.3,93.7,472.3z M545.1,473.1c0,0,0.1,0,0.1,0
		c0.1-1.3,0.2-2.7,0.2-4c-0.2-4.3-0.8-8.2-6.5-8.2c-5.8,0-8.8,2.4-9.1,8c-0.2,3.4-0.3,7,0.4,10.3c1,4.9,4.7,6.9,9.4,6.6
		c4.5-0.3,5.3-3.8,5.5-7.5C545.2,476.6,545.1,474.8,545.1,473.1z M529.4,400.1c0.4,0.2,0.9,0.4,1.3,0.6c0,1,0,1.9,0,2.9
		c0.3,6.3,2.5,8.4,8.3,8.5c5.8,0.1,6.5-4,6.5-8.1c0.1-3.8-0.2-7.7-1-11.4c-1.1-5.3-6.3-7.1-9.9-3.1
		C532.1,392.2,531.1,396.4,529.4,400.1z"/>
	<path class="st0" d="M125.2,293.1c-0.9-18.1,5.5-33.6,13.3-48.9c7.5-14.9,19.5-24.9,32.6-34.3c2.5-1.8,5-3.6,7.4-5.6
		c4.5-3.6,4.6-8-0.1-11.4c-8.7-6.3-18.5-11.5-26.3-18.8c-12.6-11.8-25.4-24-35.4-38c-10-13.9-17.7-29.7-24.7-45.4
		c-5.4-12.2-8.3-25.5-12.3-38.4c-0.4-1.3-0.9-2.9-0.5-4c1-2.4,2-5.6,4-6.6c3.2-1.7,6,0.3,7.2,3.7c2.5,7.5,5,15,7.1,22.6
		c5.3,18.5,12.9,36,23.2,52c15.7,24.4,35.3,45.2,60.6,60.1c4.1,2.4,7.1,2.1,10.5-1.8c14.5-16.4,45.9-12.8,55.2,7.2
		c1.4,3,2.1,6.6,4.4,8.7c3.7,3.3,8,6.4,12.6,8.2c12.5,4.9,22.6,12.8,32,22.1c11.9,11.6,19.7,26,24.4,41.4
		c4.1,13.3,4.5,27.6,2.4,41.8c-4.6,31.8-21.4,55.5-48.2,71.7c-19.5,11.8-41.3,15-64.1,12.2c-16.5-2.1-31.5-7.9-44.5-17.5
		c-13.7-10.1-24.6-23-31.5-39.1C128.7,321.2,124.2,307.6,125.2,293.1z M311.8,292.8c-1.6-49.9-40.3-87.4-90.7-87.6
		c-40.2-0.2-84.4,38.8-83.5,89.7c0.8,45.9,38.7,85.7,85.7,85.9C273.5,380.9,311.4,341.8,311.8,292.8z M225.3,182
		c-5-2.1-10.7-2-15.7,0.4c-2.7,1.3-5.4,2.6-7.9,4.2c-1.3,0.8-2,4.2-1.5,6c0.2,1,3.6,1.9,5.4,1.7c3.2-0.4,6.3-1.2,9.5-1.5
		c3.8-0.5,7.4,0.4,11.1,0.6c3.3,0.2,7.9-1.5,6.5-5.5C231.8,185.1,227.8,183.1,225.3,182z"/>
	<path class="st0" d="M70.7,334.5c-1.4,0.6-3,0.7-4.5,0.3c-1.4-0.4-2.6-0.8-3.4-1.6c-8-7.3-15.9-14.7-23.6-22.4
		c-3.2-3.2-3.2-8.4-0.1-11.7c10.4-11.1,20.7-22.3,31-33.5c3.8-4.1,7.5-8.2,11.5-12.1c2.6-2.5,5.7-3.1,8.8-0.3
		c2.1,1.9,4.6,3.4,6.8,5.3c4.9,4.3,9.5,8.9,14.4,13.2c6.4,5.5,7.2,12.6,0.9,19.5c-12.6,14-25.7,27.6-38.7,41.3
		C73,333.4,71.9,333.9,70.7,334.5z M101.4,285.2c0.9-1.2,0.9-2.9,0-4.1c-2.7-3.2-5.6-6.9-8.3-9.6c-4.4-4.4-8.2-4.4-12.5,0.1
		c-8.6,9.1-17,18.3-25.4,27.7c-3.5,4-3,8.7,0.9,12.2c1.9,1.7,4.1,3,5.8,4.8c4,4.1,7.3,3,10.8-0.7c8.3-8.9,16.7-17.6,24.9-26.5
		C98.8,287.9,100,286.8,101.4,285.2z"/>
	<path class="st0" d="M311.9,159.6c0.3,1.2,0.2,2.4-0.3,3.5c-0.9,1.9-1.7,3.9-3.3,4.9c-8.4,5.4-17,10.5-26,15
		c-6.9,3.4-11,1.8-15.1-4.9c-5.2-8.5-10.2-17.2-15.1-25.9c-4.3-7.7-8.2-15.6-12.6-23.3c-2.3-4-2.5-8,1.1-10.3
		c10-6.7,20.4-13,30.9-18.9c3.2-1.8,9.3,3,12.1,7.9c8.7,15.3,17.5,30.6,26.2,45.9C310.7,155.3,311.2,157.2,311.9,159.6z
		 M296.5,157.5c-0.2-0.8-0.4-2.7-1.3-4.1c-6.4-11.2-12.9-22.4-19.6-33.4c-2.5-4.1-6.4-5.2-11.1-3.3c-10.7,4.5-12.9,10.7-7.2,20.7
		c0.3,0.5,0.7,0.9,1,1.4c4.7,7.7,9.2,15.5,14,23.1c1.5,2.4,3.2,5,5.4,6.7C281.9,171.6,296.4,163.4,296.5,157.5z"/>
	<path class="st0" d="M393.7,225.4c12.5-0.6,13.6-0.1,16.1,11.4c1.8,8.3,2.7,16.8,3.5,25.2c0.7,7.4-2.6,11-10.2,12
		c-18.8,2.3-37.5,4.5-56.3,6.7c-5.1,0.6-9.1-1.4-10-6.6c-1.8-11-3.3-22.1-4.1-33.2c-0.2-2.2,2.7-5.2,4.9-6.7
		c2.3-1.6,5.4-2.1,8.2-2.5C362.5,229.5,379.1,227.3,393.7,225.4z M346.6,256.2c0,0.7-0.2,2.6,0,4.5c0.5,5.1,3.6,7.7,8.6,7.1
		c10.1-1.1,20.2-2.4,30.3-3.6c14.1-1.7,14.4-2.1,13.3-16.6c-0.5-7.3-2-9.2-9.2-8.6c-13.2,1.2-26.4,3-39.5,5.1
		c-1.7,0.3-3.3,3.5-4.1,5.7C345.4,251.3,346.2,253.2,346.6,256.2z"/>
	<path class="st0" d="M332.3,331.7c-0.5-6.1,4.1-8.2,8.3-10.6c10.6-5.9,21.1-11.8,31.8-17.5c5.4-2.9,10.9-5.8,16.5-8.1
		c6.5-2.6,10-1.4,13.6,4.7c4.8,8.1,9.3,16.4,13.6,24.9c3,6,0.3,11.2-6.2,14.6c-14.8,7.8-29.4,15.9-44.3,23.6
		c-3.3,1.7-7.2,2.8-10.9,3.2c-2.2,0.2-5.7-0.8-6.6-2.4c-5.5-9.4-10.4-19.2-15.4-28.9C332.2,334.1,332.4,332.8,332.3,331.7z
		 M394.5,311.8c-1.4-2.4-4.4-3.3-7-2.2c-1.2,0.5-2.2,1.1-2.8,1.4c-10.6,5.8-21.1,11.8-31.7,17.6c-5.7,3.1-6.8,6.2-3.8,12.1
		c0.9,1.7,1.8,3.4,2.6,5.1c2.7,5.4,7,6.8,12.4,4.1c6.6-3.4,13.3-6.7,19.9-10.3c5.1-2.7,10.1-5.6,14.8-8.8c1.4-1,2.9-3.8,2.5-5.1
		c-1.4-4.2-3.3-8.2-5.7-11.9C395.3,313.2,394.9,312.5,394.5,311.8z"/>
	<path class="st0" d="M135.2,200.4c0.4,2,0,4.1-1,5.9c-1.9,3.2-4.3,7.4-6.8,11.5c-2.2,3.6-4.9,6.9-7.3,10.4
		c-4.9,7.3-10.7,8.8-18.2,3.8c-11-7.3-21.6-15.2-32.6-22.5c-3.2-2.1-6.5-4.1-9.9-6c-8.7-5-10.3-9.3-5.5-17.8c4-7,8.3-13.8,12.9-20.5
		c5.5-8,11.1-8.6,19.1-3.1c13.5,9.2,27.2,18.1,40.6,27.5C130,192.1,134,194.4,135.2,200.4z M121.5,204.7c0.9-1.2,0.7-2.8-0.5-3.7
		c-1.5-1.1-2.8-1.9-3.9-2.6c-10.9-7.6-21.9-15.1-33-22.3c-1.8-1.2-6-2.1-6.7-1.2c-3.8,4.6-7,9.8-9.9,15c-0.5,0.9,1.4,3.9,2.9,5
		c10.9,7.9,21.9,15.7,33.1,23.2c1.6,1.1,5.4,1.5,6.4,0.5C113.7,214.8,117.8,209.5,121.5,204.7z"/>
	<path class="st0" d="M350.8,216.3c-3.1-1-5.5-1.6-7.8-2.6c-8-3.2-16.2-6.2-24-9.8c-6.1-2.8-7.2-8.4-4.4-14.5
		c3.3-7.1,5.7-14.6,8.8-21.7c3.6-8.3,7.4-16.4,11.2-24.6c1-2.1,1.8-4.2,3-6.2c2.3-3.9,5.7-6.9,10.4-5c9.8,3.9,19.6,7.9,29,12.7
		c5.8,3,6.7,8.3,4,14.4c-6.4,14.6-12.6,29.3-18.9,43.9c-1.4,3.2-2.9,6.4-5,9C355.3,213.8,352.7,215,350.8,216.3z M368.1,156.5
		c-1.5-1.7-2.9-4.2-5.1-5.6c-2.7-1.7-6.2-2.2-9.1-3.7c-3.7-2-6.3-1-8.2,2.3c-1.3,2.1-2.3,4.4-3.4,6.7c-4.1,9.1-7.9,18.4-12.2,27.4
		c-3.7,7.7-2.2,11.9,5.8,14.5c2,0.7,4.1,1.2,6.1,1.8c5.6,1.7,7.9,0.4,10.2-5.1c3-7.3,6.3-14.4,9.3-21.7
		C363.7,168,365.6,162.9,368.1,156.5z"/>
	<path class="st0" d="M149.9,297.4c-2-24.3,7.9-43,23.6-59.4c1.7-1.8,4-2.9,6-4.4c2.9-2.3,5.7-2.3,8.1,0.6c2.4,3.1,1.7,6.1-0.8,8.8
		c-4.8,5.2-10.6,9.8-14.2,15.8c-8.6,14.2-13.8,28.9-9.6,46.6c4.6,19.4,14.8,34,31.7,43.3c15.8,8.8,32.8,11.1,50.5,3.8
		c11.3-4.6,21.3-10.4,28.9-20.2c2.4-3,6.2-5.3,10-1.7c3.8,3.6,1.5,6.7-1.1,10c-16.6,21.2-39.2,30.4-65,27.9
		c-23.1-2.2-43.1-12.4-55.8-33.5C155,323.1,148.6,311.1,149.9,297.4z"/>
</g>
</svg>
