<?xml version="1.0" encoding="utf-8"?>
<!-- Generator: Adobe Illustrator 23.1.0, SVG Export Plug-In . SVG Version: 6.00 Build 0)  -->
<svg version="1.1" xmlns="http://www.w3.org/2000/svg" xmlns:xlink="http://www.w3.org/1999/xlink" x="0px" y="0px"
	 viewBox="0 0 595.3 538.7" style="enable-background:new 0 0 595.3 538.7;" xml:space="preserve">
<style type="text/css">
	.st0{fill:#FFFFFF;}
</style>
<g id="Layer_1">
</g>
<g id="dot">
</g>
<g id="sircle">
</g>
<g id="big">
	<g>
		<path class="st0" d="M508.2,307.3c-4.3,5.2-8.6,9.6-12.1,14.6c-5.1,7.5,1,19.3,10.1,20c4.2,0.3,8.4,0.3,12.6,0.3
			c3.2,0,4.5,1.4,4.4,4.8c-0.6,11.2-1.2,22.5,0,33.6c0.4,3.7-0.7,5.4-4,5.4c-3.5,0-7,0.2-10.5,0.1c-7.7-0.4-11.4,4.7-13.7,10.4
			c-2.4,5.9,0.6,10.6,4.5,14.8c2.2,2.4,4.4,4.7,6.7,7c1.9,1.8,1.6,3.3-0.1,5c-6.9,7-13.6,14.1-20.7,21c-7.2,7-7.4,6.9-14.8,0.1
			c-4.1-3.7-7.8-7.6-14.1-7.1c-6.7,0.6-12.8,6.4-13.1,13c-0.2,3.9-0.2,7.9-0.2,11.8c0,3.3-1.6,4.3-5.3,4
			c-11.2-1.1-22.5-0.5-33.8,0.1c-3.4,0.2-4.9-1.1-4.8-4.3c0.1-2.9-0.2-5.9,0-8.9c0.4-7.3-3.2-12.2-9.5-14.9c-6-2.5-11.2,0-15.7,4.2
			c-3,2.8-5.9,5.6-9.1,8.7c-2.6-2-5.1-3.9-7.8-6c-1.5,3.3-2.7,6.7-4.6,9.7c-1.6,2.6-3.4,5.8-5.8,6.8c-6.8,2.6-9.2,8.5-12.6,13.9
			c-10.1,16.3-33,24-50.7,17.4c-12.4-4.6-21.4-12.4-26.8-24.5c-0.9-2.1-3.4-3.8-5.6-4.9c-8.8-4.5-13.2-13.5-11.8-23
			c0.3-2,1.8-3.8,2.2-5.8c0.6-2.6,1.4-5.4,0.9-8c-0.7-3.8-2.3-7.3-3.6-11c-0.3-0.8-0.7-1.5-1.4-2.9c-4.2,4.2-8.2,8.1-12.1,12
			c-9.7,9.8-19.1,19.8-29.2,29.2c-3.7,3.4-8.5,5.8-13.3,7.7c-10.9,4.4-22.1,8.1-33.1,12.3c-14,5.4-27.8,11.1-41.8,16.5
			c-5.1,1.9-10.3,3.8-15.6,4.5c-12.9,1.8-25.7-13.9-18.8-28.6c3.6-7.7,6.2-15.9,9.2-23.9c4.2-10.8,8.5-21.6,12.6-32.5
			c3.2-8.2,6-16.6,9.4-24.7c2.3-5.5,4.3-11.1,8.9-15.5c16-15.4,31.6-31.1,47.4-46.8c3.6-3.6,6.9-7.4,10.3-11.1
			c1.9-2.1,1.9-4.2,1.1-7c-2.3-8.4-4.9-16.8-5.7-25.3c-0.9-8.6,0-17.4,0.4-26.1c0.2-4.8-0.4-5.7-5.3-5.7c-15.5,0-30.9,0.1-46.4-0.1
			c-14.6-0.1-26.4-6.2-34.9-17.9c-10.9-15-12-31.4-2.4-48.1c4.9-8.4,11.9-14.1,20.5-18c2.8-1.3,3.1-3.3,3-5.8
			c-0.3-4.5-0.7-9-0.7-13.5c0-14.6,4.5-27.9,12.9-39.8c16.6-23.6,39.7-33.9,67.9-31.3c18.8,1.7,34.8,10.4,47,25.2
			c2.5,3,4.4,6.5,7.2,9.3c1.3,1.4,3.8,2.1,5.8,2.1c5,0.1,10.1-0.9,15.1-0.6c19.2,1.3,34.5,9.7,45.3,25.9c1.1,1.7,3.8,2.8,5.9,3.2
			c7.4,1.5,14.9,2.6,22.4,3.8c0.3,0,0.6,0.1,0.8,0.2c8.6,2.6,10.1-0.1,14.2-4.2c17-17.1,34.1-34.2,51.2-51.2
			c10.4-10.3,20.2-21.2,31.4-30.5c15.6-12.8,33.7-16.1,53.4-10.3c12,3.6,22.2,10.4,29.4,20.1c11.4,15.3,15.3,32.5,10.1,51.7
			c-4,14.8-13.9,25-24.2,35.2c-23.4,23.3-46.7,46.7-70,70c-3.7,3.6-5,7-2.9,12.6c2.6,6.7,3.2,14.2,4.1,21.4c0.4,3.4,1.7,4.6,5,4.7
			c10.1,0.4,10.2,0.5,10.1,10.7c-0.1,6.3,0.6,11.7,6.6,15.6c7.5,4.9,13.1,1.9,18.6-2.6c1.8-1.5,3.3-3.4,5-5.1c3.7-3.6,5.4-3.5,9,0.2
			c5.2,5.3,10.4,10.6,15.6,15.9C501.6,300.4,505,303.9,508.2,307.3z M213.5,233c8.7,0,17.4,0,26.2,0c24,0,48.1,0.2,72.1-0.1
			c12.5-0.2,19.2-7.6,21.8-17c2.5-9.2-3.8-20.1-11.9-24.1c-12.7-6.3-28,1.7-30.8,15.5c-0.6,3-1.9,4.1-4.8,4c-1.5-0.1-3.1,0-4.6,0
			c-3.7,0-6.1-3.1-5.2-6.6c2.3-9.2,6.8-17.1,14.7-22.9c2.5-1.8,5.3-4.5,5.9-7.2c2.1-9.7,0-18.9-4.7-27.6
			c-5.9-10.7-14.7-17.9-26.4-21.2c-13.9-4-26.6-1.2-38.1,7.5c-7.4,5.6-12.3,12.8-15,21.7c-1.4,4.6-1.3,6.7,2.9,8.5
			c7.7,3.4,12.3,9.4,15.4,16.9c2.8,6.8,1.2,9.2-6,9.1c-0.9,0-2.3,0-3.2,0c-2.5,0-3.9-1.1-4.9-4c-3.1-8.7-13.6-14.6-22.2-7.2
			c-2.4,2.1-3.7,5.4-5.8,7.9c-1.1,1.3-2.6,2.7-4.1,3.2c-1.8,0.5-3.9,0.2-5.9,0.1c-4.5-0.2-5.9-1.8-4.4-6.2
			c2.9-8.7,7.2-16.4,16.6-19.9c3-1.1,5-3.3,5.8-6.7c1-4.2,2-8.5,3.8-12.4c4.1-8.9,9.9-16.5,17.7-22.6c5.5-4.4,5.5-6.6,0.9-12
			c-7.8-9.2-17.2-15.7-28.8-19.4c-16.8-5.4-32.4-2.3-46.8,6.3c-9.5,5.7-17,13.8-21.8,24.3c-5,11.1-6.9,22.4-5.3,34.4
			c0.4,3.1,1.9,4.8,5,5.3c12,2.1,21.7,8.1,29.3,17.5c5,6.3,7.8,13.6,8.4,21.6c0.1,1.3-1.1,3.8-1.9,3.9c-3.4,0.5-7,0.4-10.5,0.1
			c-0.8-0.1-1.8-1.6-2.2-2.7c-1.1-2.9-1.9-5.8-2.7-8.7c-2.8-9.8-17.4-17.9-26.6-17.2c-10,0.8-17.9,4.7-23.7,13.1
			c-7.5,10.8-6.1,28.5,3.8,36.8c6.1,5.1,13.1,8.3,21.5,8.3C149.1,232.9,181.3,233,213.5,233z M305.9,320.5
			C305.9,320.5,305.9,320.6,305.9,320.5c-12.4,0.1-24.7,0-37.1,0.1c-4.2,0-7.2,3.5-7.1,7.3c0.1,3.6,3.2,6.6,7.2,6.8
			c4.8,0.2,9.6,0,14.3,0.3c13.1,0.8,21.7,9.9,21.8,23c0,10.1,0.1,20.2,0,30.4c0,3.6,1.1,5.6,6.9,4.5c6.5-1.3,13.2-1.1,19.8,0.1
			c4.7,0.8,7.2-1.2,9.3-4.6c4.8-7.9,9.3-16.1,15.1-23.1c7.9-9.4,16.9-18,25.6-26.7c11-11,21.5-22.3,26.1-37.5c2.5-8.4,5-17,5.8-25.6
			c1.6-18.2-2-35.8-10-52.2c-3.9-8.1-8.1-16.5-13.7-23.4c-7.1-8.7-15.3-16.9-24.2-23.8c-7.9-6.1-17.1-10.8-26.3-14.8
			c-7.1-3.1-15-4.2-22.6-6.2c-3.6-1-4.9-0.1-5,3.7c-0.1,3.9,0.2,7.9,0.2,11.8c0,3,1.4,4.2,4.2,4.7c14.4,2.3,24.4,9.9,29.9,23.9
			c4.4,11.3,2.5,21.4-3.3,31.3c-7.4,12.5-19,17.3-33,17.4c-9.8,0.1-19.7,0.1-29.5,0c-3.2,0-4.6,1.4-4.6,4.5c0.1,4.8,0,9.6,0.1,14.5
			c0.1,5.5,4.6,10,10.1,10c13.5,0.1,27-0.1,40.5,0c6,0,12.1-0.2,18.1,0.5c10.2,1.1,18.4,10.6,18.6,20.8c0.3,11.7-9.4,22.7-22.8,22.6
			C328.9,320.4,317.4,320.5,305.9,320.5z M303.3,305.9C303.3,305.8,303.3,305.8,303.3,305.9c11.1-0.1,22.2-0.1,33.3-0.1
			c1.7,0,3.4,0,5.1-0.1c4.6-0.4,7.2-3.9,6.3-8.8c-0.5-2.7-2.7-4.8-5.4-5.2c-4.2-0.7-8.4-0.9-12.6-1c-10.8-0.5-15.1,0.1-36.1-0.3
			c-21.1-0.4-32.3-2.7-32.8-23.8c0.4-4.6,0-9.3,0.1-13.9c0.1-3.2-1.1-4.9-4.7-4.9c-22.6,0.1-45.3,0-67.9,0c-3.5,0-5.9,0.9-6,5.2
			c-0.2,5.3-1.5,10.7-1.2,15.9c0.5,8.1,1.2,16.3,3.3,24c2.2,8,5.1,16.3,9.9,22.9c7.6,10.5,16.7,20,25.7,29.5
			c13,13.6,26.5,26.7,34.7,44.1c0.9,1.8,3.9,3.7,6,3.8c8.4,0.4,16.9,0.1,25.3,0.2c2.3,0,3.9-0.9,3.8-3.4c0-11.1,0.1-22.2-0.2-33.3
			c-0.1-4.4-2.8-6.5-7.2-6.7c-4.5-0.2-9,0.2-13.5-0.3c-3.8-0.4-7.8-1.2-11.1-2.9c-9.8-4.9-13.2-14.4-10.9-24.4
			c2-8.4,10.1-16.3,20.1-16.3C279.4,305.9,291.3,305.9,303.3,305.9z M369.8,373.4c-1,0-1.3,0-2.3-0.1c-4.9,7.9-10.1,15.7-14.4,23.9
			c-1.2,2.2,0.1,5.9,0.7,8.8c0.5,3,1.1,5.6,2,8.8c1.4,5.4,1.7,9.4,5.8,12.8c2.3,1.9,4,2.4,6.6,0.4c2.5-1.9,5.4-3.9,8.4-4.6
			c17.7-4.5,33.5,5.2,37.2,22.8c0.9,4.1,2.5,4.7,6.3,5.2c1.1,0.1,2.2,0.1,3.3,0c3.5-0.3,5.5-0.7,5.4-4.5c0-1.7,0.3-3.4,1.1-5
			c3.7-7.4,8.1-13.8,16.4-17.1c7.9-3.1,15.4-3.9,22.9,0.2c9.6,5.2,9.5,5.2,15.6-1.1c2.3-2.4,2.3-4.3,0.4-7c-6.4-9-7.5-18.5-2.6-28.8
			c4.7-9.8,12.2-14.9,22.5-16.9c1.4-0.3,3.5-2.4,3.4-3.5c-0.3-3.6,2.2-7.9-2-10.8c-0.1-0.1-0.3-0.1-0.4-0.1c-3.3-1-6.7-1.8-9.9-3.1
			c-10.2-3.9-14.5-12.2-16.3-22.2c-1.4-7.6,0.9-14.5,5.4-20.5c1.9-2.6,1.9-4.6-0.3-6.6c-0.8-0.8-2-2.2-2.7-3c-2.5-2.9-5-3.3-8.4-0.7
			c-9.9,7.4-24.5,7-33.9-1.2c-3.8-3.3-6.7-7.6-10.3-11.9c-0.7,0.8-2.2,1.9-2.7,3.3c-2.1,6.1-3.8,12.3-5.6,18.4
			c-0.8,2.6,0.8,3.8,3,3.9c7.8,0.3,14.6,3,21.4,6.5c15.5,8,23.6,21.2,26.3,37.8c1.9,11.7-0.7,22.9-7.1,33
			c-5.7,9.1-13.5,16.4-23.4,20.4c-11.5,4.7-23.4,5.8-35.7,1.4c-16-5.6-26.4-16.2-32.2-31.9C372.6,378,371,375.7,369.8,373.4z
			 M508.9,103c-0.3-5.4-1.8-10.8-3.8-16c-2.8-7.1-7-13.7-13-18.7c-3.1-2.6-6.6-4.6-10.3-6.1c-3.7-1.5-7.6-2.5-11.6-3.2
			c-17.2-2.8-30.5,5.4-42.1,17.3c-2.6,2.7-2.8,4.8-0.1,7.5c7.7,7.6,15.3,15.2,23,22.8c10.8,10.8,21.6,21.6,32.4,32.5
			c2.5,2.5,4.7,2.7,7.1,0.1c1.7-1.9,3.6-3.6,5.2-5.4c5-5.7,9.3-12.2,11.7-19.4C508.7,110.6,509.1,106.8,508.9,103z M204.1,351.2
			c-1.3-2-2.3-3.7-3.5-5.1c-5.4-6.3-10.8-12.4-16.2-18.7c-2-2.4-4-2.9-6.3-0.6c-5.4,5.3-10.7,10.7-16.1,16c-11,11-22.1,21.9-32.9,33
			c-1,1-1.4,4.5-0.5,5.4c6.7,7,13.6,13.8,20.7,20.3c1.1,1,4.3,0.8,5.8-0.1c2.6-1.5,4.7-3.9,6.9-6.1c12.9-13,25.9-26.1,38.7-39.2
			C202,354.7,202.9,353,204.1,351.2z M129.1,466.6c5.4-2.1,10.3-4.1,15.2-6c8-3.1,16-6.4,24.2-9.2c4.8-1.7,5.7-3.7,2.1-7.3
			c-7.9-8-15.8-15.9-23.7-23.8c-8-8-16.1-16-24.2-24c-2.6-2.5-5-2.4-6.1,0.2c-1.6,3.6-2.8,7.3-4.2,10.9c-3.4,8.7-6.6,17.5-10.2,26.1
			c-1.7,4.1-1.3,7.4,2,10.6c6.5,6.4,12.8,13,19.3,19.3C125,464.9,127.2,465.5,129.1,466.6z M238.2,389.9c-0.8-1.7-1.1-3-1.8-3.9
			c-5.8-7-11.6-14-17.5-21c-2.6-3-5-1.4-7.1,0.8c-15.2,15.2-30.3,30.4-45.5,45.6c-2.7,2.7-2.5,4.9,0.1,7.5c6.1,6,12.2,12,18.2,18.1
			c3.3,3.3,4.7,3.2,7.9,0c13.9-13.7,27.8-27.3,41.6-41.1C235.8,394.2,236.9,391.8,238.2,389.9z M385.4,365.7
			c-0.4,0.1-0.7,0.2-1.1,0.3c1.8,5.2,2.6,11,5.4,15.5c10,16.4,28.6,23.7,47.7,14.9c18.8-8.7,26.1-34.6,14.5-51.7
			c-5.5-8.1-12.9-13.1-21.8-16.1c-9.6-3.2-20.2-0.1-26.3,7.3c-3.9,4.6-7.7,9.3-12.1,13.3C386.6,353.8,384.3,359,385.4,365.7z
			 M453.3,175c-0.8-1.4-1.3-2.8-2.2-3.7c-6.2-6.3-12.5-12.5-18.6-18.8c-2.5-2.6-4.7-2.5-7.2-0.1c-9,9-18.1,18-27.1,27
			c-1.7,1.7-2.1,3.7-0.4,6c5.4,7.6,10.7,15.4,15.9,23.2c2.2,3.3,3.7,3.7,6.5,0.9c10.4-10.4,20.8-20.9,31.1-31.4
			C452.1,177.4,452.6,176.2,453.3,175z M416.3,136.9c-0.8-1.3-1.8-2.1-2.9-3.1c-4.4-4.2-9.7-9.2-14.9-14.5c-4.8-4.8-6.3-6.6-9.4-3.6
			c-10.6,10.4-21.2,20.9-31.7,31.4c-2.8,2.8-2.2,4.2,1.1,6.4c7.6,5,15.3,9.9,22.5,15.3c2.6,2,4.6,2,6.6,0
			c9.2-9.1,18.3-18.2,27.3-27.4c0.6-0.6,0.9-1.3,1.3-2.1C416.8,138.6,416.8,137.7,416.3,136.9z M474.9,152.5
			c-0.3-0.5-0.7-1.7-1.5-2.5c-8.3-8.5-16.7-16.9-25.1-25.4c-9.3-9.3-18.5-18.8-27.9-28c-4.6-4.5-5.6-7-11.8-0.5
			c-0.9,0.9-2.2,1.7-2.5,2.8c-0.6,1.8-1.1,3.9-0.6,5.6c0.5,1.6,2.1,2.9,3.4,4.2c7.3,7.1,14.8,14.1,22.1,21.4
			c10.3,10.3,20.5,20.8,30.7,31.1c0.8,0.8,2,1.6,3.1,1.7C467.2,163.1,474.7,155.8,474.9,152.5z M298.1,436.9
			C298.1,436.9,298.1,436.9,298.1,436.9c-5.1,0-10.1-0.1-15.2,0c-7.2,0-14.3,0-21.5,0.2c-3.6,0.1-5.7,2.4-6.8,5.4
			c-1.2,3.3,0.7,5.9,3.3,7.5c1.8,1,4.3,1.4,6.4,1.4c22.2,0.1,44.4,0.1,66.6,0c1.4,0,2.8-0.1,4.2-0.4c3.3-0.7,6-4.2,5.7-7.3
			c-0.3-3.7-2.7-5.7-6.2-6.5c-1.2-0.3-2.5-0.2-3.8-0.3C320,436.9,309,436.9,298.1,436.9z M297.6,422.2
			C297.6,422.2,297.6,422.2,297.6,422.2c11.7-0.1,23.3,0,35-0.1c5,0,8.3-3.1,8.3-7.1c0-4.1-3.1-7-8.2-7.2c-4.8-0.2-9.6-0.1-14.3-0.1
			c-18.6,0-37.1,0.1-55.7,0c-3.8,0-6.6,1.7-8,5.1c-1.4,3.4,0.5,6.2,3.2,7.9c1.6,1,3.9,1.4,5.9,1.4
			C275.1,422.3,286.4,422.2,297.6,422.2z M322.1,467.3c-2.9-0.6-4.6-1.2-6.3-1.2c-12.1-0.1-24.1-0.1-36.2,0c-1.8,0-3.5,0.7-5.5,1.2
			c4.2,7.7,14.4,13.2,23.9,13C307.5,480,315.2,475.9,322.1,467.3z M96.4,456.4c-0.9,0.2-1.3,0.2-2.2,0.4c-2.2,5-4.7,9.9-6.4,15
			c-0.7,1.9-0.4,5.2,0.9,6.3c1.5,1.3,4.6,1.7,6.7,1.3c3.4-0.7,6.6-2.2,9.8-3.7c2-1,3.8-2.6,6.2-4.3
			C106,466.1,101.2,461.2,96.4,456.4z"/>
		<path class="st0" d="M399.6,363.8c-1-11.4,11.7-22,22.1-21.8c10.3,0.2,22.2,10.4,21.5,22.4c-0.6,11.4-10,21.1-21.1,21.6
			C409.8,386.6,399,375.1,399.6,363.8z M428.3,364.1c0-3.4-3.3-6.9-6.6-6.9c-3.8,0-7.1,3.2-7.1,6.8c0,3.7,3,6.8,6.5,6.9
			C424.7,371,428.2,367.6,428.3,364.1z"/>
	</g>
</g>
</svg>
