<?xml version="1.0" encoding="utf-8"?>
<!-- Generator: Adobe Illustrator 23.1.0, SVG Export Plug-In . SVG Version: 6.00 Build 0)  -->
<svg version="1.1" id="Layer_1" xmlns="http://www.w3.org/2000/svg" xmlns:xlink="http://www.w3.org/1999/xlink" x="0px" y="0px"
	 viewBox="0 0 595.3 538.7" style="enable-background:new 0 0 595.3 538.7;" xml:space="preserve">
<style type="text/css">
	.st0{fill:#FFFFFF;}
</style>
<g>
	<path class="st0" d="M390.2,23.1c7.7-0.3,14.8,2.9,20.6,8.7c19.8,19.7,39.5,39.5,59.3,59.2c30,30,60.1,60.1,90.2,90.1
		c6.7,6.7,10.3,14.5,9.7,24.1c-0.3,6.3-2.3,12.1-6.6,16.6c-9.9,10.4-20,20.6-30.3,30.6c-6.1,6-13.7,8.5-22.3,8
		c-3.6-0.2-3.5-0.1-4,3.5c-1.5,10.8-5.8,20.5-13.5,28.3c-8.3,8.5-16.7,16.8-25.1,25.2c-2.1,2.1-2.1,2.3,0,4.4
		c8.3,8.3,16.7,16.6,24.9,25c8.6,8.8,12.5,19.5,11,31.6c-1.7,14.7-9.2,25.7-23,31.8c-1.5,0.7-3.2,1.2-4.7,1.8
		c-2.6,1-2.7,1.3-1.7,3.9c2.3,6.1,3.2,12.4,2,18.8c-2.9,15.8-11.7,26.7-27.2,32c-8.7,3-17.2,2.3-25.7-0.6c-2.5-0.8-2.6-0.6-3.4,1.8
		c-3.6,11.6-10.9,20-22.1,24.8c-9.2,4-18.5,4.2-28,1.1c-3.1-1-5.9-2.7-8.8-4.2c-2.3-1.2-2.7-1-3.9,1.4c-1.9,3.8-3.7,7.8-6.4,11.1
		c-9.4,11.7-22.1,15.8-36.6,13.8c-8.2-1.1-15.3-4.9-21.3-10.7c-1.6-1.6-3.2-3.1-4.7-4.7c-1.3-1.3-2.4-1.4-3.8-0.2
		c-3.9,3.2-8.2,5.7-13.1,7.3c-6.6,2.1-13.3,2.6-20.1,1.2c-8.2-1.7-15.1-5.4-20.8-11.5c-5.2-5.6-8.7-12.1-9.9-19.7
		c-0.5-3-1.1-3.3-4-2.7c-5.7,1.2-11.2,0.4-16.7-1.1c-8.1-2.3-14.7-6.9-19.9-13.5c-4.1-5.2-6.5-11.2-7.7-17.7
		c-0.4-2.2-1.3-2.5-3.2-2.1c-10.4,1.9-19.8-0.6-28.6-6.5c-6.1-4.2-10.4-9.6-13.4-16.1c-3.1-7-4.4-14.3-2.9-21.9c0.4-2.2,0-3-2.3-3.4
		c-11.2-2.2-20.3-7.8-26.4-17.6c-5.7-9.2-7.6-19.1-5.2-29.8c1.8-8.1,5.7-14.8,11.7-20.5c1.1-1.1,2.2-2.2,3.3-3.3
		c1.4-1.3,1.2-2.5,0-3.8c-2.8-2.9-5.7-5.7-8.1-8.8c-6-7.5-9.1-16.3-10.2-25.8c-0.2-1.9-0.7-2.6-2.9-2.4c-8.8,0.8-16.5-1.6-22.9-7.9
		c-9.5-9.4-19.2-18.7-28.6-28.3c-6.9-7-9.8-15.6-8.4-25.4c0.9-6.6,4-12.3,8.8-17.1c13.6-13.5,27.1-27.1,40.7-40.7
		c12.6-12.6,25.1-25.1,37.7-37.7c6.7-6.7,13.3-13.5,20-20.2c13.1-13.1,26.2-26.1,39.3-39.2c4.5-4.5,9-9,13.7-13.3
		c9.7-9.1,25.5-10.4,36.3-2.6c4.7,3.4,8.7,7.7,12.9,11.8c6.5,6.4,12.9,12.9,19.3,19.3c3.3,3.4,5.6,7.5,7,12c0.7,2.1,1.8,2.5,3.6,2
		c5.2-1.5,10.6-1.5,15.9-0.7c9.5,1.4,18.1,5,25.3,11.4c2.5,2.2,4.9,4.5,7.3,6.9c1.4,1.4,2.5,1.5,3.9,0.1
		c5.7-5.7,11.4-11.4,17.1-17.1c1.2-1.2,1.5-2.4,1-4.2c-4-12.1-1.3-22.8,7.6-31.8c8.8-8.9,17.6-17.8,26.6-26.5
		C374.3,26,381.3,23,390.2,23.1z M259,431.1c11,0.1,20,3.5,27.5,10.6c7.1,6.8,11.5,15,12,24.9c0.2,3.8-0.3,7.7-0.3,11.5
		c0,1.1,0.2,2.5,0.9,3.2c3.1,3.3,6.3,6.7,9.8,9.7c7.3,6.5,18.1,6.2,25-0.3c7.1-6.6,7.8-19.3,0.1-26.9c-8.3-8.2-16.5-16.4-24.7-24.7
		c-11.4-11.4-22.7-22.7-34.1-34.1c-2.3-2.3-2.2-2.8,0-5.1c3.3-3.4,6.7-6.7,10.1-10.1c2.1-2.1,2.2-2.1,4.4,0
		c6.7,6.7,13.4,13.4,20.1,20.1c9.9,9.9,19.8,19.7,29.8,29.6s19.9,19.9,29.8,29.8c3.2,3.2,7,5,11.5,5.6c10.1,1.3,19.7-6.8,20.3-16.9
		c0.3-6.1-1.8-11.1-6-15.4c-9.9-9.9-19.8-19.8-29.7-29.7c-16.5-16.5-33-33-49.5-49.5c-2-2-2-2.4,0-4.3c3.6-3.6,7.2-7.1,10.7-10.7
		c1.5-1.5,2.5-1.5,4,0c11.6,11.7,23.2,23.3,34.9,34.9c19.4,19.4,38.9,38.8,58.3,58.3c5.5,5.5,11.9,7.3,19.5,5.2
		c6.9-1.9,12.5-9.3,12.7-16.5c0.2-6.7-2.2-11.9-6.9-16.6c-30.5-30.3-60.9-60.8-91.3-91.2c-2.5-2.5-2.5-2.5,0-5.1
		c3-3.1,6.1-6.1,9.1-9.1c2.9-2.9,3.2-2.8,6,0c7.3,7.4,14.5,14.8,21.8,22.1c9.5,9.5,19.1,18.9,28.7,28.4c9.3,9.3,18.6,18.6,27.9,27.9
		c5.6,5.6,12.1,7.5,19.9,5.1c6.3-2,11.9-9.1,12.4-15.7c0.5-6.7-2.2-11.9-6.8-16.4c-42.2-42.1-84.4-84.2-126.7-126.3
		c-2.3-2.2-4.4-4.6-6.6-6.9c-1.2-1.3-2.2-1.3-3.5,0.1c-3.8,4-7.8,7.9-11.7,11.8c-6.5,6.4-13,12.7-19.6,19c-4.2,4-8.2,8.2-14,10.3
		c-5.6,2-11,4.4-17.1,4.9c-8,0.7-15.8-0.1-23.1-3.3c-16.3-7.2-26.5-19.4-29.8-37.1c-2.9-16.2,1.7-30.4,12.8-42.2
		c9.5-10.1,19.6-19.8,29.4-29.6c10.1-10.1,20.2-20.2,30.3-30.3c1.8-1.9,1.8-2.3,0-4.2c-1.6-1.6-3.1-3.2-4.7-4.7
		c-4.3-4-9.4-6.6-15.2-7.3c-10.1-1.3-18.7,1.8-26,9.2c-17.9,18.2-36.1,36.1-54.1,54.2c-12.5,12.5-25,25-37.5,37.5
		c-14.3,14.3-28.7,28.7-43.1,43c-7.2,7.2-9.9,15.8-8.5,25.7c0.8,5.4,3.2,10.2,7.1,14.3c5,5.2,9.9,10.6,14.9,15.8
		c0.4,0.4,1.1,0.8,1.7,0.9c1.7,0.4,3.5,0.7,5.2,1c6.9,1.1,12.9,4.2,18.1,8.8c6.7,5.8,10.7,13.2,12.5,21.9c0.7,3.6,0.9,3.6,4.4,2.9
		c0.7-0.1,1.3-0.2,2-0.2c9.8-0.6,18.8,1.7,26.7,7.7c8.1,6.2,13.2,14.2,15,24.3c0.8,4.6,1,9.1,0.1,13.7c-0.3,1.6,0.2,2.5,1.9,2.7
		c2.1,0.3,4.3,0.7,6.3,1.5c14.3,5.3,23.2,15.3,25.9,30.5c0.3,1.7,1.2,2.4,2.9,2.1C255.3,431.3,257.5,431.2,259,431.1z M245,224.1
		c0,9.2,4.8,18.2,12.1,23c11.6,7.7,26.3,6.3,36.2-3.5c8.2-8.1,16.2-16.3,24.4-24.3c7.3-7.2,14.7-14.4,22-21.6c1-1,2-1.7,3.4-0.4
		c6.1,5.9,12.3,11.7,18.3,17.6c6,5.9,11.7,12,17.7,18c16.9,16.9,33.8,33.8,50.7,50.7c6.4,6.4,12.8,12.8,19.2,19.2
		c1.2,1.2,2.3,2.1,3.9,0.5c2-2.1,4.1-4,6.2-6.1c6.3-6.3,12.6-12.6,18.7-18.9c7.7-8,10.2-17.4,7.3-28.2c-1.4-5.1-4.3-9.2-7.9-12.9
		c-27.1-27-54.1-54.1-81.1-81.2c-5.5-5.5-11-11-16.5-16.5c-9.6-9.6-19.2-19.2-28.8-28.7c-2-2-2.7-2-4.7,0.1c-1.9,2-3.9,3.9-5.8,5.8
		c-14.1,14.2-28.2,28.3-42.4,42.5c-14.7,14.7-29.3,29.3-44,43.9C248,209,245.1,215.9,245,224.1z M549.2,203.6c0-3.1-1.3-5.4-3.2-7.3
		c-30.2-30.2-60.4-60.4-90.6-90.6c-8.1-8.1-16.2-16.2-24.3-24.4c-11.4-11.4-22.8-22.7-34-34.1c-4-4.1-10.4-4.4-14.6,0.1
		c-8.3,8.8-17,17.1-25.6,25.6c-2.5,2.5-3.7,5.2-3.3,8.8c0.4,3,2.4,4.9,4.3,6.8c4.7,4.7,9.4,9.2,14.1,13.9
		c17.4,17.4,34.9,34.8,52.3,52.2c14.3,14.3,28.6,28.6,42.9,42.9c13,13,26.1,26.1,39.1,39.1c4,4,8.2,4.2,12.7,0.8
		c0.8-0.6,1.6-1.3,2.3-2c2.7-2.7,5.3-5.6,8-8.3c5.5-5.4,11-10.8,16.4-16.2C547.7,208.7,549.3,206.4,549.2,203.6z M45.2,223.9
		c-0.2,0.1-0.4,0.2-0.6,0.3c1,2,1.7,4.3,3.2,5.8c9,9.2,18.1,18.3,27.3,27.4c2.8,2.7,6.2,3.6,9.8,1.9c1.8-0.9,3.4-2.3,4.9-3.7
		c34.4-34.3,68.7-68.6,103-103c7.5-7.5,15.1-15.1,22.6-22.6c7.5-7.5,15-14.9,22.5-22.5c4-4.1,4.2-8.7,0.6-13.1
		c-1-1.2-2.2-2.2-3.3-3.3c-7.8-7.9-15.6-15.8-23.4-23.7c-4.5-4.5-9.5-4.3-14,0.2c-18,18-36,36-54,54c-18.2,18.2-36.3,36.3-54.5,54.5
		c-13.7,13.7-27.3,27.3-41,40.9C46.4,218.9,45.1,221.1,45.2,223.9z M145,403.9c-0.2,5.5,3.8,11.1,10.1,14.5c6.6,3.6,13.9,3.2,19.7-2
		c6.1-5.3,12-10.9,17-17.1c7-8.6,4.9-20.6-4.7-26.7c-6.9-4.4-15.7-3.9-21.9,1.6c-5,4.5-9.7,9.3-14.4,14.1
		C147.4,392,145.1,396.4,145,403.9z M147.8,354.1c0.6-9.9-8.6-18.5-18.2-18.7c-9.6-0.1-18.8,8.6-18.8,18.5c0,9.2,7.9,18.5,18.5,18.6
		C139.8,372.6,148.4,363.1,147.8,354.1z M259.8,452.1c-10.6-0.1-18.7,7.8-18.8,18.3c-0.1,10,8.2,18.5,18.2,18.6
		c10.3,0.1,18.7-8.1,18.8-18.2C278,459.8,269.4,451.9,259.8,452.1z M211.6,417.8c-10.3-0.1-18.4,7.9-18.4,18.2
		c0,10.2,8.1,18.7,18,18.7c10.5,0.1,18.8-8.2,18.9-18.5C230.2,426.8,221.8,417.3,211.6,417.8z"/>
</g>
</svg>
