<?xml version="1.0" encoding="utf-8"?>
<!-- Generator: Adobe Illustrator 23.1.0, SVG Export Plug-In . SVG Version: 6.00 Build 0)  -->
<svg version="1.1" xmlns="http://www.w3.org/2000/svg" xmlns:xlink="http://www.w3.org/1999/xlink" x="0px" y="0px"
	 viewBox="0 0 595.3 538.7" style="enable-background:new 0 0 595.3 538.7;" xml:space="preserve">
<style type="text/css">
	.st0{fill:#FFFFFF;}
</style>
<g id="layer1">
	<g>
		<path class="st0" d="M315.2,42.7c8.5,1.2,15.6,5.4,22.6,10c6.7,4.3,12.4,9.6,17.5,15.4c3.2,3.6,5.9,7.7,8.4,11.9
			c3.1,5.1,6,10.4,8.6,15.7c1.6,3.3,3,6.9,3.9,10.5c2.2,8.1,4.8,16,5,24.5c0,2.3,0.5,4.7,0.9,7c0.6,3.7-0.5,5.2-4.3,5.3
			c-3.4,0.1-6.8,0-10.2,0c-1.9,0-3.7,0-4.5,2.2c-0.8,2.1,0,3.8,1.5,5.2c2.8,2.4,5.3,4.8,6.7,8.4c2,5.2,1.3,11.3-2.7,15.2
			c-1.8,1.8-4.2,3.1-6.1,4.8c-1.2,1.1-2.5,2.4-3,3.9c-3.7,10.2-8,20.1-15.8,28.1c-2.1,2.2-4.3,4.3-6.3,6.6c-0.6,0.7-1,1.8-1.2,2.8
			c-0.2,1-0.1,2.1,0.2,3.1c2,6.3,4,12.6,6.1,18.9c0.3,0.8,1,1.8,1.8,2.1c2.6,1.3,5.2,2.3,7.9,3.4c5,2,10,3.9,15,5.9
			c3.9,1.6,7.9,3.1,11.7,4.8c3.7,1.6,7.3,3.4,11,5.1c2.8,1.3,5.6,2.7,8.5,3.9c3.8,1.6,7.6,3.1,11.3,4.6c0.2,0.1,0.5,0.1,0.7,0.3
			c4,3.4,8.8,2.7,13.5,2.7c18.3,0,36.7,0,55,0c0.8,0,1.6,0,2.4,0.1c3.3,0.3,4,1.1,4,4.5c0,26.6,0,53.2,0,79.9c0,1.4,0,2.8,0,4.2
			c0,2.3,1.2,3.3,3.4,3.4c1.1,0.1,2.3,0.1,3.4,0c7-0.4,12.4,2.8,16.5,7.9c2.5,3.2,4.5,7,4.5,11.5c-0.1,10.2,0.2,20.4-0.1,30.6
			c-0.2,6.5-3.7,11.4-8.9,15.4c-4,3-8.3,3.3-12.8,3.3c-5.1,0-5.9,0.8-5.9,5.9c0,16.3,0,32.6,0,49c0,6.5-0.8,7.4-7.4,7.4
			c-118.7,0-237.4,0-356.1,0c-2.3,0-4.5,0-6.8,0c-3,0-4.4-1.4-4.5-4.5c-0.1-2.4,0-4.7,0-7.1c0-14.6,0-29.2,0-43.7
			c0-5.6-1.3-7.1-7-6.9c-7.9,0.3-14.1-2.7-18-9.4c-1.9-3.2-3-7.4-3.1-11.2c-0.4-9.4-0.4-18.9-0.1-28.3c0.3-7.7,3.6-13.8,10.7-17.6
			c3.2-1.7,6.4-2.5,10-2.5c0.8,0,1.6,0,2.4,0c4.3-0.3,5.1-1.2,5.1-5.5c0-27.1,0-54.1,0-81.2c0-4.9,0.5-5.4,5.4-5.4c20,0,40,0,60,0
			c2.8,0,5.4-0.5,7.9-2.2c2.2-1.5,4.9-2.3,7.4-3.3c3.9-1.7,7.8-3.3,11.7-5c3.8-1.7,7.5-3.5,11.2-5.3c0.4-0.2,0.8-0.4,1.2-0.6
			c6.9-2.7,13.7-5.3,20.6-8c5.6-2.2,11.3-4.1,16.7-6.7c1.9-0.9,3.4-3.3,4.2-5.4c1.7-4.4,2.6-9.2,4.1-13.7c1.7-4.9-0.9-7.7-4-10.8
			c-3.5-3.6-6.5-7.6-9.5-11.7c-4.6-6.2-6.8-13.6-9.8-20.7c-0.8-1.8-3.1-3.3-5-4.3c-4.9-2.5-6.8-7.1-7.7-11.9
			c-0.9-4.9,1.5-9.3,5.1-12.8c1.2-1.2,2.9-2.2,3.8-3.6c0.7-1.1,0.9-2.9,0.4-4c-0.4-1-2-1.9-3.2-2c-3.6-0.3-7.3-0.1-11-0.1
			c-4.1,0-5.2-1.5-4.7-5.5c0.6-4.4,1-8.8,1.6-13.2c1.1-7.3,2.7-14.5,5.8-21.3c0.2-0.5,0.4-1,0.5-1.5c1.2-5.3,3.7-10,6.5-14.6
			c2.7-4.4,5.1-8.9,8-13.1c2.4-3.5,5.2-6.8,8.3-9.7c4.7-4.4,9.7-8.5,14.8-12.3c2.8-2.1,6.1-3.5,9.3-5.1c4.2-2.1,8.4-3.7,13.2-4.6
			C294.1,39.9,304.3,40.1,315.2,42.7z M297.5,490.2C297.5,490.2,297.5,490.2,297.5,490.2c56.7,0,113.5,0,170.2,0
			c1.8,0,3.7,0.1,5.5,0c2.1-0.1,3.4-1.2,3.6-3.4c0.1-1,0.2-2.1,0.2-3.1c0-13.6,0-27.2,0-40.8c0-1.3-0.2-2.6-0.5-3.9
			c-0.4-2.2-1.9-3.2-4.1-3.1c-4.2,0.1-8.4,0.1-12.6-0.1c-8.6-0.3-13.5-9.1-9.3-16.6c1-1.7,1.2-3.1-0.2-4.8c-2-2.5-2.2-7.1-0.3-9.6
			c1.7-2.3,1.3-4.4,0-6.5c-1.4-2.3-1.8-4.8-0.7-7c1.8-3.5,1.9-6.3,0.1-10.1c-2.5-5.4,3.3-13.6,9.4-13.9c4.4-0.3,8.9-0.1,13.3-0.1
			c3.6,0,4.6-1,4.8-4.7c0-0.6,0-1.2,0-1.8c0-23.4,0-46.8,0-70.2c0-1.4-0.1-2.8-0.3-4.2c-0.4-3.1-1.3-3.8-4.5-3.9c-1,0-1.9,0-2.9,0
			c-90.6,0-181.2,0-271.8,0c-24.9,0-49.7,0-74.6,0c-3.8,0-4.5,0.7-4.9,4.5c-0.1,0.7-0.1,1.4-0.1,2.1c0,23.7,0,47.3,0,71
			c0,1.1,0.1,2.3,0.1,3.4c0.1,2.3,1.2,3.5,3.6,3.5c4.4,0,8.9,0.2,13.3,0.3c6.1,0.1,10.6,4.5,10.6,10.6c0,2.3-0.7,4.6-1,6.9
			c-0.1,1-0.1,2.1,0.2,3c1.1,3.7,1.2,7.3,0.3,11.1c-0.4,1.9-0.1,3.9,0,5.9c0.1,1.7,0.9,3.6,0.6,5.1c-1.3,5.1-0.6,10.1,0,15.1
			c0.7,5.9-4.5,11.2-10.5,11.1c-3.6-0.1-7.2,0-10.7,0c-5.4,0-6.4,1.1-6.4,6.5c0,14.2,0,28.5,0,42.7c0,4.4,0.7,5.1,5.2,5.2
			c0.5,0,1,0,1.6,0C182.3,490.2,239.9,490.2,297.5,490.2z M298.5,135.3c23.7,0,47.5,0,71.2,0c3.8,0,4.7-0.8,4-4.5
			c-1.2-6.9-2.5-13.9-4.2-20.7c-0.8-3.5-2.2-7-3.8-10.3c-2.7-5.4-5.4-10.9-8.8-15.9c-3.7-5.5-7.7-10.8-12.2-15.5
			c-6.7-6.9-14.5-12.3-23.6-15.9c-7.2-2.8-14.6-4.7-22.3-4.7c-9.6,0-18.8,2.5-27.4,6.7c-8.8,4.3-16.2,10.7-22.8,17.9
			c-5.6,6.2-9.9,13.4-13.8,20.8c-2.8,5.4-5.2,11.2-6.9,17.1c-1.9,6.5-2.9,13.2-4.1,19.9c-0.8,4.6-0.1,5,4.4,5
			C251.7,135.3,275.1,135.3,298.5,135.3z M299.2,143.1C299.2,143.1,299.2,143.1,299.2,143.1c-7,0-14,0-20.9,0
			c-5.4,0-6.5,1.1-6.5,6.4c0,3.6,0.1,7.2,0,10.7c-0.1,3.8-1.2,4.8-4.8,4.8c-2.7,0-5.4,0.1-8.1,0c-2.1-0.1-4.3-0.2-6.1-1
			c-3.9-1.7-7.6-3.7-11.4-5.8c-3.4-1.8-6.7-0.5-7.8,3.2c-1.6,5.4,1.4,9.9,7.3,10.9c2.4,0.4,3.5,1.5,3.7,3.9c0.1,1.5,0.4,2.9,1,4.3
			c1.6,4,3,8.2,5.2,11.9c2.8,4.8,6,9.5,9.5,13.9c4.2,5.2,9.6,9,15.7,11.9c5.8,2.8,11.7,5.3,18.3,5.5c7.1,0.2,13.9,0,20.8-2.6
			c6.3-2.3,11.8-5.5,16.8-9.6c4.9-3.9,8.9-8.7,12.2-14.1c4.3-6.9,7.5-14.2,9-22.2c0.3-1.7,1.1-2.7,3-3.1c2-0.4,3.9-1.2,5.6-2.2
			c2.5-1.5,3-4.1,2.7-6.9c-0.3-3-1.9-5-4.7-6c-0.5-0.2-1.3-0.3-1.7-0.1c-2.2,1.1-4.4,2.1-6.4,3.5c-4,2.6-8.2,4.6-13.1,4.4
			c-2.4-0.1-4.9,0-7.3,0c-4.3,0-5.3-0.9-5.3-5.4c0-3.8,0.1-7.7,0-11.5c-0.1-4-1.1-5-5-5C313.5,143.1,306.3,143.1,299.2,143.1z
			 M297.3,265.1c6.7-0.3,13.3,0.1,19.9-2.9c6.3-2.9,11.9-6.2,16.3-11.5c1.7-2.1,2.2-4.3,1.1-6.8c-0.7-1.6-1.1-3.3-1.6-5
			c-1.3-4.2-2.5-8.3-3.7-12.5c-0.6-2-1.9-2.4-3.6-1.3c-1,0.6-2,1.5-3.1,1.8c-5.9,1.9-11.7,4.1-18.1,4.4c-11.3,0.5-22-0.5-32.1-5.9
			c-2.4-1.3-3.5-0.7-4.2,1.9c-1.4,4.9-2.7,9.9-4.1,14.8c-0.2,0.7-0.5,1.5-0.9,2.2c-2.1,4.3-1.8,6.6,1.7,9.8
			c7.2,6.6,15.7,10.5,25.5,10.9C292.6,265.2,295,265.1,297.3,265.1z M477.4,428.4c4.8,0,9.6-0.2,14.4,0c7.9,0.3,13.6-6.7,13.7-14
			c0.1-7.6-0.1-15.2,0.1-22.8c0.1-3.6-0.5-6.8-2.1-10.1c-2.2-4.5-6-6.8-10.5-7c-10.3-0.4-20.6-0.2-30.9-0.2c-2.4,0-4.6,2-4.6,4.1
			c0,1.5,2.2,3.3,4.4,3.4c1.5,0.1,3,0,4.4,0.1c2.4,0.2,4.1,2.4,4,4.9c-0.1,2.4-1.3,3.5-4.1,3.7c-1.7,0.1-3.3-0.1-5,0.1
			c-1.7,0.2-3.6,0.4-3.7,2.8c-0.1,2.5,1.2,3.9,3.7,4.1c1.7,0.1,3.5,0,5.2,0.1c2.7,0.1,4.1,1.4,4.2,3.7c0.1,2.2-1.4,3.7-4,3.9
			c-1.5,0.1-3,0-4.4,0.1c-2.3,0.1-5,2-4.8,3.9c0.3,2.2,2,3.4,4.2,3.7c1.7,0.2,3.5,0.2,5.2,0.4c2.2,0.3,3.5,2,3.5,4.4
			c0,2.5-1.4,3.4-3.6,3.5c-1.9,0.1-3.9-0.1-5.7,0.1c-2.8,0.3-4.3,2.5-3,4.8c0.7,1.1,2.6,2.1,4,2.2
			C467.1,428.6,472.3,428.4,477.4,428.4z M117.3,428.5c4.8,0,9.6,0,14.4,0c1.3,0,2.6-0.2,3.9-0.5c1.9-0.4,2.3-1.8,2.3-3.5
			c0-1.7-0.9-2.6-2.5-2.8c-2.4-0.2-4.9-0.4-7.3-0.4c-2.3,0-3.3-1.1-3.4-3.4c-0.1-3.3,1.1-4.4,4.4-4.7c2.4-0.2,4.9-0.7,7.2-1.5
			c2.1-0.7,2.5-2.7,0.9-4.2c-1.3-1.2-3.2-1.9-5-2.4c-1-0.3-2.2,0.2-3.4,0.2c-3.1,0-4.3-1.1-4.2-4c0-2.8,1-3.6,4.1-3.7
			c2.3-0.1,4.5-0.1,6.7-0.5c1.9-0.3,2.6-2,2.2-3.6c-0.3-1-1.4-2.3-2.3-2.5c-2.2-0.5-4.5-0.5-6.7-0.5c-2.9,0-4-1.1-4-4.2
			c0-3,1.6-4.4,4.3-4.3c1.7,0.1,3.5,0.2,5.1-0.3c1.7-0.5,4.1-0.7,3.9-3.4c-0.1-2-2.4-3.6-5-3.9c-0.3,0-0.7,0-1,0
			c-9.7,0-19.4,0.1-29,0c-5.6-0.1-12.8,5.7-12.8,12.2c0,9.8,0,19.5,0,29.3c-0.1,7.2,6.8,13,13.3,12.6
			C108,428.2,112.6,428.5,117.3,428.5z M308.4,273.3c0,0.2,0,0.5,0,0.7c1,0.2,1.9,0.6,2.9,0.7c8.9,0.2,17.8,0.4,26.7,0.3
			c1.6,0,3.4-1.1,4.7-2.3c4.1-3.6,7.9-7.5,12-11.2c1.8-1.6,2-2.6-0.1-3.8c-3.2-1.7-6.5-3.2-10-4.3c-1.2-0.4-3.1,0.5-4.2,1.4
			c-1.5,1.2-2.6,2.9-4,4.4c-3.9,4.2-8.5,7.4-13.8,9.3c-4.3,1.5-8.7,2.7-13.1,4.1C309.1,272.7,308.7,273,308.4,273.3z M287.4,274
			c-0.1-0.2-0.2-0.3-0.2-0.5c-4.8-1.6-9.7-3.1-14.4-5c-3.2-1.3-6.4-3.1-9.2-5.2c-3.3-2.5-6-5.7-9.1-8.6c-0.7-0.6-1.7-1.6-2.3-1.5
			c-4.4,1.1-9.2,1.6-12.5,5.3c-0.4,0.4-0.3,1.8,0,2.1c4.6,4.4,9.3,8.7,14.1,12.9c1,0.8,2.5,1.4,3.8,1.4c7.1,0.1,14.3,0.1,21.4,0
			C281.8,274.9,284.6,274.3,287.4,274z M367.4,274.9C367.4,274.9,367.4,275,367.4,274.9c3,0.1,5.9,0,8.9,0.1c2.1,0,3.7-0.5,4.3-2.9
			c0.6-2.2-0.1-3.7-2.1-4.7c-3.3-1.7-6.5-3.6-9.9-5c-1.2-0.5-3.3-0.1-4.3,0.7c-3,2.6-5.7,5.5-8.5,8.4c-0.6,0.6-0.9,1.5-1.4,2.3
			c0.8,0.4,1.7,1,2.5,1.1C360.5,275,363.9,274.9,367.4,274.9z M228.3,275C228.3,275,228.3,275,228.3,275c3.1,0,6.3,0,9.4-0.1
			c0.9,0,1.8-0.7,2.7-1.1c-0.4-0.8-0.7-1.7-1.3-2.3c-2.6-2.7-5.4-5.1-7.9-7.8c-2-2.2-3.9-1.8-6-0.5c-1.1,0.7-2.3,1.1-3.5,1.7
			c-2.1,1-4.3,1.8-6.3,3c-2.6,1.6-2.2,5.2,0.7,6.4c1.1,0.5,2.4,0.7,3.5,0.7C222.6,275.1,225.5,275,228.3,275z M253.6,143.2
			c0,0,0-0.1,0-0.1c-2.2,0-4.4-0.3-6.5,0.1c-1.2,0.2-2.7,1.2-3.3,2.3c-1.3,2.2,0.2,5.4,2.5,6.6c1.2,0.6,2.7,1,3.7,1.9
			c3.5,2.9,7.5,3.2,11.6,2.4c1-0.2,2.4-1.5,2.5-2.4c0.3-2.5,0.2-5,0-7.5c-0.1-2-1.4-3.1-3.5-3.2C258.3,143.2,256,143.2,253.6,143.2z
			 M333.1,150.5c0,5.5,0.7,6.3,6.3,6.1c0.9,0,2,0,2.8-0.4c3.3-1.5,6.7-2.8,9.7-4.7c1.8-1.1,2.6-3.3,1.9-5.5
			c-0.7-2.3-2.4-2.9-4.7-2.9c-3.3,0.1-6.6,0-9.9,0c-5.1,0.1-6.2,1.2-6.2,6.1C333.1,149.7,333.1,150.1,333.1,150.5z"/>
		<path class="st0" d="M293.5,421.8c-17.9,0.6-31.1-14.2-30.8-30.9c0.4-17.5,13.2-30.1,30.7-30.4c15.2-0.3,30.4,13.1,30.4,30.7
			C323.8,408.4,309.1,422.7,293.5,421.8z M315.9,391.6c1-13.3-10.7-23.2-22.5-23.3c-11.3-0.2-22.7,9.6-22.7,23
			c0,13.3,11.3,22.3,21.8,23C304.1,415.1,316.9,403.8,315.9,391.6z"/>
	</g>
</g>
<g id="ger">
	<path class="st0" d="M298.4,466.5c-3.8,0-8.7,0-13.7,0c-2.4,0-3.3-1.3-3.6-3.6c-0.3-2.6-0.6-5.2-1.7-7.5
		c-3.4-7.3-11.7-11.4-19.7-10.3c-3.7,0.5-6.1,2.9-8.5,5.2c-2,1.8-3.7,1.7-5.3,0.2c-4.2-4-8.3-8.2-12.4-12.4c-1.3-1.3-0.5-4,1.2-6.1
		c1.5-2,3-4.1,4.2-6.2c1.5-2.5,1.4-5.1,0.2-7.8c-1.5-3.1-2.7-6.3-4.4-9.4c-2.2-4-6.2-4.7-10.3-5.1c-1-0.1-2.1-0.1-3.1-0.4
		c-2.9-0.8-3.8-2-3.9-5.1c0-4.6,0-9.2,0-13.9c0-3.5,0.8-4.5,4.2-5.3c1.5-0.4,3.1-0.6,4.6-0.8c6.1-0.5,9.5-4.1,11.3-9.6
		c0.2-0.6,0.3-1.2,0.6-1.7c4.3-6.7,1.2-11.9-3.3-16.8c-2.1-2.3-2-5.2,0.2-7.3c3.8-3.7,7.6-7.4,11.4-11.1c1.6-1.6,2.9-1.7,4.8,0.2
		c6.8,6.8,13,7.4,22.2,2.6c5.8-3,7.9-7.8,8-14c0.1-4.1,0.5-4.3,4.7-4.4c4.5,0,9.1,0,13.6,0c5.3,0,5.7,0.3,5.8,5.6
		c0,2.8,0.7,5.3,2.1,7.9c1.5,2.7,3.8,4.2,6.1,5.4c5.1,2.6,10.6,4.6,16.2,1.7c2.2-1.1,4.1-2.9,6-4.5c1.2-1,2.1-1.4,3.4-0.2
		c3.5,3.3,7.2,6.5,10.6,9.9c1.4,1.4,3.8,2.3,3.3,4.9c-0.3,1.4-0.9,2.9-1.8,4.1c-2.4,3.3-5.3,6.4-4.9,10.9c0.2,1.8,1,3.6,1.6,5.4
		c0.8,2.1,1.5,4.3,2.6,6.2c2.6,4.6,7.3,5.9,12,6.8c1.2,0.2,2.6,0.2,3.5,0.9c1,0.7,2,2.1,2.1,3.2c0.2,5.1,0.2,10.1,0.1,15.2
		c-0.1,3.2-1.5,4.6-4.6,4.9c-1.5,0.1-2.9,0.3-4.4,0.4c-5.1,0.5-8,3.8-9.9,8.1c-0.5,1-0.8,2.1-1.4,3.1c-2.5,4-2.4,9.4,0.4,13.2
		c1.1,1.5,2.3,3,3.5,4.5c1.9,2.5,1.8,4-0.4,6.2c-3.8,3.8-7.5,7.5-11.3,11.3c-2.2,2.2-3,2.2-5.2,0.1c-4.6-4.4-9.9-7.2-16.3-4.9
		c-4.4,1.5-9.3,3-11.7,7.5c-1.2,2.3-1.6,5.1-1.9,7.7C304.9,465.5,304,466.6,298.4,466.5z M343.4,347.5c-0.3-4.1-4.1-6.4-7.9-4.9
		c-4.2,1.7-8.3,4-13,3.1c-2.7-0.5-5.3-1.5-8-2.4c-8.4-2.7-14-8.1-16.1-16.9c-0.2-1-0.8-2.3-1.6-2.8c-3.1-1.8-7.5,0.3-8.2,3.8
		c-0.8,3.8-2.9,6.8-5.6,9.5c-3.8,3.9-8.8,5.4-13.7,7.2c-6.8,2.5-12.8,0.6-18.6-2.9c-0.6-0.4-1.5-0.7-2.1-0.5
		c-4.6,1.6-5.9,6-3.2,10.2c1,1.6,1.7,3.4,2.1,5.2c1.4,7.1-1.6,13.3-4.6,19.4c-0.9,1.9-2.6,3.4-4,5c-2.2,2.5-5.2,3.5-8.4,4.5
		c-2.5,0.7-4.5,2.4-4.8,5.3c-0.4,3.1,1.6,4.6,4,5.8c0.9,0.5,1.9,0.8,2.9,1.1c3.7,1.1,6.5,3.4,8.4,6.6c1.8,3,3,6.2,4.5,9.3
		c2.9,5.9,2.8,11.7-0.5,17.5c-0.9,1.5-1.4,3.4-1.4,5.2c0,2.8,4.7,5.9,6.8,4.6c5.6-3.5,11.5-5,17.9-2.5c2.9,1.1,5.7,2.4,8.7,3.5
		c6.4,2.4,9,7.9,11.1,13.7c1.2,3.4,1.3,3.8,4.8,3.8c3.9-0.1,5-0.8,5.5-4.1c0.6-4.1,2.8-7.2,5.6-9.7c2-1.8,4.6-3,7-4.2
		c8-4.1,16-5.1,24.1-0.2c1,0.6,3.2,0.8,4,0.2c1.6-1.4,4.5-2.4,3.6-5.5c-0.5-1.8-1.9-3.3-2.4-5.1c-3-9.3-0.5-17.7,4.8-25.4
		c3-4.3,7.1-7,12.4-7.9c2.4-0.4,3.1-2.6,3.3-4.8c0.2-1.8,0.3-3.6-1.7-4.5c-2-0.9-3.9-2.1-5.9-2.7c-3.2-1.1-5.6-3.2-7.4-5.9
		c-1.7-2.7-3.1-5.6-4.4-8.5c-2.9-6.4-3.3-12.9,0.4-19.2C342.5,350,342.9,348.7,343.4,347.5z"/>
</g>
</svg>
