<?xml version="1.0" encoding="utf-8"?>
<!-- Generator: Adobe Illustrator 23.1.0, SVG Export Plug-In . SVG Version: 6.00 Build 0)  -->
<svg version="1.1" id="Layer_1" xmlns="http://www.w3.org/2000/svg" xmlns:xlink="http://www.w3.org/1999/xlink" x="0px" y="0px"
	 viewBox="0 0 496.1 496.1" style="enable-background:new 0 0 496.1 496.1;" xml:space="preserve">
<g>
	<path d="M27.6,256.7c2.2-4.6,5-8.9,10.3-10.2c2.8-0.7,6.1-1,8.8-0.2c29.4,7.8,59.3,13.2,89.5,16.8c40.1,4.8,80.2,4.6,120-2.6
		c31.2-5.6,62.2-12.1,93.3-17.8c31.6-5.8,63.5-9.4,95.7-10.1c0.7,0,1.4-0.1,2.5-0.3c0-1.7,0-3.3,0-4.8c0-54.1,0-108.2,0-162.3
		c0-16.9-9.5-26.5-26.3-26.5c-19.4,0-38.7,0-58.1,0c-16.2,0-25.7,9.5-25.8,25.6c0,4.6-1.5,10.1,0.5,13.5c1.7,2.9,7.6,3.2,11.4,5
		c15.9,7.4,24.4,19.9,25.6,37.3c0.3,4.6-1.7,6.8-6.2,6.8c-24.4,0.1-48.8,0.1-73.2,0c-4.5,0-6-1.9-5.8-6.5
		c0.8-19.7,14.4-35.9,33.6-40.1c1.2-0.3,2.5-0.5,4.6-1c0-7.5-0.8-15.1,0.2-22.4c2.1-16.1,16.1-28.2,32.4-28.4
		c21.1-0.2,42.2-0.2,63.3,0c19.4,0.1,34.1,15,34.2,34.6c0.1,26.4,0,52.8,0,79.2c0,29,0,58,0,87c0,2.8,0.3,4.6,3.2,6.2
		c5.9,3.3,8.4,10.3,6.7,16.7c-1.8,6.9-7.2,11.5-14.3,11.5c-54.3,0.1-107.2,10.6-160.1,21C256,292,218.3,297.4,180,296.2
		c-47.6-1.5-94.4-8.6-140.5-20.7c-6.3-1.7-9.8-6-11.9-11.9C27.6,261.3,27.6,259,27.6,256.7z"/>
	<path d="M49.9,288.9c8.2,1.8,16,3.6,23.8,5.1c48.3,9.5,96.9,15,146.2,11.5c26.4-1.8,52.4-6.3,78.2-11.4c38-7.5,76-14.7,114.6-18.2
		c12.7-1.2,25.4-1.6,39-2.5c-0.6,2.1-1,3.4-1.4,4.6c-14.1,37.2-28.1,74.5-42.5,111.6c-2.8,7.1-6.7,14-11.2,20.2
		c-5.3,7.3-13.2,10.6-22.5,10.6c-84.1,0-168.1-0.1-252.2,0c-10.3,0-18.6-4-24.2-12.3c-3.8-5.6-7.1-11.8-9.6-18.2
		c-12.6-32.5-24.8-65-37.1-97.6C50.6,291.5,50.4,290.5,49.9,288.9z M301.7,390.3c13.8,0,27.5,0,41.3,0c2.6,0,5.2-0.1,7.7-0.7
		c12.1-2.7,19.2-11.4,23.6-22c8.3-20,15.8-40.2,23.5-60.4c1.7-4.5-1.4-8.6-5.5-7.3c-1.8,0.6-3.7,2.7-4.5,4.6
		c-3.5,8.5-6.5,17.1-9.9,25.6c-5,12.6-9.9,25.3-15.5,37.7c-4,8.9-11.4,12.8-21.5,12.7c-27.2-0.3-54.5-0.1-81.7-0.1
		c-1.6,0-3.5-0.5-4.6,0.3c-1.6,1.1-3.6,3.1-3.7,4.8c-0.1,1.5,2,3.4,3.6,4.5c1,0.7,2.8,0.3,4.2,0.3
		C273,390.3,287.4,390.3,301.7,390.3z"/>
	<path d="M359.5,457.6c-5.2-9-10.1-17.5-15.1-26.4c16.7-2.2,33.8,3.1,49.5-5.3c7.7,10.3,8.5,20.7,0.1,31.9c2.3,0,3.9,0,5.4,0
		c15.8,0,31.6,0,47.4,0c1.6,0,3.6-0.4,4.6,0.4c1.5,1.1,3.2,3.2,3.1,4.8c-0.1,1.6-2,3.4-3.6,4.5c-1,0.7-2.8,0.2-4.2,0.2
		c-130.4,0-260.9,0-391.3,0c-6.2,0-8.4-1.2-8.5-4.8c-0.1-3.7,2.3-5.2,8.6-5.2c17.1,0,34.1,0,51.9,0c-0.8-1.5-1.4-2.6-1.9-3.6
		c-4.1-7.9-4-15.7,0.5-23.3c0.6-0.9,2.1-1.9,3.2-1.9c8.4,0.4,16.8,1.3,25.2,1.6c7.7,0.3,15.4,0.1,24.1,0.1
		c-5.3,9.3-10.3,17.9-15.4,26.8C215.1,457.6,287,457.6,359.5,457.6z"/>
	<path d="M311.6,194.8c0,3.3,0.1,6.6,0,9.8c-0.1,3.3-2,5.1-5.1,5.1c-3,0-4.9-1.9-4.9-4.8c-0.2-6.8-0.1-13.7,0-20.6
		c0.1-3,1.9-4.9,4.9-4.9c3.2-0.1,5,1.8,5.2,5.1C311.7,187.9,311.6,191.3,311.6,194.8C311.6,194.8,311.6,194.8,311.6,194.8z"/>
	<path d="M327.3,194.3c0-3.2,0-6.3,0-9.5c0-3.2,1.6-5.3,4.9-5.4c3.4-0.1,5.2,2,5.2,5.5c0,6.4,0.1,12.9,0,19.3
		c-0.1,3.3-1.9,5.6-5.3,5.5c-3.3-0.1-4.7-2.4-4.8-5.5C327.3,200.9,327.3,197.6,327.3,194.3z"/>
	<path d="M301.5,154.7c0-3.1-0.1-6.3,0-9.4c0.1-3.2,1.7-5.2,5-5.3c3.2,0,5.1,1.9,5.1,5.1c0.1,6.6,0.1,13.1,0,19.7c0,3.3-1.9,5-5.2,5
		c-3.1,0-4.7-2-4.9-4.9C301.4,161.5,301.5,158.1,301.5,154.7C301.5,154.7,301.5,154.7,301.5,154.7z"/>
	<path d="M337.5,154.8c0,3,0,6,0,9c-0.1,3.4-1.5,6-5.2,6c-3.7,0-4.9-2.5-4.9-5.8c0-6.2,0-12.3,0-18.5c0-3.4,1.7-5.6,5.2-5.5
		c3.5,0.1,5,2.4,5,5.7C337.5,148.7,337.5,151.8,337.5,154.8z"/>
	<path d="M362.8,194.3c0,3.4,0.1,6.9,0,10.3c-0.1,3.2-1.9,5.2-5.1,5.2c-3.2-0.1-4.8-2.1-4.8-5.4c0-6.6,0-13.2,0-19.8
		c0-3.3,1.9-5.2,5-5.1c3,0,4.7,1.9,4.8,4.9C362.9,187.7,362.8,191,362.8,194.3z"/>
	<path d="M352.9,154.7c0-3.2,0-6.3,0-9.5c0-3.3,1.7-5.2,4.9-5.2c3.2,0,4.9,2,4.9,5.3c0,6.5,0.1,12.9,0,19.4c0,3.1-1.6,5.3-5,5.2
		c-3.3,0-4.9-2.1-4.9-5.3C352.9,161.3,352.9,158,352.9,154.7z"/>
</g>
</svg>
