<?xml version="1.0" encoding="utf-8"?>
<!-- Generator: Adobe Illustrator 23.1.0, SVG Export Plug-In . SVG Version: 6.00 Build 0)  -->
<svg version="1.1" id="Layer_1" xmlns="http://www.w3.org/2000/svg" xmlns:xlink="http://www.w3.org/1999/xlink" x="0px" y="0px"
	 viewBox="0 0 496.1 496.1" style="enable-background:new 0 0 496.1 496.1;" xml:space="preserve">
<g>
	<path d="M248,392.6c-60.2,0-120.4,0-180.7,0c-9.9,0-12,2.2-12.1,12c0,3-0.1,6.1-0.9,8.9c-2.1,7.4-9.5,12-17,11.1
		c-7.5-0.9-13.6-7.2-14.1-14.8c-0.3-4.7-0.1-9.4-0.1-14c0-32.3,0-64.6,0-96.9c0-48,34.9-83,82.8-83c95.2,0,190.4,0,285.5,0
		c39.6,0,71.9,26.3,79.8,65.1c0.9,4.6,1.5,9.3,1.5,13.9c0.1,37.6,0.1,75.3,0.1,112.9c0,7.9-4.2,13.8-11.2,16
		c-6.6,2.1-13.9,0-17.7-5.9c-1.8-3-3-6.8-3.1-10.3c-0.5-14.2-1.2-15.1-15.2-15.1C366.4,392.6,307.2,392.6,248,392.6z"/>
	<path d="M248.3,71.4c39.1,0,78.3,0,117.4,0c34.9,0,58.9,24,59,58.9c0,22.1,0,44.2,0,66.2c0,7.2-1.2,7.7-8.4,6.5
		c-8.5-1.5-17.2-2.4-25.8-3c-3.8-0.3-5.6-1.5-6.5-5.3c-4-17.7-15.8-26.9-34.1-26.9c-17.2,0-34.5,0-51.7,0
		c-17.8,0-29.7,9.4-33.6,26.8c-0.8,3.7-2.5,5.5-6.4,5.3c-6.9-0.2-13.7-0.2-20.6,0c-3.6,0.1-5.3-1.3-6.2-5
		c-4.3-18.2-15.7-27.2-34.3-27.2c-17.4,0-34.8,0-52.2,0c-17.1,0-29.3,9.7-32.8,26.5c-0.9,4.3-3,5.4-7.2,5.7
		c-8.8,0.6-17.6,1.8-26.3,3.2c-5.8,0.9-7.4,0.2-7.4-5.8c0-23.2-0.2-46.5,0-69.7c0.3-31.7,24.8-56.1,56.5-56.3
		C168,71.3,208.2,71.4,248.3,71.4z"/>
</g>
</svg>
