<?xml version="1.0" encoding="utf-8"?>
<!-- Generator: Adobe Illustrator 23.1.0, SVG Export Plug-In . SVG Version: 6.00 Build 0)  -->
<svg version="1.1" id="Layer_1" xmlns="http://www.w3.org/2000/svg" xmlns:xlink="http://www.w3.org/1999/xlink" x="0px" y="0px"
	 viewBox="0 0 566.9 566.9" style="enable-background:new 0 0 566.9 566.9;" xml:space="preserve">
<style type="text/css">
	.st0{fill:#B87333;}
	.st1{fill:#FFFFFF;}
</style>
<path class="st0" d="M77.6,566.9h411.5c42.9,0,77.7-34.8,77.7-77.7V77.7C566.8,34.8,532,0,489.1,0H77.6C34.7,0-0.1,34.8-0.1,77.7
	v411.5C-0.1,532.1,34.7,566.9,77.6,566.9z"/>
<g>
	<path class="st1" d="M155.9,111.4c7.8,0.9,14.4,3.2,20,8.3c22.3,20.1,39.8,43.7,52.8,70.8c6,12.6,2.6,23.7-9.8,33.3
		c-3,2.3-6.3,4.6-9.3,6.9c-10.4,8.1-14.2,18.7-10.5,31.3c5.7,19.2,16.5,35.6,29.7,50.4c16.9,19.1,37.7,32.8,60.8,42.9
		c13.2,5.8,26.5,6.9,38.1-9.7c5.6-8.1,12.3-14.7,22-17.4c11.1-3.1,21.6-0.3,30.5,5.7c19.3,13.1,38.5,26.6,56.7,41
		c14.5,11.5,15.7,26.2,4.8,44c-11.5,18.8-27.7,32-48.9,39.1c-12.2,4.1-23.4,1.5-34.3-3.1c-54.1-22.9-103.7-53.2-146.7-93.5
		c-44.7-41.8-79.1-90.9-103.9-146.7c-5.3-11.7-10.8-23.5-11.6-36.6c-1.7-28.2,12.9-49.8,41.3-61.1
		C143.4,114.6,149.7,113.3,155.9,111.4z"/>
	<path class="st1" d="M445.5,266.4c0,3.7,0.1,7.4,0,11.1c-0.3,7-2.7,9.6-8.5,10c-6.4,0.3-8.7-2-9.8-9.2c-2-13.2-3.4-26.6-6.4-39.7
		c-6.7-29.4-19.3-55.8-42.9-75.8c-18.9-16.1-41.3-25.4-65.1-31c-12-2.8-24.3-4.2-36.3-6.5c-7.5-1.3-10.4-7.9-5.6-13.8
		c1.8-2.2,5.6-3.8,8.5-3.8c25-0.7,49.1,4.2,71.5,15.4c41.8,20.9,71.2,53.1,86.9,97.4C442.9,235.2,445.5,250.6,445.5,266.4z"/>
	<path class="st1" d="M401.9,255c0,2.6,0.2,5.1,0,7.7c-0.4,5.7-3.2,8.4-8.7,8.7c-5.5,0.3-8.1-2-9.4-7.8c-2.9-13.4-5.3-27.1-9.2-40.2
		c-6.4-21.1-20.8-36-41.5-43.4c-14.1-5-28.8-8.2-43.4-12.1c-5.9-1.6-8.3-4.2-7.7-9.5c0.7-6.3,4-9.5,10.2-9.2
		c55.2,2.8,96.5,39.5,107,82.8"/>
	<path class="st1" d="M361.2,242.7c0,1.6,0,1.8,0,1.9c-0.1,8.7-3,13.1-8.9,13.6c-5.7,0.6-9.5-3.6-10.7-12.2
		c-1.6-11.2-5.5-21.5-15.3-27.5c-6.6-4-14.4-6-21.8-8.5c-4.4-1.5-9.4-1.8-9.4-8.1c0-5.6,3.7-9.4,10.3-10.3
		c10.4-1.3,19.6,2.2,28.1,7.8c14,9.3,23.8,21.7,27.4,38.5C361,240,361,242,361.2,242.7z"/>
</g>
</svg>
