<?xml version="1.0" encoding="utf-8"?>
<!-- Generator: Adobe Illustrator 23.1.0, SVG Export Plug-In . SVG Version: 6.00 Build 0)  -->
<svg version="1.1" id="Layer_1" xmlns="http://www.w3.org/2000/svg" xmlns:xlink="http://www.w3.org/1999/xlink" x="0px" y="0px"
	 viewBox="0 0 566.9 566.9" style="enable-background:new 0 0 566.9 566.9;" xml:space="preserve">
<style type="text/css">
	.st0{fill:url(#SVGID_1_);}
	.st1{fill:url(#SVGID_2_);}
	.st2{fill:url(#SVGID_3_);}
	.st3{fill:url(#SVGID_4_);}
	.st4{fill:url(#SVGID_5_);}
	.st5{fill:url(#SVGID_6_);}
</style>
<g>
	<linearGradient id="SVGID_1_" gradientUnits="userSpaceOnUse" x1="19.1967" y1="63.6854" x2="526.4031" y2="558.67">
		<stop  offset="0" style="stop-color:#FFD700"/>
		<stop  offset="0.5079" style="stop-color:#FFA500"/>
		<stop  offset="1" style="stop-color:#FFCC00"/>
	</linearGradient>
	<path class="st0" d="M283.4,546.2c-73.1,0-146.1-0.1-219.2,0.1c-12.8,0-24.1-3.1-33-12.7c-6.4-6.9-10-15-10.4-24.4
		c-0.1-2.8-0.1-5.5-0.1-8.3c0-97.1,0.1-194.2-0.1-291.3c0-7.2,2.2-11.9,8.1-16.1c25.3-17.9,50.2-36.4,75.3-54.5
		c3.2-2.3,4.5-4.8,4.4-8.7c-0.1-27.9-0.1-55.7-0.1-83.6c0-16.8,9.2-26,26-26c99.3,0,198.6,0,297.8,0.1c17.1,0,26.1,9.1,26.2,26.4
		c0,27.5,0.1,55-0.1,82.5c0,4.6,1.5,7.4,5.2,10c25.5,18.3,50.7,36.9,76.2,55.2c4.5,3.2,6.4,6.9,6.4,12.4
		c-0.1,98.9,0,197.9-0.1,296.8c0,25.9-16.2,42-42.3,42C430.3,546.2,356.8,546.2,283.4,546.2C283.4,546.2,283.4,546.2,283.4,546.2z
		 M36.6,219.5c-0.2,3.2-0.3,5-0.3,6.8c0,92.7,0,185.3,0,278c0,16.5,9.6,26.2,26.1,26.2c147.3,0,294.6,0.1,441.8,0
		c16.8,0,26.3-9.6,26.3-26.5c0-92.5,0-185,0-277.4c0-1.9-0.2-3.9-0.3-7.2c-54.6,40.7-108.2,80.6-162.1,120.8
		c45.7,51.4,90.8,102,136.6,153.5c-1.7,1.2-2.9,1.8-3.9,2.6c-9.6,8.4-7,8.5-15.3-0.8c-42-47.1-84-94.3-125.9-141.5
		c-1.3-1.5-2.1-3.4-3.2-5.1c-3,2.2-4.6,3.2-6,4.3c-18.6,13.9-37.3,27.8-55.9,41.7c-11.1,8.3-11.1,8.3-22.3-0.1
		c-18.5-13.8-37-27.6-55.5-41.3c-1.7-1.3-3.5-2.4-5.5-3.8c-45.8,51.5-91.3,102.6-137,153.9c-4.1-3.7-7.6-6.9-11.6-10.5
		c45.5-51.1,90.7-101.9,136.2-153C144.5,299.9,91.1,260.1,36.6,219.5z M460,156.2c-0.5,0.2-1.1,0.5-1.6,0.7c0,2.1,0,4.3,0,6.4
		c0,22.3,0,44.7,0,67c0,1.9-0.4,5.5-1,5.6c-4.1,0.6-8.4,0.9-12.5,0.3c-0.9-0.1-1.8-4.3-1.8-6.6C443,169.5,443,109.3,443,49.1
		c0-11-2-13.1-12.7-13.1c-98,0-196,0-293.9,0c-10.5,0-12.5,2.1-12.5,12.7c0,59.6,0,119.2,0,178.8c0,10.1,1.4,8.8-9.1,9.3
		c-5.3,0.2-6.5-1.7-6.4-6.6c0.2-22.5,0.1-45,0.1-67.5c0-2-0.2-4.1-0.4-7.3c-22.7,16.5-44.2,32.2-66.2,48.2c2.6,2,4.3,3.4,6,4.7
		c76.8,57.2,153.6,114.3,230.3,171.7c4.3,3.2,6.8,2.9,10.9-0.1c76.7-57.3,153.6-114.5,230.4-171.7c1.7-1.3,3.4-2.7,5.9-4.6
		C503,187.5,481.5,171.8,460,156.2z"/>
	<linearGradient id="SVGID_2_" gradientUnits="userSpaceOnUse" x1="-65.0163" y1="149.9778" x2="442.1901" y2="644.9624">
		<stop  offset="0" style="stop-color:#FFD700"/>
		<stop  offset="0.5079" style="stop-color:#FFA500"/>
		<stop  offset="1" style="stop-color:#FFCC00"/>
	</linearGradient>
	<path class="st1" d="M260.1,458.8c29.3,0,58.7,0,88,0.1c2.2,0,6.2,0.8,6.3,1.6c0.5,4.3,0.3,8.7-0.3,13c-0.1,0.6-3.6,1.1-5.5,1.1
		c-32.1,0.1-64.2,0.1-96.3,0.1c-27.1,0-54.2-0.1-81.3,0.1c-5.4,0.1-7.6-1.1-7.2-7c0.6-9.5-1.3-9,8.9-9
		C201.8,458.8,231,458.8,260.1,458.8C260.1,458.8,260.1,458.8,260.1,458.8z"/>
	<linearGradient id="SVGID_3_" gradientUnits="userSpaceOnUse" x1="-57.4911" y1="142.2667" x2="449.7153" y2="637.2513">
		<stop  offset="0" style="stop-color:#FFD700"/>
		<stop  offset="0.5079" style="stop-color:#FFA500"/>
		<stop  offset="1" style="stop-color:#FFCC00"/>
	</linearGradient>
	<path class="st2" d="M307.2,506.3c-29.5,0-59,0-88.6-0.1c-2.3,0-6.3-1.1-6.5-2.1c-0.6-4.1-0.1-8.3,0.4-12.5c0.1-0.5,2.6-0.9,4-0.9
		c60.5,0,121,0,181.5-0.1c3.6,0,4.9,1.1,4.8,4.8c-0.3,12.4,1.3,10.8-10.4,10.8C364,506.4,335.6,506.3,307.2,506.3
		C307.2,506.3,307.2,506.3,307.2,506.3z"/>
	<linearGradient id="SVGID_4_" gradientUnits="userSpaceOnUse" x1="-2.957" y1="86.3861" x2="504.2494" y2="581.3707">
		<stop  offset="0" style="stop-color:#FFD700"/>
		<stop  offset="0.5079" style="stop-color:#FFA500"/>
		<stop  offset="1" style="stop-color:#FFCC00"/>
	</linearGradient>
	<path class="st3" d="M386.8,474.7c-1.7,0-3.3,0-5,0c-12-0.2-10.5,2.1-10.8-11c-0.1-3.6,1.2-5,4.8-4.9c7.4,0.1,14.7,0.2,22.1,0
		c4-0.1,5,1.6,4.9,5.3c-0.3,12.3,1.4,10.4-10.5,10.6C390.5,474.7,388.7,474.7,386.8,474.7z"/>
	<linearGradient id="SVGID_5_" gradientUnits="userSpaceOnUse" x1="-119.7938" y1="206.1077" x2="387.4127" y2="701.0923">
		<stop  offset="0" style="stop-color:#FFD700"/>
		<stop  offset="0.5079" style="stop-color:#FFA500"/>
		<stop  offset="1" style="stop-color:#FFCC00"/>
	</linearGradient>
	<path class="st4" d="M179.9,506.3c-3.9,0-7.7-0.1-11.6,0c-3.3,0.1-4.5-1.3-4.4-4.6c0.2-13.4-1.3-10.7,10.5-11
		c5.7-0.1,11.4,0.1,17.1,0c3.1-0.1,4.2,1.1,4.2,4.2c-0.1,13.5,1.2,11.2-10.9,11.4C183.2,506.4,181.5,506.3,179.9,506.3
		C179.9,506.3,179.9,506.3,179.9,506.3z"/>
	<linearGradient id="SVGID_6_" gradientUnits="userSpaceOnUse" x1="86.0828" y1="-4.8523" x2="593.2893" y2="490.1324">
		<stop  offset="0" style="stop-color:#FFD700"/>
		<stop  offset="0.5079" style="stop-color:#FFA500"/>
		<stop  offset="1" style="stop-color:#FFCC00"/>
	</linearGradient>
	<path class="st5" d="M282.6,290.9c-14.3,0.3-27.6-2.9-40.4-8.4c-42.3-18.1-68.1-64-61.3-108.7c7.3-47.8,44.5-83.9,91.4-88.8
		c61.8-6.4,114.2,40.9,114.3,102.9c0,14.4-1.8,28.4-7.3,41.7c-5.2,12.8-15,19.9-28.6,21.4c-13.9,1.5-24-6.2-27-19.8
		c-0.2-1.1-0.4-2.1-0.7-4c-2.2,1.7-4.1,3.1-5.9,4.5c-19.5,14.9-46,15.4-66.1,1.2c-19.7-14-28.1-39.4-20.7-62.4
		c7.5-23.3,29.3-39,53.7-38.7c29.8,0.4,54.2,24.4,54.8,54.2c0.3,12.7,0,25.5,0.1,38.2c0.1,9.8,5.1,13.4,14.4,10.4
		c5.8-1.9,9.9-5.7,12-11.4c22.3-62.4-18.8-121.8-80.7-123.6c-44.3-1.2-85.8,36.7-88.7,80.4c-3.1,48,29.9,89.1,75.9,94.6
		c12.2,1.5,12.2,1.5,11.4,13.8C283.1,289,282.9,289.6,282.6,290.9z M283.4,147.8c-22.3,0-40.1,17.7-40,40
		c0,21.9,17.9,39.9,39.7,40.1c21.9,0.2,40.2-17.9,40.3-40C323.5,165.6,305.7,147.8,283.4,147.8z"/>
</g>
</svg>
