<?xml version="1.0" encoding="utf-8"?>
<!-- Generator: Adobe Illustrator 23.1.0, SVG Export Plug-In . SVG Version: 6.00 Build 0)  -->
<svg version="1.1" id="Layer_1" xmlns="http://www.w3.org/2000/svg" xmlns:xlink="http://www.w3.org/1999/xlink" x="0px" y="0px"
	 viewBox="0 0 566.9 566.9" style="enable-background:new 0 0 566.9 566.9;" xml:space="preserve">
<style type="text/css">
	.st0{fill:#FFFFFF;}
	.st1{fill:#B87333;}
</style>
<g>
	<path class="st0" d="M1,282.2c0,76.6,0,153.2,0,229.9c0,5.2,0.1,10.3,1.2,15.2c5.2,23.5,24.5,38.4,49.7,38.4c154.6,0,309,0,463.6,0
		c31.8,0,52.2-20.3,52.2-51.9c0-153.9,0-308,0-461.9c0-4.5-0.1-9.2-1.2-13.6c-5.2-23.2-24.3-38.4-48.6-38.4
		c-65.7-0.1-131.5,0-197.3,0c-89.4,0-178.6-0.1-268,0.3C44.8,0.2,36.1,1.8,29,5C9.5,14,1,30.6,1.1,51.9C1.1,128.6,1,205.4,1,282.2z"
		/>
	<path class="st1" d="M1,282.2c0-76.8,0.1-153.5,0-230.4C1,30.4,9.4,14,28.9,5c7.2-3.5,15.8-4.9,23.8-4.9
		c89.4-0.4,178.6-0.3,268-0.3c65.7,0,131.5,0,197.3,0c24.3,0,43.5,15.1,48.6,38.4c1,4.4,1.2,9,1.2,13.6c0,153.9,0.1,308,0,461.9
		c0,31.8-20.4,51.9-52.2,51.9c-154.6,0-309,0-463.6,0c-25.2,0-44.6-14.9-49.7-38.4C1.1,522.3,1,517,1,512C1,435.4,1,358.8,1,282.2z
		 M314.7,198.7c-1.5-11.9-1.8-12.1-14.7-12.1c-22.2,0-44.4,0-66.8,0c-8,0-10.5,2.6-10.5,10.6c0,89.5,0,179.1,0,268.6
		c0,8.3,2.6,10.8,11,10.8c22.9,0,45.6,0,68.4,0c10.1,0,12-1.9,12-11.9c0-46.2,0-92.3,0-138.6c0-5.2,0.3-10.2,0.8-15.4
		c2.1-20.9,15-35,35.6-38.7c17.8-3.4,34.1,6.3,38.4,23.9c2.1,8.5,2.7,17.7,2.7,26.5c0.3,47.4,0.1,94.7,0.1,142
		c0,10.1,2.1,12.1,11.9,12.1c22.2,0,44.4,0,66.8,0c11.2,0,12.9-1.7,12.9-12.8c0-52,0.1-104.2-0.1-156.3c-0.1-11.8-0.8-23.6-2.8-35.1
		c-13.6-78.4-85.5-101-139.2-84.7C332.1,190.4,323.4,194.9,314.7,198.7z M194.8,331.2c0-44.4,0-89,0-133.4c0-9.2-2.1-11.2-11-11.2
		c-29.3,0-58.5,0-87.8,0c-8.7,0-10.7,2.2-10.7,10.8c0,89.5,0,179,0,268.5c0,8.4,2.5,10.7,11,10.7c28.7,0,57.3,0,86,0
		c10.7,0,12.5-1.8,12.5-12.7C194.8,419.8,194.8,375.5,194.8,331.2z M95,133.5c0,6.1,0,12.1,0,18.2c0.1,15.6,10.1,26.3,25.7,26.9
		c12.9,0.4,25.8,0.4,38.7,0c14.6-0.5,24.7-10.5,25.2-24.9c0.4-13.3,0.5-26.6,0-39.9c-0.5-14.7-11.2-24.7-25.8-24.8
		c-12.8-0.1-25.4-0.1-38.2,0c-14.5,0.1-25.2,10.8-25.4,25.2C94.9,120.6,95,127,95,133.5z"/>
	<path class="st0" d="M314.7,198.7c8.8-3.7,17.4-8.3,26.5-11c53.7-16.3,125.6,6.3,139.2,84.7c1.9,11.5,2.7,23.4,2.8,35.1
		c0.3,52,0.1,104.2,0.1,156.3c0,11.1-1.7,12.8-12.9,12.8c-22.2,0-44.4,0-66.8,0c-9.8,0-11.9-2.1-11.9-12.1c0-47.4,0.1-94.7-0.1-142
		c0-8.9-0.6-17.9-2.7-26.5c-4.3-17.6-20.5-27.2-38.4-23.9c-20.7,3.9-33.6,17.8-35.6,38.7c-0.5,5-0.8,10.2-0.8,15.4
		c0,46.2,0,92.3,0,138.6c0,9.9-1.9,11.9-12,11.9c-22.9,0-45.6,0-68.4,0c-8.4,0-11-2.6-11-10.8c0-89.5,0-179.1,0-268.6
		c0-8.1,2.5-10.6,10.5-10.6c22.2,0,44.4,0,66.8,0C312.9,186.5,313.1,186.8,314.7,198.7z"/>
	<path class="st0" d="M194.8,331.2c0,44.3,0,88.6,0,132.8c0,10.8-1.8,12.7-12.5,12.7c-28.7,0-57.3,0-86,0c-8.5,0-11-2.3-11-10.7
		c0-89.5,0-179,0-268.5c0-8.7,2.2-10.8,10.7-10.8c29.3,0,58.5,0,87.8,0c8.9,0,11,2.1,11,11.2C194.8,242.3,194.8,286.8,194.8,331.2z"
		/>
	<path class="st0" d="M95,133.5c0-6.5-0.1-12.9,0-19.4c0.3-14.3,11.1-25.1,25.4-25.2c12.8-0.1,25.4-0.1,38.2,0
		c14.6,0.1,25.3,10.1,25.8,24.8c0.5,13.3,0.5,26.6,0,39.9c-0.5,14.5-10.6,24.4-25.2,24.9c-12.9,0.4-25.8,0.4-38.7,0
		c-15.6-0.5-25.6-11.1-25.7-26.9C95,145.6,95,139.5,95,133.5z"/>
</g>
</svg>
