<?xml version="1.0" encoding="utf-8"?>
<!-- Generator: Adobe Illustrator 23.1.0, SVG Export Plug-In . SVG Version: 6.00 Build 0)  -->
<svg version="1.1" id="Layer_1" xmlns="http://www.w3.org/2000/svg" xmlns:xlink="http://www.w3.org/1999/xlink" x="0px" y="0px"
	 viewBox="0 0 566.9 566.9" style="enable-background:new 0 0 566.9 566.9;" xml:space="preserve">
<style type="text/css">
	.st0{fill:url(#SVGID_1_);}
	.st1{fill:url(#SVGID_2_);}
</style>
<g>
	<linearGradient id="SVGID_1_" gradientUnits="userSpaceOnUse" x1="-37.6189" y1="57.9258" x2="506.2531" y2="610.9642">
		<stop  offset="0" style="stop-color:#FFD700"/>
		<stop  offset="0.5079" style="stop-color:#FFA500"/>
		<stop  offset="1" style="stop-color:#FFCC00"/>
	</linearGradient>
	<path class="st0" d="M163,210.8c-2.9-15.3-6.6-30.2-8.6-45.2c-8.4-65.8,41.3-130.9,107-141c72.3-11.1,136.2,34,150,105.8
		c4.8,24.9,0.4,49-6.4,72.9c-0.6,2.2-1.3,4.3-2.1,7.1c2.3,0.2,4.3,0.4,6.2,0.4c15.1,0,30.1,0,45.2,0c17.3,0.1,29,9.2,33.2,25.8
		c14.2,56.6,28.3,113.2,42.3,169.8c7.9,31.8,15.9,63.7,23.7,95.5c5.7,23.4-8.4,41.9-32.4,41.9c-158.6,0.1-317.1,0.1-475.7,0
		c-23.5,0-37.9-18.6-32.3-41.5c22-88.4,44-176.9,66.1-265.3c4.3-17.2,15.9-26.2,33.5-26.3C129.7,210.8,146.6,210.8,163,210.8z
		 M283.2,39c-71.7,0.4-124.9,65.4-111.3,136.3c7.6,39.5,24.3,75.3,45.3,109.2c16.6,26.9,35.7,51.8,60.3,72.1c4.5,3.7,7.4,4,12.1,0.1
		c25.3-21,44.9-46.6,61.7-74.4c21.4-35.5,39-72.7,44.8-114.4C405.7,100,351.9,38.6,283.2,39z M213.9,446.5
		c-2.1,26.8-4.3,53.7-6.5,81.5c3.4,0,5.8,0,8.3,0c100.6,0,201.1,0,301.7,0c2.5,0,5,0,7.5-0.3c9.3-1.4,15.5-8.9,13.5-18
		c-4.7-21.1-10.1-42-15.2-63.1C420.1,446.5,317.5,446.5,213.9,446.5z M324.6,346.2c2.6,0.7,4.7,1,6.5,1.8
		c9.3,4.2,19.4,7.3,27.5,13.2c12.5,9.1,12.3,23.5,0,32.9c-6.2,4.7-13.6,8.7-21,11c-33.7,10.5-67.8,10.9-101.8,1.8
		c-9.5-2.5-19-6.9-26.9-12.6c-13.1-9.3-12.7-24.2,0.2-33.8c5.7-4.3,12.7-7.1,19.3-10c4.4-1.9,9.2-3,14.1-4.5
		c-6.2-7.7-12.2-14.6-17.6-21.9c-2.9-3.9-5.9-5.4-10.7-5.4c-43.8,0.2-87.6,0.1-131.4,0.1c-2.2,0-4.5,0-7,0
		C66.4,356,57.2,392.6,48,429.6c116.1,0,231.7,0,348,0c-3.7-37-7.4-73.6-11.1-110.7c-12.3,0-23.9-0.1-35.5,0.1c-1.7,0-3.8,1.3-5,2.7
		C337.8,329.5,331.5,337.5,324.6,346.2z M197.5,447.1c-1.2-0.4-1.9-0.8-2.5-0.8c-49,0-98.1-0.1-147.1,0.1c-1.8,0-4.6,2.6-5.1,4.5
		c-4.8,18.3-9.5,36.6-13.8,55c-3.1,13.1,3.4,21.9,16.7,21.9c46.7,0.2,93.5,0,140.2,0.1c4.1,0,5.5-1.3,5.8-5.4
		c0.6-10.5,1.6-20.9,2.4-31.4C195.3,476.5,196.4,461.7,197.5,447.1z M491.5,319.2c-30.6,0-60.1,0-90.2,0c3.7,37,7.4,73.6,11.1,110.3
		c35.8,0,71,0,106.6,0C509.7,392.5,500.6,355.9,491.5,319.2z M207.8,302.2c0-0.8,0.2-1.3,0-1.7c-12.1-23.4-24.2-46.8-36.6-70.1
		c-0.8-1.5-3.3-3.1-5-3.1c-18.7-0.2-37.4-0.2-56-0.1c-6.9,0.1-12.2,3.7-14,10.1c-5.8,21.4-11,43-16.5,64.8
		C122.9,302.2,165.4,302.2,207.8,302.2z M487.3,302.2c-5.5-21.7-10.6-43.1-16.3-64.3c-1.9-7.1-7.7-10.7-15.7-10.7
		c-17.8-0.1-35.5,0.1-53.3-0.1c-3.8,0-5.4,1.2-7.1,4.6c-11.2,22.1-22.7,44-34.1,66c-0.7,1.3-1.4,2.6-2.4,4.5
		C401.7,302.2,444.2,302.2,487.3,302.2z M286,397.1c5.7-0.4,13.9-0.2,21.6-1.8c11.7-2.5,23.3-5.8,34.7-9.7c3.4-1.2,5.9-5.2,8.8-7.9
		c-2.8-2.7-5.2-6.5-8.5-8c-7.4-3.3-15.4-5.5-23.1-8c-6-2-11.1-1.2-15.9,3.9c-3.8,4.1-8.9,7-13.4,10.5c-4.4,3.4-8.7,3.6-13.1,0.1
		c-5.7-4.5-11.4-9.1-17.3-13.4c-1.6-1.2-4.2-2.5-5.9-2.1c-8.6,2-17.4,3.9-25.5,7.2c-4.7,1.9-8.3,6.3-12.4,9.6
		c4.1,3.3,7.7,7.7,12.4,9.7C245.8,395.3,264.7,396.5,286,397.1z"/>
	<linearGradient id="SVGID_2_" gradientUnits="userSpaceOnUse" x1="81.0127" y1="-58.7395" x2="624.8846" y2="494.2989">
		<stop  offset="0" style="stop-color:#FFD700"/>
		<stop  offset="0.5079" style="stop-color:#FFA500"/>
		<stop  offset="1" style="stop-color:#FFCC00"/>
	</linearGradient>
	<path class="st1" d="M283.6,208.2c-33.9,0.1-61.6-27.6-61.4-61.3c0.2-33.5,27.6-60.8,61.1-60.9c33.9-0.1,61.6,27.6,61.4,61.3
		C344.6,180.9,317.2,208.2,283.6,208.2z M283.3,192c24.8,0.1,45-19.9,45.2-44.5c0.2-24.7-19.8-44.9-44.6-45.2
		c-25.1-0.2-45.6,19.9-45.5,44.8C238.4,171.8,258.6,191.9,283.3,192z"/>
</g>
</svg>
