<?xml version="1.0" encoding="utf-8"?>
<!-- Generator: Adobe Illustrator 23.1.0, SVG Export Plug-In . SVG Version: 6.00 Build 0)  -->
<svg version="1.1" id="Layer_1" xmlns="http://www.w3.org/2000/svg" xmlns:xlink="http://www.w3.org/1999/xlink" x="0px" y="0px"
	 viewBox="0 0 496.1 496.1" style="enable-background:new 0 0 496.1 496.1;" xml:space="preserve">
<g>
	<path d="M406.5,468.4c-105.6,0-211.2,0-316.9,0c-0.8-0.3-1.5-0.7-2.3-0.8c-27.9-4.2-50.5-24.6-57.5-52.1c-0.8-3-1.4-6-2.1-9.1
		c0-105.6,0-211.2,0-316.8c0.3-0.8,0.7-1.6,0.8-2.4c5.1-34,34.2-59.5,68.6-59.6c100.7-0.1,201.5-0.2,302.2,0
		c38,0.1,69.1,31.2,69.2,69.1c0.2,100.7,0.1,201.4,0,302.1c0,32-22.2,59.7-53.3,67.4C412.3,467.2,409.4,467.8,406.5,468.4z
		 M165.4,352.7c-0.4-0.5-0.7-1-1.1-1.6c1.3-0.8,2.8-1.5,3.8-2.5c19-18.9,38-37.9,56.9-56.9c1.3-1.3,2.7-2.6,3.7-4.1
		c5.6-8,1-19.4-8.6-21.2c-5.4-1-9.7,1-13.6,4.8c-19.3,19.4-38.7,38.8-58.1,58.1c-1,1-2.2,2-3.9,3.5c0-10.3,0-19.8,0-29.2
		c0-9.4-5.7-15.8-13.9-15.7c-8.1,0.1-13.6,6.3-13.6,15.5c0,19.9,0,39.9,0,59.8c0,12,4.9,17,16.9,17c19.5,0,39,0,58.5,0
		c1.6,0,3.2-0.1,4.7-0.3c7.2-0.9,12.1-6.7,12-13.9c-0.1-7-5.5-12.9-12.7-13.3c-7.7-0.3-15.5-0.1-23.2-0.1
		C170.8,352.7,168.1,352.7,165.4,352.7z M353.9,163.1c0,11-0.1,20.9,0,30.8c0.1,8.1,6,14.2,13.6,14.3c7.6,0.1,13.8-6,13.9-14
		c0.1-21.5,0.1-43,0-64.6c0-7.7-5.7-13.5-13.3-13.6c-22-0.2-43.9-0.2-65.9,0c-8.2,0.1-13.7,6.8-13,15c0.6,7,6.2,12.1,14.1,12.3
		c8.5,0.2,16.9,0.1,25.4,0.1c1.4,0,2.9,0.2,4.3,0.2c0.2,0.5,0.5,0.9,0.7,1.4c-1.4,1-2.9,1.9-4.1,3.1c-17.7,17.6-35.3,35.3-53,52.9
		c-2.1,2.1-4.4,4.2-6.3,6.5c-3.6,4.3-4.1,10.5-1.4,15.3c2.7,4.9,8.2,8.1,13.7,6.8c3.4-0.8,7-2.8,9.5-5.3
		c19.3-19,38.4-38.3,57.6-57.4C350.9,166,352,164.9,353.9,163.1z"/>
</g>
</svg>
