<?xml version="1.0" encoding="utf-8"?>
<!-- Generator: Adobe Illustrator 23.1.0, SVG Export Plug-In . SVG Version: 6.00 Build 0)  -->
<svg version="1.1" id="Layer_1" xmlns="http://www.w3.org/2000/svg" xmlns:xlink="http://www.w3.org/1999/xlink" x="0px" y="0px"
	 viewBox="0 0 566.9 566.9" style="enable-background:new 0 0 566.9 566.9;" xml:space="preserve">
<style type="text/css">
	.st0{fill:url(#SVGID_1_);}
	.st1{fill:url(#SVGID_2_);}
	.st2{fill:url(#SVGID_3_);}
	.st3{fill:url(#SVGID_4_);}
	.st4{fill:url(#SVGID_5_);}
	.st5{fill:url(#SVGID_6_);}
	.st6{fill:url(#SVGID_7_);}
	.st7{fill:url(#SVGID_8_);}
	.st8{fill:url(#SVGID_9_);}
	.st9{fill:url(#SVGID_10_);}
	.st10{fill:url(#SVGID_11_);}
	.st11{fill:url(#SVGID_12_);}
	.st12{fill:url(#SVGID_13_);}
</style>
<g>
	<g>
		
			<linearGradient id="SVGID_1_" gradientUnits="userSpaceOnUse" x1="82.5585" y1="500.6106" x2="410.8187" y2="90.8361" gradientTransform="matrix(1 0 0 -1 0 567.8898)">
			<stop  offset="0" style="stop-color:#FFD700"/>
			<stop  offset="0.5079" style="stop-color:#FFA500"/>
			<stop  offset="1" style="stop-color:#FFCC00"/>
		</linearGradient>
		<path class="st0" d="M83.4,299.6c-8.5,0-15.7-3.5-21-10.5c-24.1-31.2-41.2-61.5-52.1-92.8c-0.2-0.5-0.3-0.9-0.5-1.4
			c-7.3-25.6-3-37.2,18.8-51.9c60.3-40.5,125.5-72.2,193.8-94.2c26.3-8.5,44.1-2.2,59.6,21c12.2,18.3,19,39,25.6,59l0.7,2.2
			c0.7,2.1,1.3,4.3,1.7,6.4l4.7,24.3c1.5,7.5,1.3,14.7-0.4,21.4c-3.5,13.8-12.5,24.6-26.8,32.2c-11.8,6.2-24.1,11.6-36,16.9
			c-3.3,1.5-6.7,2.9-10,4.4c-15.6,7-28.4,12.5-40.2,17.2c-0.8,0.3-1.1,0.5-1.3,0.6c0,0.2,0,0.7,0.1,1.7c1.4,10.1,2.5,20,3.2,29.4
			v0.3c0.2,4.2-2,8.1-5.7,10.2c-3.7,2-8.1,1.8-11.5-0.6l-0.1-0.1c-10.2-7.4-19-14.2-27-20.6c-2-1.6-2.8-1.7-5.1-0.7
			c-15.2,6.8-30.3,13.2-44.8,19.1c-5.9,2.4-12.1,4.3-18.6,5.7C88.2,299.4,85.8,299.6,83.4,299.6z M242.9,54.8
			c-5.2,0-10.9,1.1-17.5,3.2C157.9,79.7,93.5,111,34,151c-18.4,12.4-21.1,19.7-14.9,41.3c0.1,0.3,0.2,0.6,0.3,0.9
			C30,223.5,46.5,253,70,283.3c4.5,5.9,10.6,7.9,18.7,6.2c6-1.3,11.7-3,17-5.2c14.5-5.9,29.4-12.3,44.5-19c5.6-2.5,10.2-1.9,15,1.9
			c7.9,6.3,16.6,13,26.6,20.3c0.5,0.4,1,0.2,1.4,0.1c0.2-0.1,0.8-0.5,0.8-1.2c-0.7-9.3-1.8-19-3.2-28.9c-0.6-4.3-0.4-9.6,7.1-12.5
			c11.7-4.7,24.4-10.2,39.9-17.1c3.3-1.5,6.7-3,10.1-4.4c11.8-5.2,23.9-10.5,35.4-16.6c11.8-6.2,19.2-15,22-26
			c1.4-5.4,1.4-11.2,0.3-17.3l-4.7-24.3c-0.3-1.8-0.8-3.5-1.4-5.2l-0.7-2.2c-6.4-19.4-13.1-39.4-24.5-56.7
			C264.8,61.2,255.4,54.8,242.9,54.8z M200,254.5L200,254.5L200,254.5z"/>
	</g>
	
		<linearGradient id="SVGID_2_" gradientUnits="userSpaceOnUse" x1="138.5397" y1="545.4558" x2="466.8" y2="135.6812" gradientTransform="matrix(1 0 0 -1 0 567.8898)">
		<stop  offset="0" style="stop-color:#FFD700"/>
		<stop  offset="0.5079" style="stop-color:#FFA500"/>
		<stop  offset="1" style="stop-color:#FFCC00"/>
	</linearGradient>
	<path class="st1" d="M201.8,476.5c-8.8-8-18.2-15.4-26.2-23.9c-14.8-15.7-23.3-34.4-21.7-56.5c1-14.5,7.2-27.4,15.6-38.8
		c24.7-33.4,58.6-50.9,99.4-55c32.6-3.3,56.3,11.9,74.4,37.7c1.1,1.5,2.1,3.1,3.1,4.6c31.7-15,69.9-79,68-113.4
		c-7-2.7-14.1-4.9-20.9-8c-24.2-11.4-35.5-32.2-38.3-57.5c-5.4-50.2,11.5-92.4,49.2-125.9c31.2-27.8,81.4-18.9,103.8-0.9
		c2.3,1.8,4.6,3.7,6.4,5.9c8,9.7,16.5,19.2,23.7,29.5c16.1,22.8,20,48.9,16.6,75.6c-12.4,95.6-49.4,180.7-113.1,253.3
		c-36,41.1-80.2,70.9-133.6,85.4c-28.7,7.8-57.3,7.4-85.9-2.5c-7.9-2.7-17,1-23.5,7.6c-6.4,6.6-8.1,14.5-4.8,23
		c3.3,8.7,9.6,13.9,19,15s18.2-1.3,26.4-5.6c8.1-4.3,15.9-9,23.9-13.4c10.8-6.1,22.2-10.3,34.9-10.1c11.3,0.2,20.5,4.7,28.2,12.7
		c4,4.2,8,8.5,12.4,12.3c4.9,4.4,10.8,4.7,16,0.9c3.8-2.8,7.1-6.3,10.1-10c4.8-5.7,8.8-12.1,13.8-17.6c5.5-6.1,12.7-9.3,21-9.5
		c9.3-0.2,16.1,4,19.7,12.5c1.9,4.6,2.9,9.5,4.5,14.2c2.4,7.3,6.9,9.8,13.9,6.4c4.3-2.1,8.1-5.7,11.7-9c5.2-4.7,9.7-10.4,15.3-14.6
		c6.9-5.2,15-7.1,23.6-4.2c2.3,0.8,5.1,2,6.1,3.9c1.2,2.1,1.9,5.9,0.7,7.6c-1.2,1.7-5.6,3-7.3,2.1c-8.3-4.7-14.5-1-20.2,4.3
		c-4.6,4.2-8.5,9.2-12.9,13.6c-5.4,5.4-11.8,9.1-19.6,10c-10.6,1.2-18.3-3.2-22.2-13.1c-1.6-4-2.5-8.3-3.8-12.5
		c-2.5-8.4-7.9-11.1-15.7-7c-3.6,1.9-6.8,4.8-9.4,8c-4.5,5.4-8.1,11.6-12.7,16.9c-14.8,17.2-31.3,17.6-46.9,1.4
		c-1.3-1.3-2.5-2.7-3.8-4.1c-12.5-13.4-23.9-16.3-40.9-8.9c-9.7,4.2-18.7,9.9-28,15c-11.4,6.3-23.1,11.3-36.6,10.8
		c-17.5-0.7-30.5-11.1-34.6-27.9c-3.7-15.3,3.3-30.3,18.2-38.7C200.2,477.4,201.2,476.8,201.8,476.5z M427.9,232.4
		c-1.4,7-2.3,13.2-3.8,19.2c-10.4,42.4-32.6,76.9-68.2,102.6c-1.6,1.2-3.4,4-3,5.6c6.9,29.3-5,52.8-22.7,74.4
		c-2.4,2.9-5.6,3.8-8.8,1.2c-3.4-2.7-3.3-6-0.8-9.3s5.3-6.4,7.6-9.9c22-34.2,18.8-60.9-12.5-87.9c-3.4-3-7.5-5.2-11.3-7.8
		c7.9,18.1,2.6,33.3-8.2,47.1c-18,22.9-42.1,36.3-70.4,41.5c-29.3,5.4-44.2-1.5-56.8-25.3c-1.1,5.5-2.4,9.8-2.6,14.1
		c-1.2,26.9,15.6,51,42.5,61.3c21,8,42,6.6,62.8-0.5c4.3-1.5,8.6-2.1,10.4,3.1c1.7,5.2-1.9,7.7-6.4,8.8c-11.4,2.7-22.9,5.3-33.5,7.7
		c0.4,0.1,2.1,0.7,3.8,1c25,4.9,49.3,1.1,72.9-7.2c53.7-18.7,96-53.1,130.5-97.5C489,324,515,266.6,532,204.9
		c6.7-24.5,11.9-49.4,10.9-74.9c-0.4-9.5-2.7-19-4.1-28.4c-2.1,10.7-3.3,21-5,31.1c-0.7,4.1-3.6,6.9-8.1,5.6c-4.3-1.3-5.2-4.8-3.9-9
		c4.1-14,3.3-28-0.1-41.9c-5.8-23.8-17.3-42.8-43.1-49.1c-4.8-1.2-9.7-2.4-14.7-2.8c-9.9-0.8-19.8-1.2-30,2.5
		c15.7,5.8,23.3,14,27,29.8c5.6,24.2,0.3,47.1-9.6,69.1c-8.4,18.5-19.8,34.7-37.8,45.1c-13.4,7.7-27,9.3-40.2-0.8
		c-0.1-0.1-0.6,0.2-0.9,0.4c2.8,9.8,7.5,17,16.2,23.6c19.8,15.2,41.8,18.5,65.4,11.4c23.7-7.2,40.3-23.3,52.7-44.2
		c2.4-4,5-8,10.2-4.8c5.1,3.1,3.2,7.6,0.5,11.3c-5.6,7.7-11.4,15.3-17,23c-1.4,1.9-2.9,4.2-3.3,6.4c-8.7,57.4-32.3,107.6-72.3,149.6
		c-13.1,13.8-28.4,25.4-42.8,38c-3.5,3-7.6,4.5-10.8,0c-3.3-4.6-0.1-7.7,3.5-10.2c1.4-1,2.7-2,4-3c43.8-33.1,75.6-75,93.7-127
		c4.2-12.2,7.2-24.9,10.8-37.3c-0.5-0.3-1-0.5-1.5-0.8C465.3,228,447.5,233.2,427.9,232.4z M376.1,108.5
		c-4.6,14.5-6.9,28.6-4.3,42.9c4.6,25.2,21.8,31.4,41.7,15.1c19.3-15.8,29.7-37,34.9-60.9c3-13.6,3.8-27.2-1.4-40.5
		c-5.5-14-16.7-18.5-30.1-11.8c-16.3,8.2-25.9,22.5-34.6,38.9c6.2-1.7,11.4-3,14.3,3.4c2.2,5-0.9,12.6-6.4,16.1
		C385.1,115,381.4,114.3,376.1,108.5z M208.8,339.9c-10.1,7.9-18.6,16.2-23.6,27.6c-6.7,15.4-0.3,26.9,16.2,29.5
		c19.2,3,36.7-2.4,53.3-11.2c16-8.5,30.2-19.4,37.9-36.5c6.9-15.4,0.7-26.7-15.9-29.8c-16.7-3.1-32,1.7-47.2,8
		c5.2,7.3,4.7,12.4-1.4,16.6C221,349,213.7,347.6,208.8,339.9z"/>
	
		<linearGradient id="SVGID_3_" gradientUnits="userSpaceOnUse" x1="-82.2912" y1="368.5536" x2="245.9691" y2="-41.221" gradientTransform="matrix(1 0 0 -1 0 567.8898)">
		<stop  offset="0" style="stop-color:#FFD700"/>
		<stop  offset="0.5079" style="stop-color:#FFA500"/>
		<stop  offset="1" style="stop-color:#FFCC00"/>
	</linearGradient>
	<path class="st2" d="M95,459.4c-2.3,1.9-5.8,1.7-8.1-0.1c-0.6-0.5-1-1-1.2-1.5c-0.7-2-0.6-5.4,0.6-6.8
		c11.4-12.6,22.9-25.1,34.9-37.2c1.4-1.5,5.3-2.2,7.8,0.4c2.6,2.7,2.2,6.3,0.8,7.9"/>
	
		<linearGradient id="SVGID_4_" gradientUnits="userSpaceOnUse" x1="-63.7429" y1="383.4122" x2="264.5174" y2="-26.3624" gradientTransform="matrix(1 0 0 -1 0 567.8898)">
		<stop  offset="0" style="stop-color:#FFD700"/>
		<stop  offset="0.5079" style="stop-color:#FFA500"/>
		<stop  offset="1" style="stop-color:#FFCC00"/>
	</linearGradient>
	<path class="st3" d="M87.2,405.6c-1.5,0.3-3,0.2-4.2-0.8c-1.3-1-2.5-2.7-2.7-3.9c-0.6-3.6,1.8-6.2,3.8-7.2
		c7.9-4,16.3-7.1,24.5-10.5c3.2-1.3,6.5-3.3,9.8-3.6c2.2-0.2,5.4,0,6.6,3.6c1.3,3.8-0.6,6.4-2.2,7.2c-11.6,5.4-23.5,10.2-35.3,15.1
		C87.4,405.6,87.3,405.6,87.2,405.6z"/>
	
		<linearGradient id="SVGID_5_" gradientUnits="userSpaceOnUse" x1="-77.3719" y1="372.4944" x2="250.8884" y2="-37.2802" gradientTransform="matrix(1 0 0 -1 0 567.8898)">
		<stop  offset="0" style="stop-color:#FFD700"/>
		<stop  offset="0.5079" style="stop-color:#FFA500"/>
		<stop  offset="1" style="stop-color:#FFCC00"/>
	</linearGradient>
	<path class="st4" d="M151.2,454.6c-0.1,0.1-0.2,0.3-0.3,0.4c-5.4,8-9.5,16.7-12.4,25.9c-1.6,5.2-5.1,7.5-9.4,5.3
		c-3.8-1.9-4.3-5.3-2.5-9c4.6-9.7,9-19.6,14.2-29.1c1.1-2.1,5.3-3.5,8-3.5c0.4,0,0.8,0.2,1.2,0.6
		C152.6,447.5,153.1,451.6,151.2,454.6z"/>
	
		<linearGradient id="SVGID_6_" gradientUnits="userSpaceOnUse" x1="85.4463" y1="502.924" x2="413.7066" y2="93.1494" gradientTransform="matrix(1 0 0 -1 0 567.8898)">
		<stop  offset="0" style="stop-color:#FFD700"/>
		<stop  offset="0.5079" style="stop-color:#FFA500"/>
		<stop  offset="1" style="stop-color:#FFCC00"/>
	</linearGradient>
	<path class="st5" d="M73.2,191.8c-2.8,1.4-6.3,0.7-8.2-1.8c-0.4-0.5-0.6-1-0.7-1.5c-0.2-2.4,1-6,2.8-7.3
		c6.2-4.5,12.9-8.3,19.6-12.2c45.1-26.4,92.5-47.8,142.2-64.2c0.4-0.1,0.8-0.2,1.2-0.4c4.3-1.7,8-1.3,9.7,3.5c1.7,5-1.8,7.1-5.8,8.6
		c-13.9,5-27.8,9.6-41.5,15c-40.3,15.8-78.8,35.3-115.5,58.2C75.8,190.5,74.6,191.2,73.2,191.8z"/>
	
		<linearGradient id="SVGID_7_" gradientUnits="userSpaceOnUse" x1="75.6006" y1="495.0369" x2="403.8609" y2="85.2622" gradientTransform="matrix(1 0 0 -1 0 567.8898)">
		<stop  offset="0" style="stop-color:#FFD700"/>
		<stop  offset="0.5079" style="stop-color:#FFA500"/>
		<stop  offset="1" style="stop-color:#FFCC00"/>
	</linearGradient>
	<path class="st6" d="M116.4,209.2c-3.9,2.2-7.6,3.1-10.2-1.4s0.2-7,3.8-9.5c30.4-21,62.6-36.6,96.7-47.2c6.3-1.9,10.6-2.4,10.4,4.9
		c0,4.5-4,5.7-6.9,7.1C176.4,174.8,144.9,189.6,116.4,209.2z"/>
	
		<linearGradient id="SVGID_8_" gradientUnits="userSpaceOnUse" x1="272.5101" y1="652.7762" x2="600.7703" y2="243.0016" gradientTransform="matrix(1 0 0 -1 0 567.8898)">
		<stop  offset="0" style="stop-color:#FFD700"/>
		<stop  offset="0.5079" style="stop-color:#FFA500"/>
		<stop  offset="1" style="stop-color:#FFCC00"/>
	</linearGradient>
	<path class="st7" d="M439.7,106.9c0.1,8.2-6.2,15.4-12.7,15.5c-4.8,0.1-8.3-3.6-8.2-8.8c0.1-7.1,6.6-14.1,13.1-14
		C437.3,99.8,439.4,103.1,439.7,106.9z"/>
	
		<linearGradient id="SVGID_9_" gradientUnits="userSpaceOnUse" x1="285.1234" y1="662.8804" x2="613.3837" y2="253.1058" gradientTransform="matrix(1 0 0 -1 0 567.8898)">
		<stop  offset="0" style="stop-color:#FFD700"/>
		<stop  offset="0.5079" style="stop-color:#FFA500"/>
		<stop  offset="1" style="stop-color:#FFCC00"/>
	</linearGradient>
	<path class="st8" d="M418.7,86.3c-4.8,0-7.8-3.3-7.9-8.5c-0.1-7.3,6.2-14.3,12.9-14.3c4.8,0,7.9,3.4,8,8.4
		C431.8,79,425.2,86.3,418.7,86.3z"/>
	
		<linearGradient id="SVGID_10_" gradientUnits="userSpaceOnUse" x1="241.5388" y1="627.9658" x2="569.7991" y2="218.1912" gradientTransform="matrix(1 0 0 -1 0 567.8898)">
		<stop  offset="0" style="stop-color:#FFD700"/>
		<stop  offset="0.5079" style="stop-color:#FFA500"/>
		<stop  offset="1" style="stop-color:#FFCC00"/>
	</linearGradient>
	<path class="st9" d="M412.4,137.4c0.1,7.3-6.4,14.3-13,14.3c-4.7-0.1-7.8-3.5-7.8-8.6c0-7.1,6.6-14.4,13.1-14.3
		C409.3,128.8,412.3,132.2,412.4,137.4z"/>
	
		<linearGradient id="SVGID_11_" gradientUnits="userSpaceOnUse" x1="10.5993" y1="442.9659" x2="338.8596" y2="33.1913" gradientTransform="matrix(1 0 0 -1 0 567.8898)">
		<stop  offset="0" style="stop-color:#FFD700"/>
		<stop  offset="0.5079" style="stop-color:#FFA500"/>
		<stop  offset="1" style="stop-color:#FFCC00"/>
	</linearGradient>
	<path class="st10" d="M210.5,386.9c-5.6,0-9.9-3.4-10-8c-0.1-5.9,7.3-11.9,14.5-11.7c5.6,0.1,9.8,3.8,9.7,8.4
		C224.5,381.4,217.6,387,210.5,386.9z"/>
	
		<linearGradient id="SVGID_12_" gradientUnits="userSpaceOnUse" x1="38.4" y1="465.2363" x2="366.6602" y2="55.4618" gradientTransform="matrix(1 0 0 -1 0 567.8898)">
		<stop  offset="0" style="stop-color:#FFD700"/>
		<stop  offset="0.5079" style="stop-color:#FFA500"/>
		<stop  offset="1" style="stop-color:#FFCC00"/>
	</linearGradient>
	<path class="st11" d="M254.4,376.8c-4.2,2.5-8.8,2-12.7-1.6c-0.7-0.7-1.2-1.6-1.6-2.6c-1.7-4.8,1.6-10.5,7.5-13
		c6.1-2.6,12.5-0.9,14.5,4c0.1,0.2,0.1,0.4,0.2,0.6c0.5,1.6,0.4,3.4-0.3,5C260.6,372.4,258.1,374.9,254.4,376.8z"/>
	
		<linearGradient id="SVGID_13_" gradientUnits="userSpaceOnUse" x1="63.7571" y1="485.5492" x2="392.0173" y2="75.7746" gradientTransform="matrix(1 0 0 -1 0 567.8898)">
		<stop  offset="0" style="stop-color:#FFD700"/>
		<stop  offset="0.5079" style="stop-color:#FFA500"/>
		<stop  offset="1" style="stop-color:#FFCC00"/>
	</linearGradient>
	<path class="st12" d="M263.1,343.6c-6,0-9.8-3.2-9.8-8.1c0-6,6.7-11.4,14.1-11.4c5.9,0,9.9,3.4,9.9,8.1
		C277.3,338.1,270.4,343.6,263.1,343.6z"/>
</g>
</svg>
