<?xml version="1.0" encoding="utf-8"?>
<!-- Generator: Adobe Illustrator 23.1.0, SVG Export Plug-In . SVG Version: 6.00 Build 0)  -->
<svg version="1.1" id="Layer_1" xmlns="http://www.w3.org/2000/svg" xmlns:xlink="http://www.w3.org/1999/xlink" x="0px" y="0px"
	 viewBox="0 0 566.9 566.9" style="enable-background:new 0 0 566.9 566.9;" xml:space="preserve">
<style type="text/css">
	.st0{fill:#B87333;}
	.st1{fill:#FFFFFF;}
</style>
<g>
	<path class="st0" d="M566.8,53.2c0,153.1,0,306.4,0,459.5c-0.3,0.7-0.8,1.3-0.9,2c-6,30.7-29.9,51-60.9,51.1
		c-147.3,0.1-294.5,0.1-441.8-0.1c-6.7,0-13.7-1.1-20-3.2c-26.5-8.7-41.9-31.5-41.9-60.9c0-143,0-286,0-429.1
		c0-4.4-0.1-8.8,0.1-13.2c0.9-19.1,9-34.6,24-46.5C34,6,44,2.9,54.3,0.1c153.1,0,306.4,0,459.5,0c1,0.3,2,0.8,3,1
		c18,3.7,32.3,13,41.2,29.2C562,37.3,563.9,45.5,566.8,53.2z M119.5,446.6c2.1-0.3,3.2-0.6,4.3-0.8c26-6.8,51.9-13.6,77.8-20.4
		c3.8-1,6.9-0.7,10.5,1.1c29.8,14.9,61.2,20.4,94.2,16.3c92.8-11.6,157.1-97.5,142.6-190.2c-15-95.5-110-158-203.7-133.8
		c-98.1,25.3-151.2,132-110.7,224.5c6.3,14.5,7,26.7,2.3,41C130.2,404.6,125.3,425.4,119.5,446.6z"/>
	<path class="st1" d="M54.2,0.1C43.9,2.8,33.8,5.9,25.3,12.8c-15,11.9-23,27.3-24,46.5C1,63.6,1.1,68.1,1.1,72.5
		c0,143,0,286,0,429.1c0,29.4,15.5,52.2,41.9,60.9c6.3,2.1,13.3,3.2,20,3.2c147.3,0.2,294.5,0.2,441.8,0.1c31,0,54.9-20.3,60.9-51.1
		c0.1-0.7,0.6-1.3,0.9-2c0,18,0,36.1,0,54.1c-188.9,0-377.8,0-566.7,0C0,377.9,0,189,0,0.1C18.1,0.1,36.2,0.1,54.2,0.1z"/>
	<path class="st1" d="M566.8,53.2c-2.9-7.7-4.8-15.7-8.7-22.9c-9-16.1-23.2-25.5-41.2-29.2c-1-0.2-2-0.7-3-1c17.7,0,35.4,0,53.1,0
		C566.8,17.8,566.8,35.5,566.8,53.2z"/>
	<path class="st1" d="M119.5,446.6c5.9-21.4,10.7-42,17.2-62.3c4.6-14.4,4-26.5-2.3-41C94,250.8,147,144.2,245.1,118.9
		c93.5-24.1,188.6,38.3,203.7,133.8c14.6,92.7-49.7,178.6-142.6,190.2c-33,4.1-64.4-1.4-94.2-16.3c-3.6-1.7-6.7-2.2-10.5-1.1
		c-26,7-51.9,13.7-77.8,20.4C122.7,446.1,121.5,446.3,119.5,446.6z M159,407.7c16.4-4.3,31.7-8.4,47.2-12.1c2.8-0.7,6.5-0.1,9.1,1.3
		c27,15.5,56.1,22.1,87,18.3c77.7-9.4,131.2-81.2,118.8-158.9c-14.5-90.7-115-141.8-197.1-99.9c-72.3,36.8-97.2,126.1-54.4,195.4
		c2.3,3.8,2.9,7,1.7,11.3C167.1,377.6,163.2,392.1,159,407.7z"/>
	<path class="st0" d="M159,407.7c4.3-15.6,8.2-30.1,12.4-44.6c1.3-4.3,0.7-7.5-1.7-11.3c-42.7-69.3-17.8-158.6,54.4-195.4
		c82.1-41.8,182.6,9.2,197.1,99.9c12.4,77.8-41.1,149.5-118.8,158.9c-30.9,3.8-60-2.8-87-18.3c-2.5-1.4-6.3-2-9.1-1.3
		C190.8,399.3,175.4,403.4,159,407.7z M328.5,357.9c2.2,0,4.5,0.2,6.7,0c15.4-2.1,34.7-12.1,34.2-34.3c0-2.5-1.4-6.3-3.3-7.2
		c-11-5.9-22.4-11.1-33.7-16.3c-3.6-1.6-6.5-0.8-9.1,2.6c-3.8,5.2-8,10-12.1,15c-2.4,3-5.2,3.4-8.7,2.1c-24.4-9.6-42.8-26-56.3-48.4
		c-2.2-3.6-1.7-6.3,1-9.4c3.6-4.1,7.1-8.5,9.9-13.2c1.1-2.1,1.3-5.5,0.3-7.8c-4-10.7-8.5-21.1-13.1-31.6c-1-2.2-2.6-4.7-4.7-5.7
		c-6.3-3.3-18.4-0.7-23.5,4.7c-15,15.6-18.8,35.8-8.6,56.6c16.9,34.1,41.8,61.3,75.7,79.1C297.3,351.5,312.1,357.6,328.5,357.9z"/>
	<path class="st1" d="M328.5,357.9c-16.4-0.3-31.2-6.4-45.4-13.9c-34-17.9-58.8-45-75.7-79.1c-10.2-20.7-6.4-41,8.6-56.6
		c5.2-5.4,17.2-8,23.5-4.7c2.1,1.1,3.8,3.6,4.7,5.7c4.6,10.5,9.1,20.9,13.1,31.6c0.9,2.3,0.8,5.7-0.3,7.8c-2.8,4.7-6.2,9.1-9.9,13.2
		c-2.6,3.1-3.1,5.7-1,9.4c13.4,22.4,31.9,38.7,56.3,48.4c3.7,1.5,6.3,0.9,8.7-2.1c4-5.1,8.3-9.9,12.1-15c2.5-3.4,5.6-4.3,9.1-2.6
		c11.4,5.3,22.6,10.6,33.7,16.3c1.8,1,3.2,4.8,3.3,7.2c0.5,22.3-18.8,32.3-34.2,34.3C333,358.2,330.7,357.9,328.5,357.9z"/>
</g>
</svg>
